<?xml version="1.0" standalone="no"?><!DOCTYPE svg PUBLIC "-//W3C//DTD SVG 1.1//EN" "http://www.w3.org/Graphics/SVG/1.1/DTD/svg11.dtd" ><svg version="1.1" xmlns="http://www.w3.org/2000/svg"><defs><font horiz-adv-x="0" id="font"><font-face ascent="766" bbox="-164 -253 1105 844" cap-height="589" descent="-234" font-family="Copyright Klim Type Foundry" font-stretch="normal" font-style="normal" font-weight="800" units-per-em="1000" x-height="462" /><missing-glyph horiz-adv-x="223" /><glyph d="M407 136H178L108 0H-23L294 589H446L557 0H431ZM229 236H389Q379 286 372 333Q365 380 361 416Q357 452 355.5 473.5Q354 495 354 495H350Q343 472 332 445Q323 422 309 391Q295 360 277 325Z" glyph-name="A" horiz-adv-x="618" unicode="A" /><glyph d="M427 136H209L103 0H-35L424 589H891L872 484H611L587 348H817L799 246H569L544 105H805L788 0H403ZM286 236H444L469 379Q475 414 480 437.5Q485 461 489 475Q493 491 496 500H492Z" glyph-name="AE" horiz-adv-x="879" unicode="&#198;" /><glyph d="M439 136H221L115 0H-23L436 589H903L884 484H623L599 348H829L811 246H581L556 105H817L800 0H415ZM298 236H456L481 379Q487 414 492 437.5Q497 461 501 475Q505 491 508 500H504ZM582 649 646 785H798L691 649Z" glyph-name="AEacute" horiz-adv-x="891" unicode="&#508;" /><glyph d="M407 136H178L108 0H-23L294 589H446L557 0H431ZM229 236H389Q379 286 372 333Q365 380 361 416Q357 452 355.5 473.5Q354 495 354 495H350Q343 472 332 445Q323 422 309 391Q295 360 277 325ZM312 649 376 785H528L421 649Z" glyph-name="Aacute" horiz-adv-x="618" unicode="&#193;" /><glyph d="M407 136H178L108 0H-23L294 589H446L557 0H431ZM229 236H389Q379 286 372 333Q365 380 361 416Q357 452 355.5 473.5Q354 495 354 495H350Q343 472 332 445Q323 422 309 391Q295 360 277 325ZM370 645Q295 645 267 683.5Q239 722 251 788H341Q337 759 346 744Q355 729 386 729Q417 729 431 744Q445 759 452 788H542Q530 722 487.5 683.5Q445 645 370 645Z" glyph-name="Abreve" horiz-adv-x="618" unicode="&#258;" /><glyph d="M407 136H178L108 0H-23L294 589H446L557 0H431ZM229 236H389Q379 286 372 333Q365 380 361 416Q357 452 355.5 473.5Q354 495 354 495H350Q343 472 332 445Q323 422 309 391Q295 360 277 325ZM427 789 533 649H420L395 681Q385 694 382 703Q380 707 380 712H376Q375 707 371 703Q366 695 350 681L313 649H195L351 789Z" glyph-name="Acircumflex" horiz-adv-x="618" unicode="&#194;" /><glyph d="M407 136H178L108 0H-23L294 589H446L557 0H431ZM229 236H389Q379 286 372 333Q365 380 361 416Q357 452 355.5 473.5Q354 495 354 495H350Q343 472 332 445Q323 422 309 391Q295 360 277 325ZM205 720Q205 754 225.5 772Q246 790 274 790Q304 790 324.5 772Q345 754 345 720Q345 687 324.5 668.5Q304 650 274 650Q246 650 225.5 668.5Q205 687 205 720ZM416 719Q416 753 436 771Q456 789 485 789Q515 789 535 771Q555 753 555 719Q555 687 535 668.5Q515 650 485 650Q456 650 436 668.5Q416 687 416 719Z" glyph-name="Adieresis" horiz-adv-x="618" unicode="&#196;" /><glyph d="M407 136H178L108 0H-23L294 589H446L557 0H431ZM229 236H389Q379 286 372 333Q365 380 361 416Q357 452 355.5 473.5Q354 495 354 495H350Q343 472 332 445Q323 422 309 391Q295 360 277 325ZM325 649 218 785H370L434 649Z" glyph-name="Agrave" horiz-adv-x="618" unicode="&#192;" /><glyph d="M407 136H178L108 0H-23L294 589H446L557 0H431ZM229 236H389Q379 286 372 333Q365 380 361 416Q357 452 355.5 473.5Q354 495 354 495H350Q343 472 332 445Q323 422 309 391Q295 360 277 325ZM233 667 250 763H538L522 667Z" glyph-name="Amacron" horiz-adv-x="618" unicode="&#256;" /><glyph d="M249 -111Q249 -75 265 -46Q281 -17 306 3.5Q331 24 361.5 36Q392 48 421 51L407 136H178L108 0H-23L294 589H446L557 0H504Q434 0 390 -20Q346 -40 346 -91Q346 -111 357 -122Q368 -133 386 -133Q406 -133 419.5 -125Q433 -117 447 -100L476 -160Q456 -185 427.5 -198Q399 -211 361 -211Q312 -211 280.5 -186.5Q249 -162 249 -111ZM229 236H389Q379 286 372 333Q365 380 361 416Q357 452 355.5 473.5Q354 495 354 495H350Q343 472 332 445Q323 422 309 391Q295 360 277 325Z" glyph-name="Aogonek" horiz-adv-x="618" unicode="&#260;" /><glyph d="M407 136H178L108 0H-23L294 589H446L557 0H431ZM229 236H389Q379 286 372 333Q365 380 361 416Q357 452 355.5 473.5Q354 495 354 495H350Q343 472 332 445Q323 422 309 391Q295 360 277 325ZM282 729Q282 752 290.5 773Q299 794 314 809.5Q329 825 350.5 834.5Q372 844 399 844Q444 844 470.5 816Q497 788 497 748Q497 699 465.5 665.5Q434 632 382 632Q332 632 307 659.5Q282 687 282 729ZM395 789Q372 789 357.5 772.5Q343 756 343 733Q343 713 354.5 700.5Q366 688 387 688Q410 688 424 705Q438 722 438 745Q438 765 427 777Q416 789 395 789Z" glyph-name="Aring" horiz-adv-x="618" unicode="&#197;" /><glyph d="M407 136H178L108 0H-23L294 589H446L557 0H431ZM229 236H389Q379 286 372 333Q365 380 361 416Q357 452 355.5 473.5Q354 495 354 495H350Q343 472 332 445Q323 422 309 391Q295 360 277 325ZM440 650Q411 650 395.5 657.5Q380 665 363 676Q344 688 333.5 694.5Q323 701 309 701Q294 701 283 688.5Q272 676 270 650H202Q195 681 200.5 708Q206 735 221 754Q236 773 258 784Q280 795 306 795Q333 795 348.5 788Q364 781 378 771Q398 757 409 750.5Q420 744 434 744Q448 744 457.5 755.5Q467 767 469 793H540Q554 729 525.5 689.5Q497 650 440 650Z" glyph-name="Atilde" horiz-adv-x="618" unicode="&#195;" /><glyph d="M383 299Q443 291 470 259Q497 227 497 181Q497 134 480 99.5Q463 65 432 43Q401 21 358.5 10.5Q316 0 264 0H34L137 589H353Q442 589 480 553Q518 517 518 457Q518 422 507 395Q496 368 477.5 348.5Q459 329 434.5 317.5Q410 306 383 303ZM296 339Q337 339 365 358Q393 377 393 425Q393 458 374 472.5Q355 487 317 487H243L217 339ZM175 102H274Q318 102 347.5 120.5Q377 139 377 186Q377 215 360.5 232Q344 249 300 249H201Z" glyph-name="B" horiz-adv-x="542" unicode="B" /><glyph d="M535 126Q498 55 438.5 21.5Q379 -12 291 -12Q174 -12 113 53.5Q52 119 52 231Q52 318 76.5 387Q101 456 143 503.5Q185 551 240.5 576Q296 601 359 601Q458 601 510 556.5Q562 512 576 438L450 395Q444 443 420.5 469Q397 495 350 495Q309 495 276.5 474.5Q244 454 222 418.5Q200 383 188.5 336Q177 289 177 237Q177 168 209 129.5Q241 91 298 91Q340 91 372 109.5Q404 128 432 181Z" glyph-name="C" horiz-adv-x="578" unicode="C" /><glyph d="M535 126Q498 55 438.5 21.5Q379 -12 291 -12Q174 -12 113 53.5Q52 119 52 231Q52 318 76.5 387Q101 456 143 503.5Q185 551 240.5 576Q296 601 359 601Q458 601 510 556.5Q562 512 576 438L450 395Q444 443 420.5 469Q397 495 350 495Q309 495 276.5 474.5Q244 454 222 418.5Q200 383 188.5 336Q177 289 177 237Q177 168 209 129.5Q241 91 298 91Q340 91 372 109.5Q404 128 432 181ZM310 649 374 785H526L419 649Z" glyph-name="Cacute" horiz-adv-x="578" unicode="&#262;" /><glyph d="M535 126Q498 55 438.5 21.5Q379 -12 291 -12Q174 -12 113 53.5Q52 119 52 231Q52 318 76.5 387Q101 456 143 503.5Q185 551 240.5 576Q296 601 359 601Q458 601 510 556.5Q562 512 576 438L450 395Q444 443 420.5 469Q397 495 350 495Q309 495 276.5 474.5Q244 454 222 418.5Q200 383 188.5 336Q177 289 177 237Q177 168 209 129.5Q241 91 298 91Q340 91 372 109.5Q404 128 432 181ZM329 649 223 789H336L360 757Q371 741 374 734Q376 730 376 726H380Q381 730 385 734Q388 738 393 743.5Q398 749 406 757L443 789H561L405 649Z" glyph-name="Ccaron" horiz-adv-x="578" unicode="&#268;" /><glyph d="M339 -120Q339 -166 306 -188.5Q273 -211 226 -211Q193 -211 166.5 -201Q140 -191 126 -174L151 -115Q180 -150 214 -150Q230 -150 239.5 -143Q249 -136 249 -121Q249 -87 196 -81L226 -5Q141 12 96.5 73.5Q52 135 52 231Q52 318 76.5 387Q101 456 143 503.5Q185 551 240.5 576Q296 601 359 601Q458 601 510 556.5Q562 512 576 438L450 395Q444 443 420.5 469Q397 495 350 495Q309 495 276.5 474.5Q244 454 222 418.5Q200 383 188.5 336Q177 289 177 237Q177 168 209 129.5Q241 91 298 91Q340 91 372 109.5Q404 128 432 181L535 126Q498 55 438.5 21.5Q379 -12 291 -12H272L261 -38Q301 -45 320 -63.5Q339 -82 339 -120Z" glyph-name="Ccedilla" horiz-adv-x="578" unicode="&#199;" /><glyph d="M535 126Q498 55 438.5 21.5Q379 -12 291 -12Q174 -12 113 53.5Q52 119 52 231Q52 318 76.5 387Q101 456 143 503.5Q185 551 240.5 576Q296 601 359 601Q458 601 510 556.5Q562 512 576 438L450 395Q444 443 420.5 469Q397 495 350 495Q309 495 276.5 474.5Q244 454 222 418.5Q200 383 188.5 336Q177 289 177 237Q177 168 209 129.5Q241 91 298 91Q340 91 372 109.5Q404 128 432 181ZM425 789 531 649H418L393 681Q383 694 380 703Q378 707 378 712H374Q373 707 369 703Q364 695 348 681L311 649H193L349 789Z" glyph-name="Ccircumflex" horiz-adv-x="578" unicode="&#264;" /><glyph d="M535 126Q498 55 438.5 21.5Q379 -12 291 -12Q174 -12 113 53.5Q52 119 52 231Q52 318 76.5 387Q101 456 143 503.5Q185 551 240.5 576Q296 601 359 601Q458 601 510 556.5Q562 512 576 438L450 395Q444 443 420.5 469Q397 495 350 495Q309 495 276.5 474.5Q244 454 222 418.5Q200 383 188.5 336Q177 289 177 237Q177 168 209 129.5Q241 91 298 91Q340 91 372 109.5Q404 128 432 181ZM308 730Q308 765 329.5 783.5Q351 802 382 802Q415 802 437 783.5Q459 765 459 730Q459 697 437 678Q415 659 382 659Q351 659 329.5 678Q308 697 308 730Z" glyph-name="Cdotaccent" horiz-adv-x="578" unicode="&#266;" /><glyph d="M245 102Q288 102 325.5 117Q363 132 391 162.5Q419 193 434.5 239Q450 285 450 348Q450 422 410 454.5Q370 487 302 487H243L175 102ZM34 0 137 589H323Q452 589 515.5 531Q579 473 579 359Q579 261 550.5 192.5Q522 124 474.5 81.5Q427 39 364.5 19.5Q302 0 235 0Z" glyph-name="D" horiz-adv-x="614" unicode="D" /><glyph d="M245 102Q288 102 325.5 117Q363 132 391 162.5Q419 193 434.5 239Q450 285 450 348Q450 422 410 454.5Q370 487 302 487H243L175 102ZM34 0 137 589H323Q452 589 515.5 531Q579 473 579 359Q579 261 550.5 192.5Q522 124 474.5 81.5Q427 39 364.5 19.5Q302 0 235 0ZM297 649 191 789H304L328 757Q339 741 342 734Q344 730 344 726H348Q349 730 353 734Q356 738 361 743.5Q366 749 374 757L411 789H529L373 649Z" glyph-name="Dcaron" horiz-adv-x="616" unicode="&#270;" /><glyph d="M34 0 77 247H11L29 346H94L137 589H323Q452 589 515.5 531Q579 473 579 359Q579 261 550.5 192.5Q522 124 474.5 81.5Q427 39 364.5 19.5Q302 0 235 0ZM245 102Q288 102 325.5 117Q363 132 391 162.5Q419 193 434.5 239Q450 285 450 348Q450 422 410 454.5Q370 487 302 487H243L217 346H332L314 247H200L175 102Z" glyph-name="Dcroat" horiz-adv-x="616" unicode="&#272;" /><glyph d="M418 0H34L137 589H521L503 484H242L218 348H448L430 246H200L175 105H436Z" glyph-name="E" horiz-adv-x="509" unicode="E" /><glyph d="M418 0H34L137 589H521L503 484H242L218 348H448L430 246H200L175 105H436ZM268 649 332 785H484L377 649Z" glyph-name="Eacute" horiz-adv-x="509" unicode="&#201;" /><glyph d="M418 0H34L137 589H521L503 484H242L218 348H448L430 246H200L175 105H436ZM325 645Q250 645 222 683.5Q194 722 206 788H296Q292 759 301 744Q310 729 341 729Q372 729 386 744Q400 759 407 788H497Q485 722 442.5 683.5Q400 645 325 645Z" glyph-name="Ebreve" horiz-adv-x="509" unicode="&#276;" /><glyph d="M418 0H34L137 589H521L503 484H242L218 348H448L430 246H200L175 105H436ZM285 649 179 789H292L316 757Q327 741 330 734Q332 730 332 726H336Q337 730 341 734Q344 738 349 743.5Q354 749 362 757L399 789H517L361 649Z" glyph-name="Ecaron" horiz-adv-x="509" unicode="&#282;" /><glyph d="M418 0H34L137 589H521L503 484H242L218 348H448L430 246H200L175 105H436ZM381 789 487 649H374L349 681Q339 694 336 703Q334 707 334 712H330Q329 707 325 703Q320 695 304 681L267 649H149L305 789Z" glyph-name="Ecircumflex" horiz-adv-x="509" unicode="&#202;" /><glyph d="M418 0H34L137 589H521L503 484H242L218 348H448L430 246H200L175 105H436ZM161 720Q161 754 181.5 772Q202 790 230 790Q260 790 280.5 772Q301 754 301 720Q301 687 280.5 668.5Q260 650 230 650Q202 650 181.5 668.5Q161 687 161 720ZM372 719Q372 753 392 771Q412 789 441 789Q471 789 491 771Q511 753 511 719Q511 687 491 668.5Q471 650 441 650Q412 650 392 668.5Q372 687 372 719Z" glyph-name="Edieresis" horiz-adv-x="509" unicode="&#203;" /><glyph d="M418 0H34L137 589H521L503 484H242L218 348H448L430 246H200L175 105H436ZM265 730Q265 765 286.5 783.5Q308 802 339 802Q372 802 394 783.5Q416 765 416 730Q416 697 394 678Q372 659 339 659Q308 659 286.5 678Q265 697 265 730Z" glyph-name="Edotaccent" horiz-adv-x="509" unicode="&#278;" /><glyph d="M418 0H34L137 589H521L503 484H242L218 348H448L430 246H200L175 105H436ZM280 649 173 785H325L389 649Z" glyph-name="Egrave" horiz-adv-x="509" unicode="&#200;" /><glyph d="M418 0H34L137 589H521L503 484H242L218 348H448L430 246H200L175 105H436ZM188 667 205 763H493L477 667Z" glyph-name="Emacron" horiz-adv-x="509" unicode="&#274;" /><glyph d="M519 -34Q502 -133 448 -172Q394 -211 306 -211Q237 -211 196.5 -188Q156 -165 133 -130L216 -39Q228 -71 254 -90.5Q280 -110 311 -110Q334 -110 349 -104Q364 -98 374 -86Q384 -74 389.5 -55.5Q395 -37 400 -11L404 16L267 291Q256 313 247.5 332.5Q239 352 234 368Q227 386 223 402H219Q218 384 216 363Q214 344 210.5 319Q207 294 202 263L157 0H34L137 589H254L396 293Q406 272 413.5 253Q421 234 426 219Q432 201 436 187H440Q441 205 444 226Q446 244 449.5 268.5Q453 293 458 322L505 589H629Z" glyph-name="Eng" horiz-adv-x="641" unicode="&#330;" /><glyph d="M179 -111Q179 -76 198 -46.5Q217 -17 246 0H34L137 589H521L503 484H242L218 348H448L430 246H200L175 105H436L418 0H390Q339 0 308 -26Q277 -52 277 -91Q277 -111 287.5 -122Q298 -133 316 -133Q336 -133 349.5 -125Q363 -117 377 -100L406 -160Q366 -211 292 -211Q243 -211 211 -186.5Q179 -162 179 -111Z" glyph-name="Eogonek" horiz-adv-x="509" unicode="&#280;" /><glyph d="M34 0 77 247H11L29 346H94L137 589H323Q452 589 515.5 531Q579 473 579 359Q579 261 550.5 192.5Q522 124 474.5 81.5Q427 39 364.5 19.5Q302 0 235 0ZM245 102Q288 102 325.5 117Q363 132 391 162.5Q419 193 434.5 239Q450 285 450 348Q450 422 410 454.5Q370 487 302 487H243L217 346H332L314 247H200L175 102Z" glyph-name="Eth" horiz-adv-x="616" unicode="&#208;" /><glyph d="M208 316Q206 304 205 291.5Q204 279 203 265H373L354 213H203Q208 156 238.5 123.5Q269 91 320 91Q360 91 389.5 109.5Q419 128 446 181L544 126Q509 55 452.5 21.5Q396 -12 312 -12Q206 -12 147 48Q88 108 83 213H18L28 265H84Q85 279 86 291.5Q87 304 89 316H36L46 368H101Q116 423 143 466.5Q170 510 206 540Q242 570 285 585.5Q328 601 375 601Q468 601 517.5 556.5Q567 512 581 438L461 395Q455 443 433 469Q411 495 366 495Q314 495 277.5 460Q241 425 222 368H409L389 316Z" glyph-name="Euro" horiz-adv-x="565" unicode="&#8364;" /><glyph d="M34 0 137 589H509L490 484H242L215 330H432L414 228H197L157 0Z" glyph-name="F" horiz-adv-x="478" unicode="F" /><glyph d="M579 311 524 0H447L437 73Q419 35 382 11.5Q345 -12 282 -12Q172 -12 112 53.5Q52 119 52 231Q52 318 76.5 387Q101 456 143 503.5Q185 551 241 576Q297 601 360 601Q409 601 446.5 589.5Q484 578 510.5 556.5Q537 535 553 505Q569 475 576 438L450 395Q445 441 421.5 468Q398 495 350 495Q309 495 277 474.5Q245 454 222.5 419Q200 384 188.5 337.5Q177 291 177 239Q177 169 210 128Q243 87 309 87Q360 87 394.5 112Q429 137 438 190L442 212H314L331 311Z" glyph-name="G" horiz-adv-x="624" unicode="G" /><glyph d="M579 311 524 0H447L437 73Q419 35 382 11.5Q345 -12 282 -12Q172 -12 112 53.5Q52 119 52 231Q52 318 76.5 387Q101 456 143 503.5Q185 551 241 576Q297 601 360 601Q409 601 446.5 589.5Q484 578 510.5 556.5Q537 535 553 505Q569 475 576 438L450 395Q445 441 421.5 468Q398 495 350 495Q309 495 277 474.5Q245 454 222.5 419Q200 384 188.5 337.5Q177 291 177 239Q177 169 210 128Q243 87 309 87Q360 87 394.5 112Q429 137 438 190L442 212H314L331 311ZM375 645Q300 645 272 683.5Q244 722 256 788H346Q342 759 351 744Q360 729 391 729Q422 729 436 744Q450 759 457 788H547Q535 722 492.5 683.5Q450 645 375 645Z" glyph-name="Gbreve" horiz-adv-x="624" unicode="&#286;" /><glyph d="M579 311 524 0H447L437 73Q419 35 382 11.5Q345 -12 282 -12Q172 -12 112 53.5Q52 119 52 231Q52 318 76.5 387Q101 456 143 503.5Q185 551 241 576Q297 601 360 601Q409 601 446.5 589.5Q484 578 510.5 556.5Q537 535 553 505Q569 475 576 438L450 395Q445 441 421.5 468Q398 495 350 495Q309 495 277 474.5Q245 454 222.5 419Q200 384 188.5 337.5Q177 291 177 239Q177 169 210 128Q243 87 309 87Q360 87 394.5 112Q429 137 438 190L442 212H314L331 311ZM432 789 538 649H425L400 681Q390 694 387 703Q385 707 385 712H381Q380 707 376 703Q371 695 355 681L318 649H200L356 789Z" glyph-name="Gcircumflex" horiz-adv-x="624" unicode="&#284;" /><glyph d="M579 311 524 0H447L437 73Q419 35 382 11.5Q345 -12 282 -12Q172 -12 112 53.5Q52 119 52 231Q52 318 76.5 387Q101 456 143 503.5Q185 551 241 576Q297 601 360 601Q409 601 446.5 589.5Q484 578 510.5 556.5Q537 535 553 505Q569 475 576 438L450 395Q445 441 421.5 468Q398 495 350 495Q309 495 277 474.5Q245 454 222.5 419Q200 384 188.5 337.5Q177 291 177 239Q177 169 210 128Q243 87 309 87Q360 87 394.5 112Q429 137 438 190L442 212H314L331 311ZM317 -137Q317 -196 274.5 -224.5Q232 -253 168 -253V-210Q200 -209 222.5 -201Q245 -193 245 -171Q218 -176 198.5 -162Q179 -148 179 -118Q179 -88 198 -72.5Q217 -57 244 -57Q276 -57 296.5 -77.5Q317 -98 317 -137Z" glyph-name="Gcommaaccent" horiz-adv-x="624" unicode="&#290;" /><glyph d="M579 311 524 0H447L437 73Q419 35 382 11.5Q345 -12 282 -12Q172 -12 112 53.5Q52 119 52 231Q52 318 76.5 387Q101 456 143 503.5Q185 551 241 576Q297 601 360 601Q409 601 446.5 589.5Q484 578 510.5 556.5Q537 535 553 505Q569 475 576 438L450 395Q445 441 421.5 468Q398 495 350 495Q309 495 277 474.5Q245 454 222.5 419Q200 384 188.5 337.5Q177 291 177 239Q177 169 210 128Q243 87 309 87Q360 87 394.5 112Q429 137 438 190L442 212H314L331 311ZM315 730Q315 765 336.5 783.5Q358 802 389 802Q422 802 444 783.5Q466 765 466 730Q466 697 444 678Q422 659 389 659Q358 659 336.5 678Q315 697 315 730Z" glyph-name="Gdotaccent" horiz-adv-x="624" unicode="&#288;" /><glyph d="M34 0 137 589H260L219 352H461L503 589H626L523 0H400L443 246H200L157 0Z" glyph-name="H" horiz-adv-x="638" unicode="H" /><glyph d="M42 0 114 414H32L49 509H130L145 589H268L254 509H497L511 589H634L619 509H709L691 414H603L531 0H408L450 240H207L165 0ZM467 339 480 414H237L225 339Z" glyph-name="Hbar" horiz-adv-x="661" unicode="&#294;" /><glyph d="M34 0 137 589H260L219 352H461L503 589H626L523 0H400L443 246H200L157 0ZM446 789 552 649H439L414 681Q404 694 401 703Q399 707 399 712H395Q394 707 390 703Q385 695 369 681L332 649H214L370 789Z" glyph-name="Hcircumflex" horiz-adv-x="638" unicode="&#292;" /><glyph d="M260 589 157 0H34L137 589Z" glyph-name="I" horiz-adv-x="272" unicode="I" /><glyph d="M260 589 157 0H34L137 589ZM148 649 212 785H364L257 649Z" glyph-name="Iacute" horiz-adv-x="272" unicode="&#205;" /><glyph d="M260 589 157 0H34L137 589ZM206 645Q131 645 103 683.5Q75 722 87 788H177Q173 759 182 744Q191 729 222 729Q253 729 267 744Q281 759 288 788H378Q366 722 323.5 683.5Q281 645 206 645Z" glyph-name="Ibreve" horiz-adv-x="272" unicode="&#300;" /><glyph d="M260 589 157 0H34L137 589ZM263 789 369 649H256L231 681Q221 694 218 703Q216 707 216 712H212Q211 707 207 703Q202 695 186 681L149 649H31L187 789Z" glyph-name="Icircumflex" horiz-adv-x="272" unicode="&#206;" /><glyph d="M260 589 157 0H34L137 589ZM40 720Q40 754 60.5 772Q81 790 109 790Q139 790 159.5 772Q180 754 180 720Q180 687 159.5 668.5Q139 650 109 650Q81 650 60.5 668.5Q40 687 40 720ZM251 719Q251 753 271 771Q291 789 320 789Q350 789 370 771Q390 753 390 719Q390 687 370 668.5Q350 650 320 650Q291 650 271 668.5Q251 687 251 719Z" glyph-name="Idieresis" horiz-adv-x="272" unicode="&#207;" /><glyph d="M260 589 157 0H34L137 589ZM145 730Q145 765 166.5 783.5Q188 802 219 802Q252 802 274 783.5Q296 765 296 730Q296 697 274 678Q252 659 219 659Q188 659 166.5 678Q145 697 145 730Z" glyph-name="Idotaccent" horiz-adv-x="272" unicode="&#304;" /><glyph d="M260 589 157 0H34L137 589ZM160 649 53 785H205L269 649Z" glyph-name="Igrave" horiz-adv-x="272" unicode="&#204;" /><glyph d="M260 589 157 0H34L137 589ZM68 667 85 763H373L357 667Z" glyph-name="Imacron" horiz-adv-x="272" unicode="&#298;" /><glyph d="M-62 -111Q-62 -86 -53.5 -64Q-45 -42 -30.5 -24.5Q-16 -7 2 6.5Q20 20 39 29L137 589H260L157 0Q103 0 69.5 -25Q36 -50 36 -91Q36 -111 46.5 -122Q57 -133 75 -133Q95 -133 108.5 -125Q122 -117 136 -100L165 -160Q125 -211 51 -211Q1 -211 -30.5 -186.5Q-62 -162 -62 -111Z" glyph-name="Iogonek" horiz-adv-x="272" unicode="&#302;" /><glyph d="M260 589 157 0H34L137 589ZM276 650Q247 650 231.5 657.5Q216 665 199 676Q180 688 169.5 694.5Q159 701 145 701Q130 701 119 688.5Q108 676 106 650H38Q31 681 36.5 708Q42 735 57 754Q72 773 94 784Q116 795 142 795Q169 795 184.5 788Q200 781 214 771Q234 757 245 750.5Q256 744 270 744Q284 744 293.5 755.5Q303 767 305 793H376Q390 729 361.5 689.5Q333 650 276 650Z" glyph-name="Itilde" horiz-adv-x="272" unicode="&#296;" /><glyph d="M446 589 372 165Q355 66 302 27Q249 -12 160 -12Q84 -12 40 20.5Q-4 53 -21 110L78 176Q89 132 110 110Q131 88 166 88Q208 88 225 109Q242 130 250 180L323 589Z" glyph-name="J" horiz-adv-x="453" unicode="J" /><glyph d="M446 589 372 165Q355 66 302 27Q249 -12 160 -12Q84 -12 40 20.5Q-4 53 -21 110L78 176Q89 132 110 110Q131 88 166 88Q208 88 225 109Q242 130 250 180L323 589ZM448 789 554 649H441L416 681Q406 694 403 703Q401 707 401 712H397Q396 707 392 703Q387 695 371 681L334 649H216L372 789Z" glyph-name="Jcircumflex" horiz-adv-x="453" unicode="&#308;" /><glyph d="M369 0 245 246H200L157 0H34L137 589H260L219 351H256L448 589H592L352 299L509 0Z" glyph-name="K" horiz-adv-x="558" unicode="K" /><glyph d="M369 0 245 246H200L157 0H34L137 589H260L219 351H256L448 589H592L352 299L509 0ZM283 -137Q283 -196 240.5 -224.5Q198 -253 134 -253V-210Q166 -209 188.5 -201Q211 -193 211 -171Q184 -176 164.5 -162Q145 -148 145 -118Q145 -88 164 -72.5Q183 -57 210 -57Q242 -57 262.5 -77.5Q283 -98 283 -137Z" glyph-name="Kcommaaccent" horiz-adv-x="558" unicode="&#310;" /><glyph d="M260 589 175 105H414L397 0H34L137 589Z" glyph-name="L" horiz-adv-x="466" unicode="L" /><glyph d="M260 589 175 105H414L397 0H34L137 589ZM152 649 216 785H368L261 649Z" glyph-name="Lacute" horiz-adv-x="466" unicode="&#313;" /><glyph d="M260 589 175 105H414L397 0H34L137 589ZM407 479H321L336 668H462Z" glyph-name="Lcaron" horiz-adv-x="466" unicode="&#317;" /><glyph d="M260 589 175 105H414L397 0H34L137 589ZM270 -137Q270 -196 227.5 -224.5Q185 -253 121 -253V-210Q153 -209 175.5 -201Q198 -193 198 -171Q171 -176 151.5 -162Q132 -148 132 -118Q132 -88 151 -72.5Q170 -57 197 -57Q229 -57 249.5 -77.5Q270 -98 270 -137Z" glyph-name="Lcommaaccent" horiz-adv-x="466" unicode="&#315;" /><glyph d="M260 589 175 105H414L397 0H34L137 589ZM312 310Q312 345 335 368Q358 391 391 391Q426 391 449 368Q472 345 472 310Q472 277 449 254Q426 231 391 231Q358 231 335 254Q312 277 312 310Z" glyph-name="Ldot" horiz-adv-x="466" unicode="&#319;" /><glyph d="M268 589 228 366 367 413 352 326 213 280 182 105H422L404 0H41L83 237L14 214L29 299L98 322L144 589Z" glyph-name="Lslash" horiz-adv-x="474" unicode="&#321;" /><glyph d="M314 139 253 293Q245 313 240 332Q235 351 231 365Q227 382 224 395H220Q220 383 218 367Q216 353 214 333.5Q212 314 208 288L157 0H34L137 589H263L342 371Q350 349 354.5 332.5Q359 316 362 304Q366 290 367 280H371Q375 291 382 304Q388 315 398.5 331.5Q409 348 425 370L581 589H707L604 0H481L532 288Q536 314 540.5 333.5Q545 353 548 367Q552 383 555 395H551Q545 382 536 366Q528 352 517.5 333.5Q507 315 492 295L378 139Z" glyph-name="M" horiz-adv-x="719" unicode="M" /><glyph d="M396 293Q406 272 413.5 253Q421 234 426 219Q432 201 436 187H440Q441 205 444 226Q446 244 449.5 268.5Q453 293 458 322L505 589H629L526 0H413L267 291Q256 313 247.5 332.5Q239 352 234 368Q227 386 223 402H219Q218 384 216 363Q214 344 210.5 319Q207 294 202 263L157 0H34L137 589H254Z" glyph-name="N" horiz-adv-x="641" unicode="N" /><glyph glyph-name="NULL" horiz-adv-x="0" /><glyph d="M396 293Q406 272 413.5 253Q421 234 426 219Q432 201 436 187H440Q441 205 444 226Q446 244 449.5 268.5Q453 293 458 322L505 589H629L526 0H413L267 291Q256 313 247.5 332.5Q239 352 234 368Q227 386 223 402H219Q218 384 216 363Q214 344 210.5 319Q207 294 202 263L157 0H34L137 589H254ZM322 649 386 785H538L431 649Z" glyph-name="Nacute" horiz-adv-x="641" unicode="&#323;" /><glyph d="M396 293Q406 272 413.5 253Q421 234 426 219Q432 201 436 187H440Q441 205 444 226Q446 244 449.5 268.5Q453 293 458 322L505 589H629L526 0H413L267 291Q256 313 247.5 332.5Q239 352 234 368Q227 386 223 402H219Q218 384 216 363Q214 344 210.5 319Q207 294 202 263L157 0H34L137 589H254ZM340 649 234 789H347L371 757Q382 741 385 734Q387 730 387 726H391Q392 730 396 734Q399 738 404 743.5Q409 749 417 757L454 789H572L416 649Z" glyph-name="Ncaron" horiz-adv-x="641" unicode="&#327;" /><glyph d="M396 293Q406 272 413.5 253Q421 234 426 219Q432 201 436 187H440Q441 205 444 226Q446 244 449.5 268.5Q453 293 458 322L505 589H629L526 0H413L267 291Q256 313 247.5 332.5Q239 352 234 368Q227 386 223 402H219Q218 384 216 363Q214 344 210.5 319Q207 294 202 263L157 0H34L137 589H254ZM322 -137Q322 -196 279.5 -224.5Q237 -253 173 -253V-210Q205 -209 227.5 -201Q250 -193 250 -171Q223 -176 203.5 -162Q184 -148 184 -118Q184 -88 203 -72.5Q222 -57 249 -57Q281 -57 301.5 -77.5Q322 -98 322 -137Z" glyph-name="Ncommaaccent" horiz-adv-x="641" unicode="&#325;" /><glyph d="M396 293Q406 272 413.5 253Q421 234 426 219Q432 201 436 187H440Q441 205 444 226Q446 244 449.5 268.5Q453 293 458 322L505 589H629L526 0H413L267 291Q256 313 247.5 332.5Q239 352 234 368Q227 386 223 402H219Q218 384 216 363Q214 344 210.5 319Q207 294 202 263L157 0H34L137 589H254ZM450 650Q421 650 405.5 657.5Q390 665 373 676Q354 688 343.5 694.5Q333 701 319 701Q304 701 293 688.5Q282 676 280 650H212Q205 681 210.5 708Q216 735 231 754Q246 773 268 784Q290 795 316 795Q343 795 358.5 788Q374 781 388 771Q408 757 419 750.5Q430 744 444 744Q458 744 467.5 755.5Q477 767 479 793H550Q564 729 535.5 689.5Q507 650 450 650Z" glyph-name="Ntilde" horiz-adv-x="641" unicode="&#209;" /><glyph d="M291 -12Q233 -12 188.5 5.5Q144 23 113.5 55Q83 87 67.5 131.5Q52 176 52 231Q52 318 76.5 387Q101 456 143 503.5Q185 551 240.5 576Q296 601 359 601Q417 601 462 583.5Q507 566 537 534Q567 502 582.5 457Q598 412 598 357Q598 270 573.5 201Q549 132 507 85Q465 38 409 13Q353 -12 291 -12ZM350 495Q309 495 276.5 474.5Q244 454 222 419Q200 384 188.5 337.5Q177 291 177 240Q177 169 209 130Q241 91 298 91Q338 91 369.5 111.5Q401 132 423.5 167.5Q446 203 458 249.5Q470 296 470 349Q470 415 440 455Q410 495 350 495Z" glyph-name="O" horiz-adv-x="633" unicode="O" /><glyph d="M291 -12Q233 -12 188.5 5.5Q144 23 113.5 55Q83 87 67.5 131.5Q52 176 52 231Q52 318 76.5 387Q101 456 143 503.5Q185 551 240.5 576Q296 601 359 601Q407 601 446 589H870L851 484H568Q592 445 595 392Q597 381 597 370Q597 359 597 348H796L778 246H585Q567 161 520 105H784L767 0H373Q334 -12 291 -12ZM350 495Q309 495 276.5 474.5Q244 454 222 419Q200 384 188.5 337.5Q177 291 177 240Q177 169 209 130Q241 91 298 91Q338 91 369.5 111.5Q401 132 423.5 167.5Q446 203 458 249.5Q470 296 470 349Q470 415 440 455Q410 495 350 495Z" glyph-name="OE" horiz-adv-x="858" unicode="&#338;" /><glyph d="M291 -12Q233 -12 188.5 5.5Q144 23 113.5 55Q83 87 67.5 131.5Q52 176 52 231Q52 318 76.5 387Q101 456 143 503.5Q185 551 240.5 576Q296 601 359 601Q417 601 462 583.5Q507 566 537 534Q567 502 582.5 457Q598 412 598 357Q598 270 573.5 201Q549 132 507 85Q465 38 409 13Q353 -12 291 -12ZM350 495Q309 495 276.5 474.5Q244 454 222 419Q200 384 188.5 337.5Q177 291 177 240Q177 169 209 130Q241 91 298 91Q338 91 369.5 111.5Q401 132 423.5 167.5Q446 203 458 249.5Q470 296 470 349Q470 415 440 455Q410 495 350 495ZM316 649 380 785H532L425 649Z" glyph-name="Oacute" horiz-adv-x="633" unicode="&#211;" /><glyph d="M291 -12Q233 -12 188.5 5.5Q144 23 113.5 55Q83 87 67.5 131.5Q52 176 52 231Q52 318 76.5 387Q101 456 143 503.5Q185 551 240.5 576Q296 601 359 601Q417 601 462 583.5Q507 566 537 534Q567 502 582.5 457Q598 412 598 357Q598 270 573.5 201Q549 132 507 85Q465 38 409 13Q353 -12 291 -12ZM350 495Q309 495 276.5 474.5Q244 454 222 419Q200 384 188.5 337.5Q177 291 177 240Q177 169 209 130Q241 91 298 91Q338 91 369.5 111.5Q401 132 423.5 167.5Q446 203 458 249.5Q470 296 470 349Q470 415 440 455Q410 495 350 495ZM374 645Q299 645 271 683.5Q243 722 255 788H345Q341 759 350 744Q359 729 390 729Q421 729 435 744Q449 759 456 788H546Q534 722 491.5 683.5Q449 645 374 645Z" glyph-name="Obreve" horiz-adv-x="633" unicode="&#334;" /><glyph d="M291 -12Q233 -12 188.5 5.5Q144 23 113.5 55Q83 87 67.5 131.5Q52 176 52 231Q52 318 76.5 387Q101 456 143 503.5Q185 551 240.5 576Q296 601 359 601Q417 601 462 583.5Q507 566 537 534Q567 502 582.5 457Q598 412 598 357Q598 270 573.5 201Q549 132 507 85Q465 38 409 13Q353 -12 291 -12ZM350 495Q309 495 276.5 474.5Q244 454 222 419Q200 384 188.5 337.5Q177 291 177 240Q177 169 209 130Q241 91 298 91Q338 91 369.5 111.5Q401 132 423.5 167.5Q446 203 458 249.5Q470 296 470 349Q470 415 440 455Q410 495 350 495ZM431 789 537 649H424L399 681Q389 694 386 703Q384 707 384 712H380Q379 707 375 703Q370 695 354 681L317 649H199L355 789Z" glyph-name="Ocircumflex" horiz-adv-x="633" unicode="&#212;" /><glyph d="M291 -12Q233 -12 188.5 5.5Q144 23 113.5 55Q83 87 67.5 131.5Q52 176 52 231Q52 318 76.5 387Q101 456 143 503.5Q185 551 240.5 576Q296 601 359 601Q417 601 462 583.5Q507 566 537 534Q567 502 582.5 457Q598 412 598 357Q598 270 573.5 201Q549 132 507 85Q465 38 409 13Q353 -12 291 -12ZM350 495Q309 495 276.5 474.5Q244 454 222 419Q200 384 188.5 337.5Q177 291 177 240Q177 169 209 130Q241 91 298 91Q338 91 369.5 111.5Q401 132 423.5 167.5Q446 203 458 249.5Q470 296 470 349Q470 415 440 455Q410 495 350 495ZM208 720Q208 754 228.5 772Q249 790 277 790Q307 790 327.5 772Q348 754 348 720Q348 687 327.5 668.5Q307 650 277 650Q249 650 228.5 668.5Q208 687 208 720ZM419 719Q419 753 439 771Q459 789 488 789Q518 789 538 771Q558 753 558 719Q558 687 538 668.5Q518 650 488 650Q459 650 439 668.5Q419 687 419 719Z" glyph-name="Odieresis" horiz-adv-x="633" unicode="&#214;" /><glyph d="M291 -12Q233 -12 188.5 5.5Q144 23 113.5 55Q83 87 67.5 131.5Q52 176 52 231Q52 318 76.5 387Q101 456 143 503.5Q185 551 240.5 576Q296 601 359 601Q417 601 462 583.5Q507 566 537 534Q567 502 582.5 457Q598 412 598 357Q598 270 573.5 201Q549 132 507 85Q465 38 409 13Q353 -12 291 -12ZM350 495Q309 495 276.5 474.5Q244 454 222 419Q200 384 188.5 337.5Q177 291 177 240Q177 169 209 130Q241 91 298 91Q338 91 369.5 111.5Q401 132 423.5 167.5Q446 203 458 249.5Q470 296 470 349Q470 415 440 455Q410 495 350 495ZM328 649 221 785H373L437 649Z" glyph-name="Ograve" horiz-adv-x="633" unicode="&#210;" /><glyph d="M291 -12Q233 -12 188.5 5.5Q144 23 113.5 55Q83 87 67.5 131.5Q52 176 52 231Q52 318 76.5 387Q101 456 143 503.5Q185 551 240.5 576Q296 601 359 601Q417 601 462 583.5Q507 566 537 534Q567 502 582.5 457Q598 412 598 357Q598 270 573.5 201Q549 132 507 85Q465 38 409 13Q353 -12 291 -12ZM350 495Q309 495 276.5 474.5Q244 454 222 419Q200 384 188.5 337.5Q177 291 177 240Q177 169 209 130Q241 91 298 91Q338 91 369.5 111.5Q401 132 423.5 167.5Q446 203 458 249.5Q470 296 470 349Q470 415 440 455Q410 495 350 495ZM246 649 301 785H432L332 649ZM405 649 477 785H614L498 649Z" glyph-name="Ohungarumlaut" horiz-adv-x="633" unicode="&#336;" /><glyph d="M291 -12Q233 -12 188.5 5.5Q144 23 113.5 55Q83 87 67.5 131.5Q52 176 52 231Q52 318 76.5 387Q101 456 143 503.5Q185 551 240.5 576Q296 601 359 601Q417 601 462 583.5Q507 566 537 534Q567 502 582.5 457Q598 412 598 357Q598 270 573.5 201Q549 132 507 85Q465 38 409 13Q353 -12 291 -12ZM350 495Q309 495 276.5 474.5Q244 454 222 419Q200 384 188.5 337.5Q177 291 177 240Q177 169 209 130Q241 91 298 91Q338 91 369.5 111.5Q401 132 423.5 167.5Q446 203 458 249.5Q470 296 470 349Q470 415 440 455Q410 495 350 495ZM236 667 253 763H541L525 667Z" glyph-name="Omacron" horiz-adv-x="633" unicode="&#332;" /><glyph d="M24 27 86 91Q52 147 52 231Q52 318 76.5 387Q101 456 143 503.5Q185 551 240.5 576Q296 601 359 601Q411 601 452 587Q493 573 523 547L575 601L622 561L563 498Q598 440 598 357Q598 270 573.5 201Q549 132 507 85Q465 38 409 13Q353 -12 291 -12Q186 -12 124 44L69 -13ZM470 349Q470 375 464 396L208 131Q240 91 298 91Q338 91 369.5 111.5Q401 132 423.5 167.5Q446 203 458 249.5Q470 296 470 349ZM350 495Q309 495 276.5 474.5Q244 454 222 419Q200 384 188.5 337.5Q177 291 177 240Q177 215 182 192L437 457Q422 475 400.5 485Q379 495 350 495Z" glyph-name="Oslash" horiz-adv-x="633" unicode="&#216;" /><glyph d="M24 27 86 91Q52 147 52 231Q52 318 76.5 387Q101 456 143 503.5Q185 551 240.5 576Q296 601 359 601Q411 601 452 587Q493 573 523 547L575 601L622 561L563 498Q598 440 598 357Q598 270 573.5 201Q549 132 507 85Q465 38 409 13Q353 -12 291 -12Q186 -12 124 44L69 -13ZM470 349Q470 375 464 396L208 131Q240 91 298 91Q338 91 369.5 111.5Q401 132 423.5 167.5Q446 203 458 249.5Q470 296 470 349ZM350 495Q309 495 276.5 474.5Q244 454 222 419Q200 384 188.5 337.5Q177 291 177 240Q177 215 182 192L437 457Q422 475 400.5 485Q379 495 350 495ZM324 649 388 785H540L433 649Z" glyph-name="Oslashacute" horiz-adv-x="633" unicode="&#510;" /><glyph d="M291 -12Q233 -12 188.5 5.5Q144 23 113.5 55Q83 87 67.5 131.5Q52 176 52 231Q52 318 76.5 387Q101 456 143 503.5Q185 551 240.5 576Q296 601 359 601Q417 601 462 583.5Q507 566 537 534Q567 502 582.5 457Q598 412 598 357Q598 270 573.5 201Q549 132 507 85Q465 38 409 13Q353 -12 291 -12ZM350 495Q309 495 276.5 474.5Q244 454 222 419Q200 384 188.5 337.5Q177 291 177 240Q177 169 209 130Q241 91 298 91Q338 91 369.5 111.5Q401 132 423.5 167.5Q446 203 458 249.5Q470 296 470 349Q470 415 440 455Q410 495 350 495ZM444 650Q415 650 399.5 657.5Q384 665 367 676Q348 688 337.5 694.5Q327 701 313 701Q298 701 287 688.5Q276 676 274 650H206Q199 681 204.5 708Q210 735 225 754Q240 773 262 784Q284 795 310 795Q337 795 352.5 788Q368 781 382 771Q402 757 413 750.5Q424 744 438 744Q452 744 461.5 755.5Q471 767 473 793H544Q558 729 529.5 689.5Q501 650 444 650Z" glyph-name="Otilde" horiz-adv-x="633" unicode="&#213;" /><glyph d="M209 298H271Q330 298 360.5 326.5Q391 355 391 416Q391 453 370.5 470Q350 487 305 487H243ZM34 0 137 589H327Q379 589 414.5 578Q450 567 472 546Q494 525 504 495Q514 465 514 426Q514 369 495.5 326.5Q477 284 445 255.5Q413 227 370 213Q327 199 279 199H191L157 0Z" glyph-name="P" horiz-adv-x="518" unicode="P" /><glyph d="M603 357Q603 275 581 209.5Q559 144 521.5 97.5Q484 51 434 24Q384 -3 327 -9Q341 -27 359.5 -37Q378 -47 399 -51.5Q420 -56 442.5 -56.5Q465 -57 487 -55L453 -160Q346 -161 284 -122.5Q222 -84 205 1Q133 24 95 83.5Q57 143 57 231Q57 318 81.5 387Q106 456 148 503.5Q190 551 245.5 576Q301 601 364 601Q482 601 542.5 535.5Q603 470 603 357ZM355 495Q314 495 281.5 474.5Q249 454 227 419Q205 384 193.5 337.5Q182 291 182 240Q182 169 214 130Q246 91 303 91Q343 91 374.5 111.5Q406 132 428.5 167.5Q451 203 463 249.5Q475 296 475 349Q475 415 445 455Q415 495 355 495Z" glyph-name="Q" horiz-adv-x="638" unicode="Q" /><glyph d="M377 0Q367 10 361.5 25.5Q356 41 353 59L338 152Q331 193 314 205.5Q297 218 258 218H195L157 0H34L137 589H354Q451 589 495 553Q539 517 539 439Q539 395 525 363.5Q511 332 489 311Q467 290 438.5 279Q410 268 382 266V262Q422 256 440 237Q458 218 466 175L485 63Q488 46 493.5 30Q499 14 510 0ZM213 319H305Q351 319 381.5 341.5Q412 364 412 419Q412 452 393.5 469.5Q375 487 332 487H243Z" glyph-name="R" horiz-adv-x="572" unicode="R" /><glyph d="M377 0Q367 10 361.5 25.5Q356 41 353 59L338 152Q331 193 314 205.5Q297 218 258 218H195L157 0H34L137 589H354Q451 589 495 553Q539 517 539 439Q539 395 525 363.5Q511 332 489 311Q467 290 438.5 279Q410 268 382 266V262Q422 256 440 237Q458 218 466 175L485 63Q488 46 493.5 30Q499 14 510 0ZM213 319H305Q351 319 381.5 341.5Q412 364 412 419Q412 452 393.5 469.5Q375 487 332 487H243ZM275 649 339 785H491L384 649Z" glyph-name="Racute" horiz-adv-x="572" unicode="&#340;" /><glyph d="M377 0Q367 10 361.5 25.5Q356 41 353 59L338 152Q331 193 314 205.5Q297 218 258 218H195L157 0H34L137 589H354Q451 589 495 553Q539 517 539 439Q539 395 525 363.5Q511 332 489 311Q467 290 438.5 279Q410 268 382 266V262Q422 256 440 237Q458 218 466 175L485 63Q488 46 493.5 30Q499 14 510 0ZM213 319H305Q351 319 381.5 341.5Q412 364 412 419Q412 452 393.5 469.5Q375 487 332 487H243ZM294 649 188 789H301L325 757Q336 741 339 734Q341 730 341 726H345Q346 730 350 734Q353 738 358 743.5Q363 749 371 757L408 789H526L370 649Z" glyph-name="Rcaron" horiz-adv-x="572" unicode="&#344;" /><glyph d="M377 0Q367 10 361.5 25.5Q356 41 353 59L338 152Q331 193 314 205.5Q297 218 258 218H195L157 0H34L137 589H354Q451 589 495 553Q539 517 539 439Q539 395 525 363.5Q511 332 489 311Q467 290 438.5 279Q410 268 382 266V262Q422 256 440 237Q458 218 466 175L485 63Q488 46 493.5 30Q499 14 510 0ZM213 319H305Q351 319 381.5 341.5Q412 364 412 419Q412 452 393.5 469.5Q375 487 332 487H243ZM308 -137Q308 -196 265.5 -224.5Q223 -253 159 -253V-210Q191 -209 213.5 -201Q236 -193 236 -171Q209 -176 189.5 -162Q170 -148 170 -118Q170 -88 189 -72.5Q208 -57 235 -57Q267 -57 287.5 -77.5Q308 -98 308 -137Z" glyph-name="Rcommaaccent" horiz-adv-x="572" unicode="&#342;" /><glyph d="M125 178Q125 130 151.5 104.5Q178 79 226 79Q269 79 295.5 96.5Q322 114 322 155Q322 189 302.5 208.5Q283 228 232 245Q157 270 121.5 309Q86 348 86 416Q86 468 105.5 503Q125 538 156 560Q187 582 225.5 591.5Q264 601 301 601Q392 601 442.5 564Q493 527 496 441L378 418Q380 461 356 482Q332 503 291 503Q251 503 227.5 484.5Q204 466 204 430Q204 414 209 402.5Q214 391 225.5 382Q237 373 254.5 365.5Q272 358 297 349Q373 322 409 283Q445 244 445 172Q445 121 426 86Q407 51 375.5 29Q344 7 302 -2.5Q260 -12 214 -12Q127 -12 73 24Q19 60 14 140Z" glyph-name="S" horiz-adv-x="508" unicode="S" /><glyph d="M125 178Q125 130 151.5 104.5Q178 79 226 79Q269 79 295.5 96.5Q322 114 322 155Q322 189 302.5 208.5Q283 228 232 245Q157 270 121.5 309Q86 348 86 416Q86 468 105.5 503Q125 538 156 560Q187 582 225.5 591.5Q264 601 301 601Q392 601 442.5 564Q493 527 496 441L378 418Q380 461 356 482Q332 503 291 503Q251 503 227.5 484.5Q204 466 204 430Q204 414 209 402.5Q214 391 225.5 382Q237 373 254.5 365.5Q272 358 297 349Q373 322 409 283Q445 244 445 172Q445 121 426 86Q407 51 375.5 29Q344 7 302 -2.5Q260 -12 214 -12Q127 -12 73 24Q19 60 14 140ZM256 649 320 785H472L365 649Z" glyph-name="Sacute" horiz-adv-x="508" unicode="&#346;" /><glyph d="M125 178Q125 130 151.5 104.5Q178 79 226 79Q269 79 295.5 96.5Q322 114 322 155Q322 189 302.5 208.5Q283 228 232 245Q157 270 121.5 309Q86 348 86 416Q86 468 105.5 503Q125 538 156 560Q187 582 225.5 591.5Q264 601 301 601Q392 601 442.5 564Q493 527 496 441L378 418Q380 461 356 482Q332 503 291 503Q251 503 227.5 484.5Q204 466 204 430Q204 414 209 402.5Q214 391 225.5 382Q237 373 254.5 365.5Q272 358 297 349Q373 322 409 283Q445 244 445 172Q445 121 426 86Q407 51 375.5 29Q344 7 302 -2.5Q260 -12 214 -12Q127 -12 73 24Q19 60 14 140ZM275 649 169 789H282L306 757Q317 741 320 734Q322 730 322 726H326Q327 730 331 734Q334 738 339 743.5Q344 749 352 757L389 789H507L351 649Z" glyph-name="Scaron" horiz-adv-x="508" unicode="&#352;" /><glyph d="M286 -120Q286 -166 253 -188.5Q220 -211 173 -211Q139 -211 113 -201Q87 -191 73 -174L97 -115Q126 -150 160 -150Q195 -150 195 -121Q195 -87 142 -81L170 -9Q101 -1 60 34.5Q19 70 14 140L125 178Q125 130 151.5 104.5Q178 79 226 79Q269 79 295.5 96.5Q322 114 322 155Q322 189 302.5 208.5Q283 228 232 245Q157 270 121.5 309Q86 348 86 416Q86 468 105.5 503Q125 538 156 560Q187 582 225.5 591.5Q264 601 301 601Q392 601 442.5 564Q493 527 496 441L378 418Q380 461 356 482Q332 503 291 503Q251 503 227.5 484.5Q204 466 204 430Q204 414 209 402.5Q214 391 225.5 382Q237 373 254.5 365.5Q272 358 297 349Q373 322 409 283Q445 244 445 172Q445 121 426.5 86.5Q408 52 377 30Q346 8 304.5 -1.5Q263 -11 218 -12L207 -38Q247 -45 266.5 -63.5Q286 -82 286 -120Z" glyph-name="Scedilla" horiz-adv-x="508" unicode="&#350;" /><glyph d="M125 178Q125 130 151.5 104.5Q178 79 226 79Q269 79 295.5 96.5Q322 114 322 155Q322 189 302.5 208.5Q283 228 232 245Q157 270 121.5 309Q86 348 86 416Q86 468 105.5 503Q125 538 156 560Q187 582 225.5 591.5Q264 601 301 601Q392 601 442.5 564Q493 527 496 441L378 418Q380 461 356 482Q332 503 291 503Q251 503 227.5 484.5Q204 466 204 430Q204 414 209 402.5Q214 391 225.5 382Q237 373 254.5 365.5Q272 358 297 349Q373 322 409 283Q445 244 445 172Q445 121 426 86Q407 51 375.5 29Q344 7 302 -2.5Q260 -12 214 -12Q127 -12 73 24Q19 60 14 140ZM371 789 477 649H364L339 681Q329 694 326 703Q324 707 324 712H320Q319 707 315 703Q310 695 294 681L257 649H139L295 789Z" glyph-name="Scircumflex" horiz-adv-x="508" unicode="&#348;" /><glyph d="M125 178Q125 130 151.5 104.5Q178 79 226 79Q269 79 295.5 96.5Q322 114 322 155Q322 189 302.5 208.5Q283 228 232 245Q157 270 121.5 309Q86 348 86 416Q86 468 105.5 503Q125 538 156 560Q187 582 225.5 591.5Q264 601 301 601Q392 601 442.5 564Q493 527 496 441L378 418Q380 461 356 482Q332 503 291 503Q251 503 227.5 484.5Q204 466 204 430Q204 414 209 402.5Q214 391 225.5 382Q237 373 254.5 365.5Q272 358 297 349Q373 322 409 283Q445 244 445 172Q445 121 426 86Q407 51 375.5 29Q344 7 302 -2.5Q260 -12 214 -12Q127 -12 73 24Q19 60 14 140ZM257 -137Q257 -196 214.5 -224.5Q172 -253 108 -253V-210Q140 -209 162.5 -201Q185 -193 185 -171Q158 -176 138.5 -162Q119 -148 119 -118Q119 -88 138 -72.5Q157 -57 184 -57Q216 -57 236.5 -77.5Q257 -98 257 -137Z" glyph-name="Scommaaccent" horiz-adv-x="508" unicode="&#536;" /><glyph d="M144 0 228 484H64L83 589H536L517 484H351L266 0Z" glyph-name="T" horiz-adv-x="496" unicode="T" /><glyph d="M144 0 184 232H84L101 330H201L228 484H64L83 589H536L517 484H351L324 330H433L416 232H307L266 0Z" glyph-name="Tbar" horiz-adv-x="496" unicode="&#358;" /><glyph d="M144 0 228 484H64L83 589H536L517 484H351L266 0ZM278 649 172 789H285L309 757Q320 741 323 734Q325 730 325 726H329Q330 730 334 734Q337 738 342 743.5Q347 749 355 757L392 789H510L354 649Z" glyph-name="Tcaron" horiz-adv-x="496" unicode="&#356;" /><glyph d="M144 0 228 484H64L83 589H536L517 484H351L266 0ZM260 -137Q260 -196 217.5 -224.5Q175 -253 111 -253V-210Q143 -209 165.5 -201Q188 -193 188 -171Q161 -176 141.5 -162Q122 -148 122 -118Q122 -88 141 -72.5Q160 -57 187 -57Q219 -57 239.5 -77.5Q260 -98 260 -137Z" glyph-name="Tcommaaccent" horiz-adv-x="496" unicode="&#354;" /><glyph d="M194 214H257Q315 214 345.5 237Q376 260 376 321Q376 359 355 376Q334 393 289 393H226ZM34 0 137 589H260L243 495H311Q412 495 455.5 452.5Q499 410 499 332Q499 275 480.5 234Q462 193 430 166Q398 139 355.5 126.5Q313 114 265 114H177L157 0Z" glyph-name="Thorn" horiz-adv-x="516" unicode="&#222;" /><glyph d="M602 589 533 199Q522 138 498.5 97.5Q475 57 440.5 32.5Q406 8 362 -2Q318 -12 266 -12Q217 -12 174.5 0.5Q132 13 102.5 41Q73 69 61 115Q49 161 61 228L124 589H247L183 229Q171 160 194.5 124.5Q218 89 283 89Q347 89 375 123.5Q403 158 415 226L478 589Z" glyph-name="U" horiz-adv-x="604" unicode="U" /><glyph d="M602 589 533 199Q522 138 498.5 97.5Q475 57 440.5 32.5Q406 8 362 -2Q318 -12 266 -12Q217 -12 174.5 0.5Q132 13 102.5 41Q73 69 61 115Q49 161 61 228L124 589H247L183 229Q171 160 194.5 124.5Q218 89 283 89Q347 89 375 123.5Q403 158 415 226L478 589ZM308 649 372 785H524L417 649Z" glyph-name="Uacute" horiz-adv-x="604" unicode="&#218;" /><glyph d="M602 589 533 199Q522 138 498.5 97.5Q475 57 440.5 32.5Q406 8 362 -2Q318 -12 266 -12Q217 -12 174.5 0.5Q132 13 102.5 41Q73 69 61 115Q49 161 61 228L124 589H247L183 229Q171 160 194.5 124.5Q218 89 283 89Q347 89 375 123.5Q403 158 415 226L478 589ZM365 645Q290 645 262 683.5Q234 722 246 788H336Q332 759 341 744Q350 729 381 729Q412 729 426 744Q440 759 447 788H537Q525 722 482.5 683.5Q440 645 365 645Z" glyph-name="Ubreve" horiz-adv-x="604" unicode="&#364;" /><glyph d="M602 589 533 199Q522 138 498.5 97.5Q475 57 440.5 32.5Q406 8 362 -2Q318 -12 266 -12Q217 -12 174.5 0.5Q132 13 102.5 41Q73 69 61 115Q49 161 61 228L124 589H247L183 229Q171 160 194.5 124.5Q218 89 283 89Q347 89 375 123.5Q403 158 415 226L478 589ZM422 789 528 649H415L390 681Q380 694 377 703Q375 707 375 712H371Q370 707 366 703Q361 695 345 681L308 649H190L346 789Z" glyph-name="Ucircumflex" horiz-adv-x="604" unicode="&#219;" /><glyph d="M602 589 533 199Q522 138 498.5 97.5Q475 57 440.5 32.5Q406 8 362 -2Q318 -12 266 -12Q217 -12 174.5 0.5Q132 13 102.5 41Q73 69 61 115Q49 161 61 228L124 589H247L183 229Q171 160 194.5 124.5Q218 89 283 89Q347 89 375 123.5Q403 158 415 226L478 589ZM200 720Q200 754 220.5 772Q241 790 269 790Q299 790 319.5 772Q340 754 340 720Q340 687 319.5 668.5Q299 650 269 650Q241 650 220.5 668.5Q200 687 200 720ZM411 719Q411 753 431 771Q451 789 480 789Q510 789 530 771Q550 753 550 719Q550 687 530 668.5Q510 650 480 650Q451 650 431 668.5Q411 687 411 719Z" glyph-name="Udieresis" horiz-adv-x="604" unicode="&#220;" /><glyph d="M602 589 533 199Q522 138 498.5 97.5Q475 57 440.5 32.5Q406 8 362 -2Q318 -12 266 -12Q217 -12 174.5 0.5Q132 13 102.5 41Q73 69 61 115Q49 161 61 228L124 589H247L183 229Q171 160 194.5 124.5Q218 89 283 89Q347 89 375 123.5Q403 158 415 226L478 589ZM320 649 213 785H365L429 649Z" glyph-name="Ugrave" horiz-adv-x="604" unicode="&#217;" /><glyph d="M602 589 533 199Q522 138 498.5 97.5Q475 57 440.5 32.5Q406 8 362 -2Q318 -12 266 -12Q217 -12 174.5 0.5Q132 13 102.5 41Q73 69 61 115Q49 161 61 228L124 589H247L183 229Q171 160 194.5 124.5Q218 89 283 89Q347 89 375 123.5Q403 158 415 226L478 589ZM238 649 293 785H424L324 649ZM397 649 469 785H606L490 649Z" glyph-name="Uhungarumlaut" horiz-adv-x="604" unicode="&#368;" /><glyph d="M602 589 533 199Q522 138 498.5 97.5Q475 57 440.5 32.5Q406 8 362 -2Q318 -12 266 -12Q217 -12 174.5 0.5Q132 13 102.5 41Q73 69 61 115Q49 161 61 228L124 589H247L183 229Q171 160 194.5 124.5Q218 89 283 89Q347 89 375 123.5Q403 158 415 226L478 589ZM229 667 246 763H534L518 667Z" glyph-name="Umacron" horiz-adv-x="604" unicode="&#362;" /><glyph d="M157 -111Q157 -79 170 -52.5Q183 -26 203 -6Q166 1 135.5 17.5Q105 34 85.5 62Q66 90 59 131Q52 172 62 228L125 589H249L184 229Q173 160 196 124.5Q219 89 284 89Q348 89 376 123.5Q404 158 416 226L480 589H603L534 199Q524 144 504 105.5Q484 67 455 42.5Q426 18 389 5.5Q352 -7 308 -10Q283 -23 268.5 -44Q254 -65 254 -91Q254 -111 264.5 -122Q275 -133 294 -133Q314 -133 327.5 -125Q341 -117 355 -100L384 -160Q364 -185 335.5 -198Q307 -211 269 -211Q220 -211 188.5 -186.5Q157 -162 157 -111Z" glyph-name="Uogonek" horiz-adv-x="605" unicode="&#370;" /><glyph d="M602 589 533 199Q522 138 498.5 97.5Q475 57 440.5 32.5Q406 8 362 -2Q318 -12 266 -12Q217 -12 174.5 0.5Q132 13 102.5 41Q73 69 61 115Q49 161 61 228L124 589H247L183 229Q171 160 194.5 124.5Q218 89 283 89Q347 89 375 123.5Q403 158 415 226L478 589ZM278 729Q278 752 286.5 773Q295 794 310 809.5Q325 825 346.5 834.5Q368 844 395 844Q440 844 466.5 816Q493 788 493 748Q493 699 461.5 665.5Q430 632 378 632Q328 632 303 659.5Q278 687 278 729ZM391 789Q368 789 353.5 772.5Q339 756 339 733Q339 713 350.5 700.5Q362 688 383 688Q406 688 420 705Q434 722 434 745Q434 765 423 777Q412 789 391 789Z" glyph-name="Uring" horiz-adv-x="604" unicode="&#366;" /><glyph d="M602 589 533 199Q522 138 498.5 97.5Q475 57 440.5 32.5Q406 8 362 -2Q318 -12 266 -12Q217 -12 174.5 0.5Q132 13 102.5 41Q73 69 61 115Q49 161 61 228L124 589H247L183 229Q171 160 194.5 124.5Q218 89 283 89Q347 89 375 123.5Q403 158 415 226L478 589ZM435 650Q406 650 390.5 657.5Q375 665 358 676Q339 688 328.5 694.5Q318 701 304 701Q289 701 278 688.5Q267 676 265 650H197Q190 681 195.5 708Q201 735 216 754Q231 773 253 784Q275 795 301 795Q328 795 343.5 788Q359 781 373 771Q393 757 404 750.5Q415 744 429 744Q443 744 452.5 755.5Q462 767 464 793H535Q549 729 520.5 689.5Q492 650 435 650Z" glyph-name="Utilde" horiz-adv-x="604" unicode="&#360;" /><glyph d="M244 253Q249 221 251 193Q253 165 254 144Q255 119 255 99H259Q264 119 273 144Q280 165 291 192.5Q302 220 317 252L480 589H612L314 0H165L74 589H198Z" glyph-name="V" horiz-adv-x="567" unicode="V" /><glyph d="M579 250Q581 217 581.5 187.5Q582 158 581 135Q580 109 579 86H583Q589 110 597 136Q604 159 613.5 188Q623 217 635 249L765 589H893L658 0H484L461 310Q459 341 458.5 369Q458 397 459 419Q460 445 461 466H457Q453 445 446 420Q440 398 430.5 369.5Q421 341 408 309L280 0H112L88 589H212L223 251Q225 183 223 136Q222 110 221 86H225Q230 110 238 136Q245 159 254 188.5Q263 218 277 250L414 589H558Z" glyph-name="W" horiz-adv-x="854" unicode="W" /><glyph d="M579 250Q581 217 581.5 187.5Q582 158 581 135Q580 109 579 86H583Q589 110 597 136Q604 159 613.5 188Q623 217 635 249L765 589H893L658 0H484L461 310Q459 341 458.5 369Q458 397 459 419Q460 445 461 466H457Q453 445 446 420Q440 398 430.5 369.5Q421 341 408 309L280 0H112L88 589H212L223 251Q225 183 223 136Q222 110 221 86H225Q230 110 238 136Q245 159 254 188.5Q263 218 277 250L414 589H558ZM427 649 491 785H643L536 649Z" glyph-name="Wacute" horiz-adv-x="854" unicode="&#7810;" /><glyph d="M579 250Q581 217 581.5 187.5Q582 158 581 135Q580 109 579 86H583Q589 110 597 136Q604 159 613.5 188Q623 217 635 249L765 589H893L658 0H484L461 310Q459 341 458.5 369Q458 397 459 419Q460 445 461 466H457Q453 445 446 420Q440 398 430.5 369.5Q421 341 408 309L280 0H112L88 589H212L223 251Q225 183 223 136Q222 110 221 86H225Q230 110 238 136Q245 159 254 188.5Q263 218 277 250L414 589H558ZM542 789 648 649H535L510 681Q500 694 497 703Q495 707 495 712H491Q490 707 486 703Q481 695 465 681L428 649H310L466 789Z" glyph-name="Wcircumflex" horiz-adv-x="854" unicode="&#372;" /><glyph d="M579 250Q581 217 581.5 187.5Q582 158 581 135Q580 109 579 86H583Q589 110 597 136Q604 159 613.5 188Q623 217 635 249L765 589H893L658 0H484L461 310Q459 341 458.5 369Q458 397 459 419Q460 445 461 466H457Q453 445 446 420Q440 398 430.5 369.5Q421 341 408 309L280 0H112L88 589H212L223 251Q225 183 223 136Q222 110 221 86H225Q230 110 238 136Q245 159 254 188.5Q263 218 277 250L414 589H558ZM320 720Q320 754 340.5 772Q361 790 389 790Q419 790 439.5 772Q460 754 460 720Q460 687 439.5 668.5Q419 650 389 650Q361 650 340.5 668.5Q320 687 320 720ZM531 719Q531 753 551 771Q571 789 600 789Q630 789 650 771Q670 753 670 719Q670 687 650 668.5Q630 650 600 650Q571 650 551 668.5Q531 687 531 719Z" glyph-name="Wdieresis" horiz-adv-x="854" unicode="&#7812;" /><glyph d="M579 250Q581 217 581.5 187.5Q582 158 581 135Q580 109 579 86H583Q589 110 597 136Q604 159 613.5 188Q623 217 635 249L765 589H893L658 0H484L461 310Q459 341 458.5 369Q458 397 459 419Q460 445 461 466H457Q453 445 446 420Q440 398 430.5 369.5Q421 341 408 309L280 0H112L88 589H212L223 251Q225 183 223 136Q222 110 221 86H225Q230 110 238 136Q245 159 254 188.5Q263 218 277 250L414 589H558ZM439 649 332 785H484L548 649Z" glyph-name="Wgrave" horiz-adv-x="854" unicode="&#7808;" /><glyph d="M310 136Q299 158 292.5 173Q286 188 284 197Q280 208 281 214H277Q276 208 270 197Q265 188 254.5 173Q244 158 225 136L111 0H-32L225 300L80 589H215L272 469Q294 421 300 401Q304 390 305 383H309Q311 390 317 401Q322 411 333 427Q344 443 364 468L459 589H599L363 300L513 0H381Z" glyph-name="X" horiz-adv-x="565" unicode="X" /><glyph d="M252 433Q260 404 265.5 380Q271 356 273 338Q276 317 277 300H281Q286 318 295 339Q303 357 315 381Q327 405 345 433L447 589H578L326 205L291 0H168L203 205L73 589H202Z" glyph-name="Y" horiz-adv-x="531" unicode="Y" /><glyph d="M252 433Q260 404 265.5 380Q271 356 273 338Q276 317 277 300H281Q286 318 295 339Q303 357 315 381Q327 405 345 433L447 589H578L326 205L291 0H168L203 205L73 589H202ZM278 649 342 785H494L387 649Z" glyph-name="Yacute" horiz-adv-x="531" unicode="&#221;" /><glyph d="M252 433Q260 404 265.5 380Q271 356 273 338Q276 317 277 300H281Q286 318 295 339Q303 357 315 381Q327 405 345 433L447 589H578L326 205L291 0H168L203 205L73 589H202ZM392 789 498 649H385L360 681Q350 694 347 703Q345 707 345 712H341Q340 707 336 703Q331 695 315 681L278 649H160L316 789Z" glyph-name="Ycircumflex" horiz-adv-x="531" unicode="&#374;" /><glyph d="M252 433Q260 404 265.5 380Q271 356 273 338Q276 317 277 300H281Q286 318 295 339Q303 357 315 381Q327 405 345 433L447 589H578L326 205L291 0H168L203 205L73 589H202ZM170 720Q170 754 190.5 772Q211 790 239 790Q269 790 289.5 772Q310 754 310 720Q310 687 289.5 668.5Q269 650 239 650Q211 650 190.5 668.5Q170 687 170 720ZM381 719Q381 753 401 771Q421 789 450 789Q480 789 500 771Q520 753 520 719Q520 687 500 668.5Q480 650 450 650Q421 650 401 668.5Q381 687 381 719Z" glyph-name="Ydieresis" horiz-adv-x="531" unicode="&#376;" /><glyph d="M252 433Q260 404 265.5 380Q271 356 273 338Q276 317 277 300H281Q286 318 295 339Q303 357 315 381Q327 405 345 433L447 589H578L326 205L291 0H168L203 205L73 589H202ZM290 649 183 785H335L399 649Z" glyph-name="Ygrave" horiz-adv-x="531" unicode="&#7922;" /><glyph d="M308 418Q325 437 338 450Q351 463 362 471Q373 481 384 487V491Q374 489 360 487Q336 484 294 484H97L116 589H551L533 505L239 171Q222 152 208.5 139Q195 126 185 118Q174 108 164 102V98Q175 99 188 101Q199 103 215.5 104Q232 105 253 105H470L453 0H3L18 84Z" glyph-name="Z" horiz-adv-x="536" unicode="Z" /><glyph d="M308 418Q325 437 338 450Q351 463 362 471Q373 481 384 487V491Q374 489 360 487Q336 484 294 484H97L116 589H551L533 505L239 171Q222 152 208.5 139Q195 126 185 118Q174 108 164 102V98Q175 99 188 101Q199 103 215.5 104Q232 105 253 105H470L453 0H3L18 84ZM278 649 342 785H494L387 649Z" glyph-name="Zacute" horiz-adv-x="536" unicode="&#377;" /><glyph d="M308 418Q325 437 338 450Q351 463 362 471Q373 481 384 487V491Q374 489 360 487Q336 484 294 484H97L116 589H551L533 505L239 171Q222 152 208.5 139Q195 126 185 118Q174 108 164 102V98Q175 99 188 101Q199 103 215.5 104Q232 105 253 105H470L453 0H3L18 84ZM295 649 189 789H302L326 757Q337 741 340 734Q342 730 342 726H346Q347 730 351 734Q354 738 359 743.5Q364 749 372 757L409 789H527L371 649Z" glyph-name="Zcaron" horiz-adv-x="536" unicode="&#381;" /><glyph d="M308 418Q325 437 338 450Q351 463 362 471Q373 481 384 487V491Q374 489 360 487Q336 484 294 484H97L116 589H551L533 505L239 171Q222 152 208.5 139Q195 126 185 118Q174 108 164 102V98Q175 99 188 101Q199 103 215.5 104Q232 105 253 105H470L453 0H3L18 84ZM275 730Q275 765 296.5 783.5Q318 802 349 802Q382 802 404 783.5Q426 765 426 730Q426 697 404 678Q382 659 349 659Q318 659 296.5 678Q275 697 275 730Z" glyph-name="Zdotaccent" horiz-adv-x="536" unicode="&#379;" /><glyph d="M350 270Q354 291 352.5 311Q351 331 343.5 347Q336 363 322 372.5Q308 382 286 382Q256 382 232 366Q208 350 191.5 323Q175 296 166.5 260Q158 224 158 185Q158 140 177 110Q196 80 234 80Q276 80 301.5 111Q327 142 335 192ZM447 134Q444 117 448 104Q452 91 474 91Q481 91 488 92.5Q495 94 504 96L485 6Q454 -5 419 -5Q371 -5 347 14.5Q323 34 321 78Q303 29 267.5 8.5Q232 -12 188 -12Q115 -12 74.5 38Q34 88 34 177Q34 236 49.5 290Q65 344 93.5 384.5Q122 425 163 449Q204 473 255 473Q305 473 335 452.5Q365 432 370 385L398 462H504Z" glyph-name="a" horiz-adv-x="551" unicode="a" /><glyph d="M350 270Q354 291 352.5 311Q351 331 343.5 347Q336 363 322 372.5Q308 382 286 382Q256 382 232 366Q208 350 191.5 323Q175 296 166.5 260Q158 224 158 185Q158 140 177 110Q196 80 234 80Q276 80 301.5 111Q327 142 335 192ZM447 134Q444 117 448 104Q452 91 474 91Q481 91 488 92.5Q495 94 504 96L485 6Q454 -5 419 -5Q371 -5 347 14.5Q323 34 321 78Q303 29 267.5 8.5Q232 -12 188 -12Q115 -12 74.5 38Q34 88 34 177Q34 236 49.5 290Q65 344 93.5 384.5Q122 425 163 449Q204 473 255 473Q305 473 335 452.5Q365 432 370 385L398 462H504ZM248 527 319 678H472L356 527Z" glyph-name="aacute" horiz-adv-x="551" unicode="&#225;" /><glyph d="M350 270Q354 291 352.5 311Q351 331 343.5 347Q336 363 322 372.5Q308 382 286 382Q256 382 232 366Q208 350 191.5 323Q175 296 166.5 260Q158 224 158 185Q158 140 177 110Q196 80 234 80Q276 80 301.5 111Q327 142 335 192ZM447 134Q444 117 448 104Q452 91 474 91Q481 91 488 92.5Q495 94 504 96L485 6Q454 -5 419 -5Q371 -5 347 14.5Q323 34 321 78Q303 29 267.5 8.5Q232 -12 188 -12Q115 -12 74.5 38Q34 88 34 177Q34 236 49.5 290Q65 344 93.5 384.5Q122 425 163 449Q204 473 255 473Q305 473 335 452.5Q365 432 370 385L398 462H504ZM303 522Q266 522 240.5 533.5Q215 545 201 565.5Q187 586 183 614Q179 642 185 675H275Q270 645 277 627Q284 609 318 609Q352 609 365.5 627Q379 645 386 675H476Q470 642 456.5 614Q443 586 421 565.5Q399 545 369.5 533.5Q340 522 303 522Z" glyph-name="abreve" horiz-adv-x="551" unicode="&#259;" /><glyph d="M350 270Q354 291 352.5 311Q351 331 343.5 347Q336 363 322 372.5Q308 382 286 382Q256 382 232 366Q208 350 191.5 323Q175 296 166.5 260Q158 224 158 185Q158 140 177 110Q196 80 234 80Q276 80 301.5 111Q327 142 335 192ZM447 134Q444 117 448 104Q452 91 474 91Q481 91 488 92.5Q495 94 504 96L485 6Q454 -5 419 -5Q371 -5 347 14.5Q323 34 321 78Q303 29 267.5 8.5Q232 -12 188 -12Q115 -12 74.5 38Q34 88 34 177Q34 236 49.5 290Q65 344 93.5 384.5Q122 425 163 449Q204 473 255 473Q305 473 335 452.5Q365 432 370 385L398 462H504ZM366 680 471 525H361L335 562Q329 570 326.5 576.5Q324 583 322 588Q320 593 320 597H315Q314 593 310 588Q307 583 301.5 576.5Q296 570 288 562L249 525H134L292 680Z" glyph-name="acircumflex" horiz-adv-x="551" unicode="&#226;" /><glyph d="M80 527 151 678H304L188 527Z" glyph-name="acute" horiz-adv-x="384" unicode="&#180;" /><glyph d="M80 649 144 785H296L189 649Z" glyph-name="acute.cap" horiz-adv-x="376" unicode="&#58402;" /><glyph d="M350 270Q354 291 352.5 311Q351 331 343.5 347Q336 363 322 372.5Q308 382 286 382Q256 382 232 366Q208 350 191.5 323Q175 296 166.5 260Q158 224 158 185Q158 140 177 110Q196 80 234 80Q276 80 301.5 111Q327 142 335 192ZM447 134Q444 117 448 104Q452 91 474 91Q481 91 488 92.5Q495 94 504 96L485 6Q454 -5 419 -5Q371 -5 347 14.5Q323 34 321 78Q303 29 267.5 8.5Q232 -12 188 -12Q115 -12 74.5 38Q34 88 34 177Q34 236 49.5 290Q65 344 93.5 384.5Q122 425 163 449Q204 473 255 473Q305 473 335 452.5Q365 432 370 385L398 462H504ZM142 596Q142 630 162.5 648Q183 666 211 666Q241 666 261.5 648Q282 630 282 596Q282 563 261.5 544.5Q241 526 211 526Q183 526 162.5 544.5Q142 563 142 596ZM353 595Q353 629 373 647Q393 665 422 665Q452 665 472 647Q492 629 492 595Q492 563 472 544.5Q452 526 422 526Q393 526 373 544.5Q353 563 353 595Z" glyph-name="adieresis" horiz-adv-x="551" unicode="&#228;" /><glyph d="M503 80Q539 80 559 95.5Q579 111 589 146L702 119Q679 48 629 18Q579 -12 493 -12Q439 -12 399.5 6.5Q360 25 335 59Q307 22 266 5Q225 -12 174 -12Q103 -12 64.5 20Q26 52 26 112Q26 155 45 186Q64 217 100.5 236.5Q137 256 189 265Q241 274 307 275Q314 302 325 326Q326 355 310.5 368.5Q295 382 269 382Q237 382 216.5 364Q196 346 191 312L76 333Q84 370 103.5 396.5Q123 423 150.5 440Q178 457 212 465Q246 473 283 473Q325 473 358 463Q391 453 411 430Q471 473 541 473Q589 473 623.5 459Q658 445 680.5 421.5Q703 398 713.5 368Q724 338 724 306Q724 280 719.5 252Q715 224 704 204H421Q418 179 421.5 156.5Q425 134 435 117Q445 100 462 90Q479 80 503 80ZM305 125Q301 139 299.5 154.5Q298 170 298 187V203Q229 201 188.5 182.5Q148 164 148 122Q148 76 201 76Q231 76 257 86Q283 96 305 125ZM601 275Q603 281 603.5 290Q604 299 604 307Q604 339 588.5 361.5Q573 384 536 384Q515 384 498.5 374.5Q482 365 469.5 350Q457 335 448.5 315.5Q440 296 435 275Z" glyph-name="ae" horiz-adv-x="748" unicode="&#230;" /><glyph d="M495 80Q531 80 551 95.5Q571 111 581 146L694 119Q671 48 621 18Q571 -12 485 -12Q431 -12 391.5 6.5Q352 25 327 59Q299 22 258 5Q217 -12 166 -12Q95 -12 56.5 20Q18 52 18 112Q18 155 37 186Q56 217 92.5 236.5Q129 256 181 265Q233 274 299 275Q306 302 317 326Q318 355 302.5 368.5Q287 382 261 382Q229 382 208.5 364Q188 346 183 312L68 333Q76 370 95.5 396.5Q115 423 142.5 440Q170 457 204 465Q238 473 275 473Q317 473 350 463Q383 453 403 430Q463 473 533 473Q581 473 615.5 459Q650 445 672.5 421.5Q695 398 705.5 368Q716 338 716 306Q716 280 711.5 252Q707 224 696 204H413Q410 179 413.5 156.5Q417 134 427 117Q437 100 454 90Q471 80 495 80ZM297 125Q293 139 291.5 154.5Q290 170 290 187V203Q221 201 180.5 182.5Q140 164 140 122Q140 76 193 76Q223 76 249 86Q275 96 297 125ZM593 275Q595 281 595.5 290Q596 299 596 307Q596 339 580.5 361.5Q565 384 528 384Q507 384 490.5 374.5Q474 365 461.5 350Q449 335 440.5 315.5Q432 296 427 275ZM364 527 435 678H588L472 527Z" glyph-name="aeacute" horiz-adv-x="740" unicode="&#509;" /><glyph d="M350 270Q354 291 352.5 311Q351 331 343.5 347Q336 363 322 372.5Q308 382 286 382Q256 382 232 366Q208 350 191.5 323Q175 296 166.5 260Q158 224 158 185Q158 140 177 110Q196 80 234 80Q276 80 301.5 111Q327 142 335 192ZM447 134Q444 117 448 104Q452 91 474 91Q481 91 488 92.5Q495 94 504 96L485 6Q454 -5 419 -5Q371 -5 347 14.5Q323 34 321 78Q303 29 267.5 8.5Q232 -12 188 -12Q115 -12 74.5 38Q34 88 34 177Q34 236 49.5 290Q65 344 93.5 384.5Q122 425 163 449Q204 473 255 473Q305 473 335 452.5Q365 432 370 385L398 462H504ZM262 527 146 678H298L370 527Z" glyph-name="agrave" horiz-adv-x="551" unicode="&#224;" /><glyph d="M350 270Q354 291 352.5 311Q351 331 343.5 347Q336 363 322 372.5Q308 382 286 382Q256 382 232 366Q208 350 191.5 323Q175 296 166.5 260Q158 224 158 185Q158 140 177 110Q196 80 234 80Q276 80 301.5 111Q327 142 335 192ZM447 134Q444 117 448 104Q452 91 474 91Q481 91 488 92.5Q495 94 504 96L485 6Q454 -5 419 -5Q371 -5 347 14.5Q323 34 321 78Q303 29 267.5 8.5Q232 -12 188 -12Q115 -12 74.5 38Q34 88 34 177Q34 236 49.5 290Q65 344 93.5 384.5Q122 425 163 449Q204 473 255 473Q305 473 335 452.5Q365 432 370 385L398 462H504ZM169 545 187 642H470L452 545Z" glyph-name="amacron" horiz-adv-x="551" unicode="&#257;" /><glyph d="M445 -12 388 55Q343 20 294.5 4Q246 -12 186 -12Q106 -12 58.5 24.5Q11 61 11 133Q11 167 22.5 194Q34 221 56 242Q78 263 108.5 278.5Q139 294 178 305L151 336Q129 362 118 389.5Q107 417 107 449Q107 488 123.5 516.5Q140 545 167 563.5Q194 582 229.5 591.5Q265 601 303 601Q378 601 421.5 567Q465 533 465 471Q465 438 452.5 413Q440 388 419.5 369.5Q399 351 372 338Q345 325 316 317L412 205Q425 223 435 249Q445 275 452 304L551 268Q545 250 536 232Q527 214 516.5 196.5Q506 179 494 164Q482 149 471 137L538 63ZM130 146Q130 116 150.5 96Q171 76 209 76Q246 76 276.5 87.5Q307 99 333 120L217 259Q179 237 154.5 212.5Q130 188 130 146ZM293 521Q263 521 243.5 504Q224 487 224 460Q224 444 230 431Q236 418 248 402L279 362Q315 380 335 405.5Q355 431 355 460Q355 521 293 521Z" glyph-name="ampersand" horiz-adv-x="573" unicode="&amp;" /><glyph d="M249 -111Q249 -63 278 -30.5Q307 2 343 19Q335 29 328.5 45Q322 61 321 78Q303 34 267.5 11Q232 -12 188 -12Q115 -12 74.5 38Q34 88 34 177Q34 236 49.5 290Q65 344 93.5 384.5Q122 425 163 449Q204 473 255 473Q305 473 335 452.5Q365 432 370 385L398 462H504L447 134Q444 117 448 104Q452 91 474 91Q481 91 488 92.5Q495 94 504 96L485 6Q462 2 437 -4Q412 -10 392 -20.5Q372 -31 359 -48Q346 -65 346 -91Q346 -111 356.5 -122Q367 -133 386 -133Q406 -133 419.5 -125Q433 -117 447 -100L476 -160Q456 -185 427.5 -198Q399 -211 361 -211Q312 -211 280.5 -186.5Q249 -162 249 -111ZM350 270Q354 291 352.5 311Q351 331 343.5 347Q336 363 322 372.5Q308 382 286 382Q256 382 232 366Q208 350 191.5 323Q175 296 166.5 260Q158 224 158 185Q158 140 177 110Q196 80 234 80Q276 80 301.5 111Q327 142 335 192Z" glyph-name="aogonek" horiz-adv-x="551" unicode="&#261;" /><glyph d="M376 247Q352 247 325 254Q298 261 271 269Q244 277 218.5 284Q193 291 171 291Q140 291 114 280Q88 269 62 248L74 315Q103 340 129.5 349.5Q156 359 185 359Q210 359 236 352.5Q262 346 287.5 338Q313 330 338 323.5Q363 317 386 317Q412 317 437 325.5Q462 334 489 356L477 283Q455 263 430.5 255Q406 247 376 247ZM354 121Q330 121 302.5 128Q275 135 248 143Q221 151 195.5 158Q170 165 148 165Q118 165 92 154Q66 143 40 121L51 189Q80 213 107 223Q134 233 163 233Q188 233 213.5 226.5Q239 220 265 211.5Q291 203 316 196.5Q341 190 364 190Q390 190 415 199Q440 208 467 230L454 157Q433 137 408.5 129Q384 121 354 121Z" glyph-name="approxequal" horiz-adv-x="529" unicode="&#8776;" /><glyph d="M350 270Q354 291 352.5 311Q351 331 343.5 347Q336 363 322 372.5Q308 382 286 382Q256 382 232 366Q208 350 191.5 323Q175 296 166.5 260Q158 224 158 185Q158 140 177 110Q196 80 234 80Q276 80 301.5 111Q327 142 335 192ZM447 134Q444 117 448 104Q452 91 474 91Q481 91 488 92.5Q495 94 504 96L485 6Q454 -5 419 -5Q371 -5 347 14.5Q323 34 321 78Q303 29 267.5 8.5Q232 -12 188 -12Q115 -12 74.5 38Q34 88 34 177Q34 236 49.5 290Q65 344 93.5 384.5Q122 425 163 449Q204 473 255 473Q305 473 335 452.5Q365 432 370 385L398 462H504ZM217 609Q217 632 225.5 653Q234 674 249 689.5Q264 705 285.5 714Q307 723 334 723Q379 723 405.5 695Q432 667 432 627Q432 603 423.5 582Q415 561 400 545.5Q385 530 364 521Q343 512 317 512Q267 512 242 539.5Q217 567 217 609ZM330 669Q307 669 292.5 652.5Q278 636 278 613Q278 592 289.5 580Q301 568 322 568Q345 568 359 584.5Q373 601 373 624Q373 644 362 656.5Q351 669 330 669Z" glyph-name="aring" horiz-adv-x="551" unicode="&#229;" /><glyph d="M389 452Q378 487 373.5 511.5Q369 536 367 553Q364 572 365 585H361Q357 571 348 552Q340 535 326.5 510.5Q313 486 290 453L200 321H86L327 668H431L549 321H429Z" glyph-name="asciicircum" horiz-adv-x="523" unicode="^" /><glyph d="M160 231Q145 241 130 241Q114 241 102.5 232.5Q91 224 88 201L40 221Q36 237 36 254Q36 290 60.5 317Q85 344 124 344Q151 344 181 330L222 308Q238 300 256 300Q270 300 281.5 309Q293 318 298 341L349 317Q352 305 352 292Q352 272 345 254Q338 236 326.5 222.5Q315 209 299 201Q283 193 264 193Q250 193 237.5 196.5Q225 200 213 206Z" glyph-name="asciitilde" horiz-adv-x="388" unicode="~" /><glyph d="M263 484 367 507 373 420 267 428 322 335 236 300 213 404 143 323 86 394 177 450 79 493 126 566 207 498 216 604 305 581Z" glyph-name="asterisk" horiz-adv-x="391" unicode="*" /><glyph d="M512 220Q520 265 501.5 290.5Q483 316 449 316Q403 316 375 275.5Q347 235 347 169Q347 127 361 103.5Q375 80 410 80Q442 80 468.5 102.5Q495 125 504 178ZM617 -12Q562 -12 532.5 9.5Q503 31 500 81Q483 27 448.5 7.5Q414 -12 368 -12Q303 -12 265.5 32.5Q228 77 228 162Q228 219 243.5 264.5Q259 310 285.5 342Q312 374 347.5 391Q383 408 422 408Q464 408 495.5 386.5Q527 365 534 323L572 402H661L605 115Q600 83 611.5 69Q623 55 650 55Q673 55 694.5 69Q716 83 732 109.5Q748 136 757.5 173Q767 210 767 256Q767 327 742.5 379.5Q718 432 675.5 466.5Q633 501 577 518Q521 535 458 535Q392 535 331.5 513.5Q271 492 224.5 449Q178 406 150 342Q122 278 122 194Q122 111 148.5 49Q175 -13 222 -54.5Q269 -96 335 -117Q401 -138 479 -138Q531 -138 575 -131Q619 -124 672 -106L687 -171Q635 -188 580.5 -195Q526 -202 478 -202Q379 -202 298.5 -176Q218 -150 162 -99.5Q106 -49 75.5 24.5Q45 98 45 194Q45 283 75.5 357Q106 431 160.5 484.5Q215 538 291 567.5Q367 597 459 597Q553 597 624.5 570.5Q696 544 744 498.5Q792 453 816.5 392.5Q841 332 841 265Q841 211 829 161Q817 111 790 72.5Q763 34 720.5 11Q678 -12 617 -12Z" glyph-name="at" horiz-adv-x="886" unicode="@" /><glyph d="M350 270Q354 291 352.5 311Q351 331 343.5 347Q336 363 322 372.5Q308 382 286 382Q256 382 232 366Q208 350 191.5 323Q175 296 166.5 260Q158 224 158 185Q158 140 177 110Q196 80 234 80Q276 80 301.5 111Q327 142 335 192ZM447 134Q444 117 448 104Q452 91 474 91Q481 91 488 92.5Q495 94 504 96L485 6Q454 -5 419 -5Q371 -5 347 14.5Q323 34 321 78Q303 29 267.5 8.5Q232 -12 188 -12Q115 -12 74.5 38Q34 88 34 177Q34 236 49.5 290Q65 344 93.5 384.5Q122 425 163 449Q204 473 255 473Q305 473 335 452.5Q365 432 370 385L398 462H504ZM383 524Q354 524 338.5 531Q323 538 306 549Q287 561 276.5 567.5Q266 574 252 574Q237 574 226 561.5Q215 549 213 523H145Q138 555 143.5 581.5Q149 608 164 627.5Q179 647 201 658Q223 669 249 669Q276 669 291.5 661.5Q307 654 321 644Q341 631 352 624.5Q363 618 377 618Q391 618 400.5 629Q410 640 412 667H483Q497 603 468.5 563.5Q440 524 383 524Z" glyph-name="atilde" horiz-adv-x="551" unicode="&#227;" /><glyph d="M187 188Q183 167 186 146.5Q189 126 198.5 110Q208 94 224 84.5Q240 75 263 75Q294 75 317.5 91.5Q341 108 357.5 135Q374 162 382.5 197.5Q391 233 391 272Q391 324 369 352Q347 380 309 380Q271 380 241 348.5Q211 317 200 257ZM126 0H34L152 668H273L220 373Q241 422 276.5 447.5Q312 473 366 473Q436 473 478 425.5Q520 378 520 281Q520 219 504.5 165.5Q489 112 459 72.5Q429 33 385.5 10.5Q342 -12 287 -12Q239 -12 204.5 10Q170 32 163 71Z" glyph-name="b" horiz-adv-x="554" unicode="b" /><glyph d="M306 -203H210L88 668H185Z" glyph-name="backslash" horiz-adv-x="362" unicode="\" /><glyph d="M-1 -203 152 668H249L96 -203Z" glyph-name="bar" horiz-adv-x="246" unicode="|" /><glyph d="M162 228Q181 226 197 220Q213 214 224 202Q235 190 239 170.5Q243 151 237 121L208 -47Q202 -82 209.5 -100Q217 -118 247 -118Q267 -118 280.5 -114Q294 -110 312 -101L317 -185Q267 -210 200 -210Q161 -210 137 -199Q113 -188 101 -168.5Q89 -149 87 -123Q85 -97 91 -66L121 107Q125 131 122.5 146.5Q120 162 112 170Q104 178 92 181Q80 184 66 184H25L40 275H81Q95 275 108.5 278Q122 281 133 289.5Q144 298 152.5 313Q161 328 165 352L195 526Q201 557 212 583Q223 609 242 628Q261 647 289 658Q317 669 356 669Q390 669 416 663.5Q442 658 463 644L429 560Q414 569 402 573Q390 577 370 577Q339 577 325.5 559.5Q312 542 306 507L276 339Q271 307 260 287.5Q249 268 234 256Q219 244 200.5 239Q182 234 162 232Z" glyph-name="braceleft" horiz-adv-x="408" unicode="{" /><glyph d="M244 232Q225 234 209 239.5Q193 245 182 257Q171 269 167 289Q163 309 169 339L198 507Q204 542 196.5 559.5Q189 577 159 577Q139 577 125.5 573Q112 569 94 560L89 644Q115 658 143.5 663.5Q172 669 206 669Q245 669 269 658Q293 647 305 628Q317 609 319 583Q321 557 315 526L285 352Q280 328 283 313Q286 298 294 289.5Q302 281 314 278Q326 275 340 275H381L366 184H325Q311 184 297.5 181Q284 178 273 170Q262 162 253.5 146.5Q245 131 241 107L211 -66Q205 -97 194 -123Q183 -149 164 -168.5Q145 -188 117 -199Q89 -210 50 -210Q-16 -210 -57 -185L-23 -101Q-8 -110 4 -114Q16 -118 36 -118Q67 -118 80.5 -100Q94 -82 100 -47L130 121Q135 152 146 172Q157 192 172 203.5Q187 215 205.5 220.5Q224 226 244 228Z" glyph-name="braceright" horiz-adv-x="408" unicode="}" /><glyph d="M147 -114H290L274 -203H11L164 668H427L412 579H269Z" glyph-name="bracketleft" horiz-adv-x="360" unicode="[" /><glyph d="M211 580H68L83 668H346L193 -203H-70L-55 -114H88Z" glyph-name="bracketright" horiz-adv-x="360" unicode="]" /><glyph d="M202 522Q165 522 139.5 533.5Q114 545 100 565.5Q86 586 82 614Q78 642 84 675H174Q169 645 176 627Q183 609 217 609Q251 609 264.5 627Q278 645 285 675H375Q369 642 355.5 614Q342 586 320 565.5Q298 545 268.5 533.5Q239 522 202 522Z" glyph-name="breve" horiz-adv-x="455" unicode="&#728;" /><glyph d="M203 645Q128 645 100 683.5Q72 722 84 788H174Q170 759 179 744Q188 729 219 729Q250 729 264 744Q278 759 285 788H375Q363 722 320.5 683.5Q278 645 203 645Z" glyph-name="breve.cap" horiz-adv-x="455" unicode="&#58406;" /><glyph d="M63 252Q63 274 71.5 293.5Q80 313 94.5 328Q109 343 128.5 351.5Q148 360 170 360Q192 360 211.5 351.5Q231 343 246 328Q261 313 269.5 293.5Q278 274 278 252Q278 230 269.5 210.5Q261 191 246 176.5Q231 162 211.5 153.5Q192 145 170 145Q148 145 128.5 153.5Q109 162 94.5 176.5Q80 191 71.5 210.5Q63 230 63 252Z" glyph-name="bullet" horiz-adv-x="348" unicode="&#8226;" /><glyph d="M440 139Q417 65 366 26.5Q315 -12 230 -12Q141 -12 87.5 39Q34 90 34 184Q34 240 49.5 292Q65 344 96.5 384.5Q128 425 175.5 449Q223 473 287 473Q332 473 364 460.5Q396 448 416.5 426Q437 404 447 374Q457 344 457 309L339 289Q340 305 337 321Q334 337 326.5 349.5Q319 362 306.5 369.5Q294 377 275 377Q248 377 226.5 361.5Q205 346 190.5 320Q176 294 168 261Q160 228 160 192Q160 134 181.5 107Q203 80 240 80Q274 80 294 100Q314 120 324 158Z" glyph-name="c" horiz-adv-x="471" unicode="c" /><glyph d="M440 139Q417 65 366 26.5Q315 -12 230 -12Q141 -12 87.5 39Q34 90 34 184Q34 240 49.5 292Q65 344 96.5 384.5Q128 425 175.5 449Q223 473 287 473Q332 473 364 460.5Q396 448 416.5 426Q437 404 447 374Q457 344 457 309L339 289Q340 305 337 321Q334 337 326.5 349.5Q319 362 306.5 369.5Q294 377 275 377Q248 377 226.5 361.5Q205 346 190.5 320Q176 294 168 261Q160 228 160 192Q160 134 181.5 107Q203 80 240 80Q274 80 294 100Q314 120 324 158ZM235 527 306 678H459L343 527Z" glyph-name="cacute" horiz-adv-x="471" unicode="&#263;" /><glyph d="M185 525 80 680H190L216 643Q226 628 229 618Q231 613 231 609H236Q237 613 241 618Q244 623 249 629Q254 635 263 643L302 680H417L259 525Z" glyph-name="caron" horiz-adv-x="497" unicode="&#711;" /><glyph d="M186 649 80 789H193L217 757Q228 741 231 734Q233 730 233 726H237Q238 730 242 734Q245 738 250 743.5Q255 749 263 757L300 789H418L262 649Z" glyph-name="caron.cap" horiz-adv-x="498" unicode="&#58413;" /><glyph d="M166 479H80L95 668H221Z" glyph-name="caronSlovak" horiz-adv-x="301" unicode="&#58387;" /><glyph d="M440 139Q417 65 366 26.5Q315 -12 230 -12Q141 -12 87.5 39Q34 90 34 184Q34 240 49.5 292Q65 344 96.5 384.5Q128 425 175.5 449Q223 473 287 473Q332 473 364 460.5Q396 448 416.5 426Q437 404 447 374Q457 344 457 309L339 289Q340 305 337 321Q334 337 326.5 349.5Q319 362 306.5 369.5Q294 377 275 377Q248 377 226.5 361.5Q205 346 190.5 320Q176 294 168 261Q160 228 160 192Q160 134 181.5 107Q203 80 240 80Q274 80 294 100Q314 120 324 158ZM253 525 148 680H258L284 643Q294 628 297 618Q299 613 299 609H304Q305 613 309 618Q312 623 317 629Q322 635 331 643L370 680H485L327 525Z" glyph-name="ccaron" horiz-adv-x="471" unicode="&#269;" /><glyph d="M283 -120Q283 -166 250 -188.5Q217 -211 170 -211Q137 -211 110.5 -201Q84 -191 70 -174L95 -115Q124 -150 158 -150Q174 -150 183.5 -143Q193 -136 193 -121Q193 -87 140 -81L170 -4Q107 10 70.5 58Q34 106 34 184Q34 240 49.5 292Q65 344 96.5 384.5Q128 425 175.5 449Q223 473 287 473Q332 473 364 460.5Q396 448 416.5 426Q437 404 447 374Q457 344 457 309L339 289Q340 305 337 321Q334 337 326.5 349.5Q319 362 306.5 369.5Q294 377 275 377Q248 377 226.5 361.5Q205 346 190.5 320Q176 294 168 261Q160 228 160 192Q160 134 181.5 107Q203 80 240 80Q274 80 294 100Q314 120 324 158L440 139Q417 65 366 26.5Q315 -12 230 -12Q221 -12 216 -11L205 -38Q245 -45 264 -63.5Q283 -82 283 -120Z" glyph-name="ccedilla" horiz-adv-x="471" unicode="&#231;" /><glyph d="M440 139Q417 65 366 26.5Q315 -12 230 -12Q141 -12 87.5 39Q34 90 34 184Q34 240 49.5 292Q65 344 96.5 384.5Q128 425 175.5 449Q223 473 287 473Q332 473 364 460.5Q396 448 416.5 426Q437 404 447 374Q457 344 457 309L339 289Q340 305 337 321Q334 337 326.5 349.5Q319 362 306.5 369.5Q294 377 275 377Q248 377 226.5 361.5Q205 346 190.5 320Q176 294 168 261Q160 228 160 192Q160 134 181.5 107Q203 80 240 80Q274 80 294 100Q314 120 324 158ZM353 680 458 525H348L322 562Q316 570 313.5 576.5Q311 583 309 588Q307 593 307 597H302Q301 593 297 588Q294 583 288.5 576.5Q283 570 275 562L236 525H121L279 680Z" glyph-name="ccircumflex" horiz-adv-x="471" unicode="&#265;" /><glyph d="M440 139Q417 65 366 26.5Q315 -12 230 -12Q141 -12 87.5 39Q34 90 34 184Q34 240 49.5 292Q65 344 96.5 384.5Q128 425 175.5 449Q223 473 287 473Q332 473 364 460.5Q396 448 416.5 426Q437 404 447 374Q457 344 457 309L339 289Q340 305 337 321Q334 337 326.5 349.5Q319 362 306.5 369.5Q294 377 275 377Q248 377 226.5 361.5Q205 346 190.5 320Q176 294 168 261Q160 228 160 192Q160 134 181.5 107Q203 80 240 80Q274 80 294 100Q314 120 324 158ZM229 602Q229 636 251 655Q273 674 303 674Q336 674 358 655Q380 636 380 602Q380 569 358 550Q336 531 303 531Q273 531 251 550Q229 569 229 602Z" glyph-name="cdotaccent" horiz-adv-x="471" unicode="&#267;" /><glyph d="M475 169Q440 111 391 82Q342 53 267 51L251 -43H201L218 54Q143 65 97.5 115.5Q52 166 52 256Q52 315 68 368Q84 421 116 461.5Q148 502 195.5 526.5Q243 551 306 554L321 637H371L356 553Q427 545 461 510Q495 475 508 422L393 379Q389 405 375.5 425Q362 445 338 453L284 149Q316 152 338.5 172.5Q361 193 379 228ZM174 265Q174 223 189.5 194Q205 165 236 154L289 458Q262 454 241 438Q220 422 205 396.5Q190 371 182 337.5Q174 304 174 265Z" glyph-name="cent" horiz-adv-x="504" unicode="&#162;" /><glyph d="M312 680 417 525H307L281 562Q275 570 272.5 576.5Q270 583 268 588Q266 593 266 597H261Q260 593 256 588Q253 583 247.5 576.5Q242 570 234 562L195 525H80L238 680Z" glyph-name="circumflex" horiz-adv-x="497" unicode="&#710;" /><glyph d="M312 789 418 649H305L280 681Q270 694 267 703Q265 707 265 712H261Q260 707 256 703Q251 695 235 681L198 649H80L236 789Z" glyph-name="circumflex.cap" horiz-adv-x="498" unicode="&#58403;" /><glyph d="M38 73Q38 108 61 131.5Q84 155 117 155Q152 155 175 131.5Q198 108 198 73Q198 40 175 17.5Q152 -5 117 -5Q84 -5 61 17.5Q38 40 38 73ZM97 405Q97 440 120 463Q143 486 176 486Q211 486 234 463Q257 440 257 405Q257 372 234 349Q211 326 176 326Q143 326 120 349Q97 372 97 405Z" glyph-name="colon" horiz-adv-x="290" unicode=":" /><glyph d="M204 45Q204 1 187.5 -29.5Q171 -60 144 -79.5Q117 -99 81.5 -108.5Q46 -118 7 -119V-68Q29 -67 50 -61Q71 -55 87.5 -45Q104 -35 114 -21.5Q124 -8 124 10Q91 5 65.5 21Q40 37 40 74Q40 110 63 128.5Q86 147 118 147Q157 147 180.5 119.5Q204 92 204 45Z" glyph-name="comma" horiz-adv-x="290" unicode="," /><glyph d="M262 -137Q262 -196 219.5 -224.5Q177 -253 113 -253V-210Q145 -209 167.5 -201Q190 -193 190 -171Q163 -176 143.5 -162Q124 -148 124 -118Q124 -88 143 -72.5Q162 -57 189 -57Q221 -57 241.5 -77.5Q262 -98 262 -137Z" glyph-name="commaaccent" horiz-adv-x="342" unicode="&#63171;" /><glyph d="M80 727Q80 786 122.5 814.5Q165 843 229 843V801Q197 799 174.5 791.5Q152 784 152 761Q179 766 198.5 752Q218 738 218 708Q218 678 199 662.5Q180 647 153 647Q121 647 100.5 668Q80 689 80 727Z" glyph-name="commaaccent.cap" horiz-adv-x="342" unicode="&#58414;" /><glyph d="M512 192Q484 145 444 122Q404 99 342 99Q270 99 225.5 139.5Q181 180 181 258Q181 305 194 347Q207 389 233.5 421Q260 453 299 471.5Q338 490 390 490Q426 490 451.5 482Q477 474 494.5 460Q512 446 522.5 427Q533 408 538 385L444 350Q441 376 426 392Q411 408 381 408Q358 408 339 396.5Q320 385 307 365.5Q294 346 287 320Q280 294 280 265Q280 227 298.5 202.5Q317 178 353 178Q383 178 401.5 194.5Q420 211 434 240ZM55 294Q55 361 79 417Q103 473 144.5 514Q186 555 242 578Q298 601 361 601Q424 601 480 578Q536 555 578 514Q620 473 644 417Q668 361 668 294Q668 227 644 171Q620 115 578 74.5Q536 34 480 11Q424 -12 361 -12Q298 -12 242 11Q186 34 144.5 74.5Q103 115 79 171Q55 227 55 294ZM86 294Q86 233 108 182Q130 131 167.5 94.5Q205 58 255.5 37.5Q306 17 363 17Q420 17 470 37.5Q520 58 557.5 94.5Q595 131 616.5 182Q638 233 638 294Q638 355 616.5 406Q595 457 557.5 494Q520 531 470 551.5Q420 572 363 572Q306 572 255.5 551.5Q205 531 167.5 494Q130 457 108 406Q86 355 86 294Z" glyph-name="copyright" horiz-adv-x="698" unicode="&#169;" /><glyph d="M354 270Q358 291 356.5 311Q355 331 347 346.5Q339 362 324 371.5Q309 381 286 381Q256 381 232 365Q208 349 191.5 322Q175 295 166.5 259.5Q158 224 158 185Q158 140 176.5 110Q195 80 234 80Q276 80 303 109Q330 138 340 192ZM451 134Q448 117 452 104Q456 91 478 91Q485 91 492 92.5Q499 94 508 96L490 6Q457 -5 423 -5Q375 -5 351 14.5Q327 34 325 78Q308 28 270 8Q232 -12 188 -12Q115 -12 74.5 38Q34 88 34 177Q34 236 49.5 290Q65 344 94 384.5Q123 425 164.5 449Q206 473 259 473Q306 473 337.5 452.5Q369 432 374 385L423 668H544Z" glyph-name="d" horiz-adv-x="554" unicode="d" /><glyph d="M88 254 108 365 287 355 318 589H439L388 355L571 365L551 254L372 265L309 -150H189L272 265Z" glyph-name="dagger" horiz-adv-x="551" unicode="&#8224;" /><glyph d="M352 151 535 161 516 51 336 62 309 -150H190L238 62L53 51L72 161L252 151L278 299L94 288L114 399L294 388L319 589H439L394 388L577 399L558 288L378 299Z" glyph-name="daggerdbl" horiz-adv-x="551" unicode="&#8225;" /><glyph d="M673 509H587L602 686H728ZM354 270Q358 291 356.5 311Q355 331 347 346.5Q339 362 324 371.5Q309 381 286 381Q256 381 232 365Q208 349 191.5 322Q175 295 166.5 259.5Q158 224 158 185Q158 140 176.5 110Q195 80 234 80Q276 80 303 109Q330 138 340 192ZM451 134Q448 117 452 104Q456 91 478 91Q485 91 492 92.5Q499 94 508 96L490 6Q457 -5 423 -5Q375 -5 351 14.5Q327 34 325 78Q308 28 270 8Q232 -12 188 -12Q115 -12 74.5 38Q34 88 34 177Q34 236 49.5 290Q65 344 94 384.5Q123 425 164.5 449Q206 473 259 473Q306 473 337.5 452.5Q369 432 374 385L423 668H544Z" glyph-name="dcaron" horiz-adv-x="554" unicode="&#271;" /><glyph d="M531 598H606L592 522H518L451 134Q448 117 452 104Q456 91 478 91Q485 91 492 92.5Q499 94 508 96L490 6Q457 -5 423 -5Q375 -5 351 14.5Q327 34 325 78Q308 28 270 8Q232 -12 188 -12Q115 -12 74.5 38Q34 88 34 177Q34 236 49.5 290Q65 344 94 384.5Q123 425 164.5 449Q206 473 259 473Q306 473 337.5 452.5Q369 432 374 385L398 522H261L275 598H411L423 668H544ZM354 270Q358 291 356.5 311Q355 331 347 346.5Q339 362 324 371.5Q309 381 286 381Q256 381 232 365Q208 349 191.5 322Q175 295 166.5 259.5Q158 224 158 185Q158 140 176.5 110Q195 80 234 80Q276 80 303 109Q330 138 340 192Z" glyph-name="dcroat" horiz-adv-x="554" unicode="&#273;" /><glyph d="M49 470Q49 497 58.5 520.5Q68 544 85.5 562Q103 580 128 590.5Q153 601 183 601Q234 601 264.5 569Q295 537 295 492Q295 464 285 440Q275 416 257.5 398Q240 380 216 369.5Q192 359 163 359Q106 359 77.5 390.5Q49 422 49 470ZM178 544Q149 544 131 523.5Q113 503 113 474Q113 448 127 432.5Q141 417 167 417Q197 417 214.5 438Q232 459 232 487Q232 513 218 528.5Q204 544 178 544Z" glyph-name="degree" horiz-adv-x="296" unicode="&#176;" /><glyph d="M80 596Q80 630 100.5 648Q121 666 149 666Q179 666 199.5 648Q220 630 220 596Q220 563 199.5 544.5Q179 526 149 526Q121 526 100.5 544.5Q80 563 80 596ZM291 595Q291 629 311 647Q331 665 360 665Q390 665 410 647Q430 629 430 595Q430 563 410 544.5Q390 526 360 526Q331 526 311 544.5Q291 563 291 595Z" glyph-name="dieresis" horiz-adv-x="510" unicode="&#168;" /><glyph d="M80 720Q80 754 100.5 772Q121 790 149 790Q179 790 199.5 772Q220 754 220 720Q220 687 199.5 668.5Q179 650 149 650Q121 650 100.5 668.5Q80 687 80 720ZM291 719Q291 753 311 771Q331 789 360 789Q390 789 410 771Q430 753 430 719Q430 687 410 668.5Q390 650 360 650Q331 650 311 668.5Q291 687 291 719Z" glyph-name="dieresis.cap" horiz-adv-x="510" unicode="&#58409;" /><glyph d="M40 214 52 282H460L448 214ZM155 81Q155 104 170 119.5Q185 135 207 135Q229 135 244.5 119.5Q260 104 260 81Q260 60 244.5 45Q229 30 207 30Q185 30 170 45Q155 60 155 81ZM231 408Q231 431 246 446.5Q261 462 283 462Q305 462 320.5 446.5Q336 431 336 408Q336 387 320.5 372Q305 357 283 357Q261 357 246 372Q231 387 231 408Z" glyph-name="divide" horiz-adv-x="500" unicode="&#247;" /><glyph d="M109 178Q109 137 129 110.5Q149 84 187 77L216 245Q140 269 105 308.5Q70 348 70 416Q70 467 89 502Q108 537 138 558.5Q168 580 205.5 590Q243 600 279 601L294 684H344L329 598Q399 590 438.5 553Q478 516 480 441L362 418Q363 481 311 500L284 348Q359 321 394 282Q429 243 429 172Q429 124 412.5 90.5Q396 57 367.5 35Q339 13 301 2Q263 -9 221 -11L205 -106H155L171 -11Q95 -6 49 30Q3 66 -2 140ZM312 155Q312 181 300.5 197Q289 213 263 226L237 77Q271 82 291.5 100.5Q312 119 312 155ZM184 431Q184 405 197 391Q210 377 237 365L262 505Q226 502 205 483Q184 464 184 431Z" glyph-name="dollar" horiz-adv-x="474" unicode="$" /><glyph d="M80 602Q80 636 102 655Q124 674 154 674Q187 674 209 655Q231 636 231 602Q231 569 209 550Q187 531 154 531Q124 531 102 550Q80 569 80 602Z" glyph-name="dotaccent" horiz-adv-x="311" unicode="&#729;" /><glyph d="M80 730Q80 765 101.5 783.5Q123 802 154 802Q187 802 209 783.5Q231 765 231 730Q231 697 209 678Q187 659 154 659Q123 659 101.5 678Q80 697 80 730Z" glyph-name="dotaccent.cap" horiz-adv-x="311" unicode="&#58408;" /><glyph d="M169 134Q166 117 170 104Q174 91 196 91Q203 91 210 92.5Q217 94 226 96L208 6Q175 -5 141 -5Q81 -5 57.5 26Q34 57 45 116L106 462H227Z" glyph-name="dotlessi" horiz-adv-x="273" unicode="&#305;" /><glyph d="M134 -63Q127 -105 112 -133.5Q97 -162 75 -179.5Q53 -197 24 -204Q-5 -211 -40 -211Q-74 -211 -102 -203Q-130 -195 -149 -184L-115 -94Q-100 -106 -84.5 -113Q-69 -120 -48 -120Q-23 -120 -7.5 -105Q8 -90 16 -46L106 462H227Z" glyph-name="dotlessj" horiz-adv-x="243" unicode="&#567;" /><glyph d="M240 80Q276 80 296 95.5Q316 111 326 146L438 119Q416 48 366 18Q316 -12 230 -12Q136 -12 85 42Q34 96 34 187Q34 256 54.5 309.5Q75 363 109 399.5Q143 436 187 454.5Q231 473 278 473Q326 473 360.5 459Q395 445 417.5 421.5Q440 398 450.5 368Q461 338 461 306Q461 252 441 209H158Q154 183 157.5 159.5Q161 136 171 118.5Q181 101 198.5 90.5Q216 80 240 80ZM337 280Q340 292 340 307Q340 339 325 361.5Q310 384 272 384Q252 384 235.5 375.5Q219 367 206.5 352.5Q194 338 185 319.5Q176 301 171 280Z" glyph-name="e" horiz-adv-x="485" unicode="e" /><glyph d="M240 80Q276 80 296 95.5Q316 111 326 146L438 119Q416 48 366 18Q316 -12 230 -12Q136 -12 85 42Q34 96 34 187Q34 256 54.5 309.5Q75 363 109 399.5Q143 436 187 454.5Q231 473 278 473Q326 473 360.5 459Q395 445 417.5 421.5Q440 398 450.5 368Q461 338 461 306Q461 252 441 209H158Q154 183 157.5 159.5Q161 136 171 118.5Q181 101 198.5 90.5Q216 80 240 80ZM337 280Q340 292 340 307Q340 339 325 361.5Q310 384 272 384Q252 384 235.5 375.5Q219 367 206.5 352.5Q194 338 185 319.5Q176 301 171 280ZM223 527 294 678H447L331 527Z" glyph-name="eacute" horiz-adv-x="485" unicode="&#233;" /><glyph d="M240 80Q276 80 296 95.5Q316 111 326 146L438 119Q416 48 366 18Q316 -12 230 -12Q136 -12 85 42Q34 96 34 187Q34 256 54.5 309.5Q75 363 109 399.5Q143 436 187 454.5Q231 473 278 473Q326 473 360.5 459Q395 445 417.5 421.5Q440 398 450.5 368Q461 338 461 306Q461 252 441 209H158Q154 183 157.5 159.5Q161 136 171 118.5Q181 101 198.5 90.5Q216 80 240 80ZM337 280Q340 292 340 307Q340 339 325 361.5Q310 384 272 384Q252 384 235.5 375.5Q219 367 206.5 352.5Q194 338 185 319.5Q176 301 171 280ZM279 522Q242 522 216.5 533.5Q191 545 177 565.5Q163 586 159 614Q155 642 161 675H251Q246 645 253 627Q260 609 294 609Q328 609 341.5 627Q355 645 362 675H452Q446 642 432.5 614Q419 586 397 565.5Q375 545 345.5 533.5Q316 522 279 522Z" glyph-name="ebreve" horiz-adv-x="485" unicode="&#277;" /><glyph d="M240 80Q276 80 296 95.5Q316 111 326 146L438 119Q416 48 366 18Q316 -12 230 -12Q136 -12 85 42Q34 96 34 187Q34 256 54.5 309.5Q75 363 109 399.5Q143 436 187 454.5Q231 473 278 473Q326 473 360.5 459Q395 445 417.5 421.5Q440 398 450.5 368Q461 338 461 306Q461 252 441 209H158Q154 183 157.5 159.5Q161 136 171 118.5Q181 101 198.5 90.5Q216 80 240 80ZM337 280Q340 292 340 307Q340 339 325 361.5Q310 384 272 384Q252 384 235.5 375.5Q219 367 206.5 352.5Q194 338 185 319.5Q176 301 171 280ZM242 525 137 680H247L273 643Q283 628 286 618Q288 613 288 609H293Q294 613 298 618Q301 623 306 629Q311 635 320 643L359 680H474L316 525Z" glyph-name="ecaron" horiz-adv-x="485" unicode="&#283;" /><glyph d="M240 80Q276 80 296 95.5Q316 111 326 146L438 119Q416 48 366 18Q316 -12 230 -12Q136 -12 85 42Q34 96 34 187Q34 256 54.5 309.5Q75 363 109 399.5Q143 436 187 454.5Q231 473 278 473Q326 473 360.5 459Q395 445 417.5 421.5Q440 398 450.5 368Q461 338 461 306Q461 252 441 209H158Q154 183 157.5 159.5Q161 136 171 118.5Q181 101 198.5 90.5Q216 80 240 80ZM337 280Q340 292 340 307Q340 339 325 361.5Q310 384 272 384Q252 384 235.5 375.5Q219 367 206.5 352.5Q194 338 185 319.5Q176 301 171 280ZM342 680 447 525H337L311 562Q305 570 302.5 576.5Q300 583 298 588Q296 593 296 597H291Q290 593 286 588Q283 583 277.5 576.5Q272 570 264 562L225 525H110L268 680Z" glyph-name="ecircumflex" horiz-adv-x="485" unicode="&#234;" /><glyph d="M240 80Q276 80 296 95.5Q316 111 326 146L438 119Q416 48 366 18Q316 -12 230 -12Q136 -12 85 42Q34 96 34 187Q34 256 54.5 309.5Q75 363 109 399.5Q143 436 187 454.5Q231 473 278 473Q326 473 360.5 459Q395 445 417.5 421.5Q440 398 450.5 368Q461 338 461 306Q461 252 441 209H158Q154 183 157.5 159.5Q161 136 171 118.5Q181 101 198.5 90.5Q216 80 240 80ZM337 280Q340 292 340 307Q340 339 325 361.5Q310 384 272 384Q252 384 235.5 375.5Q219 367 206.5 352.5Q194 338 185 319.5Q176 301 171 280ZM117 596Q117 630 137.5 648Q158 666 186 666Q216 666 236.5 648Q257 630 257 596Q257 563 236.5 544.5Q216 526 186 526Q158 526 137.5 544.5Q117 563 117 596ZM328 595Q328 629 348 647Q368 665 397 665Q427 665 447 647Q467 629 467 595Q467 563 447 544.5Q427 526 397 526Q368 526 348 544.5Q328 563 328 595Z" glyph-name="edieresis" horiz-adv-x="485" unicode="&#235;" /><glyph d="M240 80Q276 80 296 95.5Q316 111 326 146L438 119Q416 48 366 18Q316 -12 230 -12Q136 -12 85 42Q34 96 34 187Q34 256 54.5 309.5Q75 363 109 399.5Q143 436 187 454.5Q231 473 278 473Q326 473 360.5 459Q395 445 417.5 421.5Q440 398 450.5 368Q461 338 461 306Q461 252 441 209H158Q154 183 157.5 159.5Q161 136 171 118.5Q181 101 198.5 90.5Q216 80 240 80ZM337 280Q340 292 340 307Q340 339 325 361.5Q310 384 272 384Q252 384 235.5 375.5Q219 367 206.5 352.5Q194 338 185 319.5Q176 301 171 280ZM218 602Q218 636 240 655Q262 674 292 674Q325 674 347 655Q369 636 369 602Q369 569 347 550Q325 531 292 531Q262 531 240 550Q218 569 218 602Z" glyph-name="edotaccent" horiz-adv-x="485" unicode="&#279;" /><glyph d="M240 80Q276 80 296 95.5Q316 111 326 146L438 119Q416 48 366 18Q316 -12 230 -12Q136 -12 85 42Q34 96 34 187Q34 256 54.5 309.5Q75 363 109 399.5Q143 436 187 454.5Q231 473 278 473Q326 473 360.5 459Q395 445 417.5 421.5Q440 398 450.5 368Q461 338 461 306Q461 252 441 209H158Q154 183 157.5 159.5Q161 136 171 118.5Q181 101 198.5 90.5Q216 80 240 80ZM337 280Q340 292 340 307Q340 339 325 361.5Q310 384 272 384Q252 384 235.5 375.5Q219 367 206.5 352.5Q194 338 185 319.5Q176 301 171 280ZM237 527 121 678H273L345 527Z" glyph-name="egrave" horiz-adv-x="485" unicode="&#232;" /><glyph d="M228 -12Q179 -12 141.5 -0.5Q104 11 79 31.5Q54 52 41 79Q28 106 28 138Q28 172 39 199.5Q50 227 69.5 248Q89 269 115 282.5Q141 296 172 301L173 305Q131 317 107 347.5Q83 378 83 420Q83 467 101.5 501.5Q120 536 151 558Q182 580 222.5 590.5Q263 601 307 601Q349 601 383.5 590Q418 579 442.5 559.5Q467 540 480 513Q493 486 493 453Q493 390 456 349.5Q419 309 362 299V294Q407 281 435 247.5Q463 214 463 165Q463 115 442 81Q421 47 388 26.5Q355 6 313 -3Q271 -12 228 -12ZM297 515Q251 515 225.5 486Q200 457 200 418Q200 381 222 363Q244 345 274 345Q319 345 346 373Q373 401 373 443Q373 473 354 494Q335 515 297 515ZM260 253Q213 253 181.5 226.5Q150 200 150 155Q150 120 172.5 98.5Q195 77 235 77Q286 77 315.5 103.5Q345 130 345 177Q345 213 320.5 233Q296 253 260 253Z" glyph-name="eight" horiz-adv-x="515" unicode="8" /><glyph d="M38 73Q38 108 61 131.5Q84 155 117 155Q152 155 175 131.5Q198 108 198 73Q198 40 175 17.5Q152 -5 117 -5Q84 -5 61 17.5Q38 40 38 73ZM328 73Q328 108 351 131.5Q374 155 407 155Q442 155 465 131.5Q488 108 488 73Q488 40 465 17.5Q442 -5 407 -5Q374 -5 351 17.5Q328 40 328 73ZM618 73Q618 108 641 131.5Q664 155 697 155Q732 155 755 131.5Q778 108 778 73Q778 40 755 17.5Q732 -5 697 -5Q664 -5 641 17.5Q618 40 618 73Z" glyph-name="ellipsis" horiz-adv-x="870" unicode="&#8230;" /><glyph d="M240 80Q276 80 296 95.5Q316 111 326 146L438 119Q416 48 366 18Q316 -12 230 -12Q136 -12 85 42Q34 96 34 187Q34 256 54.5 309.5Q75 363 109 399.5Q143 436 187 454.5Q231 473 278 473Q326 473 360.5 459Q395 445 417.5 421.5Q440 398 450.5 368Q461 338 461 306Q461 252 441 209H158Q154 183 157.5 159.5Q161 136 171 118.5Q181 101 198.5 90.5Q216 80 240 80ZM337 280Q340 292 340 307Q340 339 325 361.5Q310 384 272 384Q252 384 235.5 375.5Q219 367 206.5 352.5Q194 338 185 319.5Q176 301 171 280ZM143 545 161 642H444L426 545Z" glyph-name="emacron" horiz-adv-x="485" unicode="&#275;" /><glyph d="M78 294H950L936 213H64Z" glyph-name="emdash" horiz-adv-x="1014" unicode="&#8212;" /><glyph d="M78 294H450L436 213H64Z" glyph-name="endash" horiz-adv-x="514" unicode="&#8211;" /><glyph d="M416 -63Q409 -105 394 -133.5Q379 -162 357 -179.5Q335 -197 306 -204Q277 -211 241 -211Q208 -211 179.5 -203Q151 -195 133 -184L167 -94Q181 -106 197 -113Q213 -120 234 -120Q259 -120 274.5 -105Q290 -90 298 -46L358 292Q364 327 353 350.5Q342 374 304 374Q272 374 241.5 345.5Q211 317 198 248L155 0H34L115 462H221L219 368Q242 419 276.5 446Q311 473 367 473Q421 473 453 443Q485 413 485 359Q485 348 484.5 338.5Q484 329 482 317Z" glyph-name="eng" horiz-adv-x="524" unicode="&#331;" /><glyph d="M149 -111Q149 -79 161.5 -54Q174 -29 194 -9Q117 1 75.5 53Q34 105 34 187Q34 256 54.5 309.5Q75 363 109 399.5Q143 436 187 454.5Q231 473 278 473Q326 473 360.5 459Q395 445 417.5 421.5Q440 398 450.5 368Q461 338 461 306Q461 252 441 209H158Q154 183 157.5 159.5Q161 136 171 118.5Q181 101 198.5 90.5Q216 80 240 80Q276 80 296 95.5Q316 111 326 146L438 119Q421 66 387 40Q353 14 306 -4Q246 -27 246 -88Q246 -108 257 -120.5Q268 -133 286 -133Q306 -133 319.5 -125Q333 -117 347 -100L376 -160Q336 -211 262 -211Q213 -211 181 -186.5Q149 -162 149 -111ZM337 280Q340 292 340 307Q340 339 325 361.5Q310 384 272 384Q252 384 235.5 375.5Q219 367 206.5 352.5Q194 338 185 319.5Q176 301 171 280Z" glyph-name="eogonek" horiz-adv-x="485" unicode="&#281;" /><glyph d="M40 141 52 208H460L448 141ZM65 284 77 351H485L473 284Z" glyph-name="equal" horiz-adv-x="525" unicode="=" /><glyph d="M115 526 237 561Q174 599 96 617L204 675Q250 663 289 644.5Q328 626 360 599L459 629L473 581L399 559Q439 511 460.5 445Q482 379 482 293Q482 228 466.5 172.5Q451 117 419.5 76Q388 35 341.5 11.5Q295 -12 233 -12Q190 -12 153.5 0.5Q117 13 90.5 37.5Q64 62 49 99.5Q34 137 34 187Q34 243 50 293Q66 343 95.5 380.5Q125 418 166.5 440Q208 462 259 462Q298 462 323 446Q348 430 360 404H364Q344 475 288 525L129 478ZM275 369Q248 369 226.5 354.5Q205 340 190.5 315Q176 290 168 256.5Q160 223 160 185Q160 132 181.5 105.5Q203 79 241 79Q268 79 289.5 93.5Q311 108 326 133.5Q341 159 349 193Q357 227 357 266Q357 318 335.5 343.5Q314 369 275 369Z" glyph-name="eth" horiz-adv-x="516" unicode="&#240;" /><glyph d="M267 589 156 190H76L118 589ZM18 67Q18 99 40 119Q62 139 94 139Q127 139 149.5 119Q172 99 172 67Q172 35 149.5 15Q127 -5 94 -5Q62 -5 40 15Q18 35 18 67Z" glyph-name="exclam" horiz-adv-x="253" unicode="!" /><glyph d="M-17 -127 94 272H173L132 -127ZM231 395Q231 363 209 343Q187 323 155 323Q122 323 100 343Q78 363 78 395Q78 427 100 447Q122 467 155 467Q187 467 209 447Q231 427 231 395Z" glyph-name="exclamdown" horiz-adv-x="253" unicode="&#161;" /><glyph d="M111 369H41L58 462H127L135 510Q151 600 203 638Q255 676 325 676Q388 676 444 648L405 550Q388 562 369.5 569Q351 576 329 576Q297 576 280 560Q263 544 257 510L248 462H365L348 369H231L152 -84Q146 -120 134.5 -144.5Q123 -169 105.5 -184Q88 -199 63.5 -205Q39 -211 8 -211Q-47 -211 -84 -187L-61 -100Q-47 -111 -35 -115.5Q-23 -120 -11 -120Q8 -120 18 -110.5Q28 -101 32 -77Z" glyph-name="f" horiz-adv-x="330" unicode="f" /><glyph d="M483 186Q479 164 482 143.5Q485 123 494.5 107Q504 91 520 81Q536 71 559 71Q589 71 613 87.5Q637 104 653 132Q669 160 677.5 195.5Q686 231 686 270Q686 324 664 352Q642 380 604 380Q566 380 536 348Q506 316 495 256ZM428 564Q393 586 350 586Q315 586 289.5 567.5Q264 549 255 504L248 462H336L319 369H231L152 -84Q146 -120 134.5 -144.5Q123 -169 105.5 -184Q88 -199 63.5 -205Q39 -211 8 -211Q-47 -211 -84 -187L-61 -100Q-47 -111 -35 -115.5Q-23 -120 -11 -120Q8 -120 18 -110.5Q28 -101 32 -77L111 369H41L58 462H127L135 507Q144 553 163.5 585.5Q183 618 210 638Q237 658 269.5 667Q302 676 337 676Q369 676 399 670Q429 664 451 653L568 668L515 373Q536 422 572 447.5Q608 473 662 473Q731 473 773.5 425.5Q816 378 816 281Q816 219 800 165.5Q784 112 754 72.5Q724 33 681 10.5Q638 -12 583 -12Q535 -12 500.5 10Q466 32 458 71L422 0H329Z" glyph-name="f_b" horiz-adv-x="850" unicode="&#58241;" /><glyph d="M766 186Q762 164 765 143.5Q768 123 777.5 107Q787 91 803 81Q819 71 842 71Q873 71 896.5 87.5Q920 104 936.5 132Q953 160 961.5 195.5Q970 231 970 270Q970 324 948 352Q926 380 888 380Q850 380 819.5 348Q789 316 779 256ZM712 564Q676 586 634 586Q598 586 572.5 567.5Q547 549 539 504L531 462H618L602 369H515L437 -71Q430 -107 418.5 -131.5Q407 -156 389.5 -171Q372 -186 348 -192Q324 -198 293 -198Q237 -198 201 -174L224 -87Q238 -98 249.5 -102.5Q261 -107 274 -107Q293 -107 302.5 -97.5Q312 -88 317 -64L394 369H231L152 -84Q146 -120 134.5 -144.5Q123 -169 105.5 -184Q88 -199 63.5 -205Q39 -211 8 -211Q-47 -211 -84 -187L-61 -100Q-47 -111 -35 -115.5Q-23 -120 -11 -120Q8 -120 18 -110.5Q28 -101 32 -77L111 369H41L58 462H127L135 508Q149 594 192.5 631Q236 668 301 668Q333 668 355 662Q377 656 403 641L364 542Q351 556 340 562Q329 568 313 568Q289 568 276.5 554Q264 540 257 510L248 462H410L419 507Q428 553 447.5 585.5Q467 618 494 638Q521 658 553.5 667Q586 676 621 676Q653 676 682.5 670Q712 664 734 653L851 668L799 373Q820 422 855.5 447.5Q891 473 945 473Q1014 473 1056.5 425.5Q1099 378 1099 281Q1099 219 1083 165.5Q1067 112 1037 72.5Q1007 33 964 10.5Q921 -12 866 -12Q818 -12 783.5 10Q749 32 742 71L705 0H613Z" glyph-name="f_f_b" horiz-adv-x="1133" unicode="&#58242;" /><glyph d="M712 564Q676 586 634 586Q598 586 572.5 567.5Q547 549 539 504L531 462H618L602 369H515L437 -71Q430 -107 418.5 -131.5Q407 -156 389.5 -171Q372 -186 348 -192Q324 -198 293 -198Q237 -198 201 -174L224 -87Q238 -98 249.5 -102.5Q261 -107 274 -107Q293 -107 302.5 -97.5Q312 -88 317 -64L394 369H231L152 -84Q146 -120 134.5 -144.5Q123 -169 105.5 -184Q88 -199 63.5 -205Q39 -211 8 -211Q-47 -211 -84 -187L-61 -100Q-47 -111 -35 -115.5Q-23 -120 -11 -120Q8 -120 18 -110.5Q28 -101 32 -77L111 369H41L58 462H127L135 508Q149 594 192.5 631Q236 668 301 668Q333 668 355 662Q377 656 403 641L364 542Q351 556 340 562Q329 568 313 568Q289 568 276.5 554Q264 540 257 510L248 462H410L419 507Q428 553 447.5 585.5Q467 618 494 638Q521 658 553.5 667Q586 676 621 676Q653 676 682.5 670Q712 664 734 653L851 668L798 368Q821 419 855.5 446Q890 473 945 473Q999 473 1031.5 443Q1064 413 1064 359Q1064 348 1063 338.5Q1062 329 1060 317L1030 134Q1027 117 1030.5 104Q1034 91 1057 91Q1063 91 1070 92.5Q1077 94 1086 96L1068 6Q1035 -5 1001 -5Q941 -5 918 26Q895 57 905 116L936 292Q942 327 931.5 350.5Q921 374 883 374Q867 374 851 367Q835 360 820.5 345Q806 330 794.5 306Q783 282 777 248L733 0H612Z" glyph-name="f_f_h" horiz-adv-x="1125" unicode="&#58243;" /><glyph d="M515 369 437 -71Q430 -107 418.5 -131.5Q407 -156 389.5 -171Q372 -186 348 -192Q324 -198 293 -198Q237 -198 201 -174L224 -87Q238 -98 249.5 -102.5Q261 -107 274 -107Q293 -107 302.5 -97.5Q312 -88 317 -64L394 369H231L152 -84Q146 -120 134.5 -144.5Q123 -169 105.5 -184Q88 -199 63.5 -205Q39 -211 8 -211Q-47 -211 -84 -187L-61 -100Q-47 -111 -35 -115.5Q-23 -120 -11 -120Q8 -120 18 -110.5Q28 -101 32 -77L111 369H41L58 462H127L135 508Q149 594 192.5 631Q236 668 301 668Q333 668 355 662Q377 656 403 641L364 542Q351 556 340 562Q329 568 313 568Q289 568 276.5 554Q264 540 257 510L248 462H410L419 506Q438 598 489.5 637Q541 676 615 676Q653 676 686.5 667.5Q720 659 748 642L709 542Q692 556 671.5 566.5Q651 577 622 577Q588 577 567.5 559Q547 541 538 498L531 462H815L721 -71Q715 -107 703.5 -131.5Q692 -156 674 -171Q656 -186 632 -192Q608 -198 576 -198Q521 -198 484 -174L508 -87Q522 -98 533.5 -102.5Q545 -107 557 -107Q576 -107 586 -97.5Q596 -88 601 -64L678 369Z" glyph-name="f_f_j" horiz-adv-x="831" unicode="&#58244;" /><glyph d="M712 564Q676 586 634 586Q598 586 572.5 567.5Q547 549 539 504L531 462H618L602 369H515L437 -71Q430 -107 418.5 -131.5Q407 -156 389.5 -171Q372 -186 348 -192Q324 -198 293 -198Q237 -198 201 -174L224 -87Q238 -98 249.5 -102.5Q261 -107 274 -107Q293 -107 302.5 -97.5Q312 -88 317 -64L394 369H231L152 -84Q146 -120 134.5 -144.5Q123 -169 105.5 -184Q88 -199 63.5 -205Q39 -211 8 -211Q-47 -211 -84 -187L-61 -100Q-47 -111 -35 -115.5Q-23 -120 -11 -120Q8 -120 18 -110.5Q28 -101 32 -77L111 369H41L58 462H127L135 508Q149 594 192.5 631Q236 668 301 668Q333 668 355 662Q377 656 403 641L364 542Q351 556 340 562Q329 568 313 568Q289 568 276.5 554Q264 540 257 510L248 462H410L419 507Q428 553 447.5 585.5Q467 618 494 638Q521 658 553.5 667Q586 676 621 676Q653 676 682.5 670Q712 664 734 653L851 668L786 297H808L959 462H1105L904 252L968 124Q982 97 1000.5 93Q1019 89 1051 98L1032 5Q1018 0 1002 -2.5Q986 -5 966 -5Q934 -5 909.5 8.5Q885 22 868 60L800 206H770L733 0H612Z" glyph-name="f_f_k" horiz-adv-x="1081" unicode="&#58245;" /><glyph d="M428 564Q393 586 350 586Q315 586 289.5 567.5Q264 549 255 504L248 462H336L319 369H231L152 -84Q146 -120 134.5 -144.5Q123 -169 105.5 -184Q88 -199 63.5 -205Q39 -211 8 -211Q-47 -211 -84 -187L-61 -100Q-47 -111 -35 -115.5Q-23 -120 -11 -120Q8 -120 18 -110.5Q28 -101 32 -77L111 369H41L58 462H127L135 507Q144 553 163.5 585.5Q183 618 210 638Q237 658 269.5 667Q302 676 337 676Q369 676 399 670Q429 664 451 653L568 668L515 368Q538 419 572 446Q606 473 662 473Q716 473 748 443Q780 413 780 359Q780 348 779.5 338.5Q779 329 777 317L746 134Q743 117 747 104Q751 91 773 91Q780 91 787 92.5Q794 94 803 96L785 6Q752 -5 718 -5Q658 -5 634.5 26Q611 57 622 116L653 292Q659 327 648 350.5Q637 374 599 374Q567 374 536.5 345.5Q506 317 493 248L450 0H329Z" glyph-name="f_h" horiz-adv-x="842" unicode="&#58246;" /><glyph d="M437 -71Q431 -107 419.5 -131.5Q408 -156 390.5 -171Q373 -186 348.5 -192Q324 -198 293 -198Q237 -198 201 -174L224 -87Q238 -98 249.5 -102.5Q261 -107 274 -107Q293 -107 302.5 -97.5Q312 -88 317 -64L394 369H231L152 -84Q146 -120 134.5 -144.5Q123 -169 105.5 -184Q88 -199 63.5 -205Q39 -211 8 -211Q-47 -211 -84 -187L-61 -100Q-47 -111 -35 -115.5Q-23 -120 -11 -120Q8 -120 18 -110.5Q28 -101 32 -77L111 369H41L58 462H127L136 506Q155 598 206.5 637Q258 676 332 676Q370 676 403.5 667.5Q437 659 465 642L426 542Q409 556 388 566.5Q367 577 339 577Q304 577 283.5 559Q263 541 255 498L248 462H531Z" glyph-name="f_j" horiz-adv-x="547" unicode="&#58247;" /><glyph d="M428 564Q393 586 350 586Q315 586 289.5 567.5Q264 549 255 504L248 462H335L319 369H231L152 -84Q146 -120 134.5 -144.5Q123 -169 105.5 -184Q88 -199 63.5 -205Q39 -211 8 -211Q-47 -211 -84 -187L-61 -100Q-47 -111 -35 -115.5Q-23 -120 -11 -120Q8 -120 18 -110.5Q28 -101 32 -77L111 369H41L58 462H127L135 507Q144 553 163.5 585.5Q183 618 210 638Q237 658 269.5 667Q302 676 337 676Q369 676 399 670Q429 664 451 653L568 668L502 297H525L676 462H822L621 252L685 124Q699 97 717 93Q735 89 767 98L749 5Q734 0 718.5 -2.5Q703 -5 682 -5Q650 -5 625.5 8.5Q601 22 584 60L516 206H486L450 0H329Z" glyph-name="f_k" horiz-adv-x="798" unicode="&#58248;" /><glyph d="M437 -71Q430 -107 418.5 -131.5Q407 -156 389.5 -171Q372 -186 348 -192Q324 -198 293 -198Q237 -198 201 -174L224 -87Q238 -98 249.5 -102.5Q261 -107 274 -107Q293 -107 302.5 -97.5Q312 -88 317 -64L394 369H231L152 -84Q146 -120 134.5 -144.5Q123 -169 105.5 -184Q88 -199 63.5 -205Q39 -211 8 -211Q-47 -211 -84 -187L-61 -100Q-47 -111 -35 -115.5Q-23 -120 -11 -120Q8 -120 18 -110.5Q28 -101 32 -77L111 369H41L58 462H127L135 508Q149 594 192.5 631Q236 668 301 668Q333 668 355 662Q377 656 403 641L364 542Q351 556 340 562Q329 568 313 568Q289 568 276.5 554Q264 540 257 510L248 462H410L419 510Q426 555 443.5 586.5Q461 618 486 638Q511 658 542 667Q573 676 608 676Q671 676 727 648L688 550Q671 562 653 569Q635 576 612 576Q580 576 563.5 560Q547 544 540 510L531 462H648L632 369H515Z" glyph-name="ff" horiz-adv-x="613" unicode="&#58249;" /><glyph d="M757 134Q754 117 758 104Q762 91 785 91Q791 91 798 92.5Q805 94 814 96L796 6Q763 -5 729 -5Q669 -5 645.5 26Q622 57 633 116L677 369H515L437 -71Q430 -107 418.5 -131.5Q407 -156 389.5 -171Q372 -186 348 -192Q324 -198 293 -198Q237 -198 201 -174L224 -87Q238 -98 249.5 -102.5Q261 -107 274 -107Q293 -107 302.5 -97.5Q312 -88 317 -64L394 369H231L152 -84Q146 -120 134.5 -144.5Q123 -169 105.5 -184Q88 -199 63.5 -205Q39 -211 8 -211Q-47 -211 -84 -187L-61 -100Q-47 -111 -35 -115.5Q-23 -120 -11 -120Q8 -120 18 -110.5Q28 -101 32 -77L111 369H41L58 462H127L135 508Q149 594 192.5 631Q236 668 301 668Q333 668 355 662Q377 656 403 641L364 542Q351 556 340 562Q329 568 313 568Q289 568 276.5 554Q264 540 257 510L248 462H410L419 506Q438 598 489.5 637Q541 676 615 676Q653 676 686.5 667.5Q720 659 748 642L709 542Q692 556 671.5 566.5Q651 577 622 577Q588 577 567.5 559Q547 541 538 498L531 462H815Z" glyph-name="ffi" horiz-adv-x="861" unicode="&#58250;" /><glyph d="M437 -71Q430 -107 418.5 -131.5Q407 -156 389.5 -171Q372 -186 348 -192Q324 -198 293 -198Q237 -198 201 -174L224 -87Q238 -98 249.5 -102.5Q261 -107 274 -107Q293 -107 302.5 -97.5Q312 -88 317 -64L394 369H231L152 -84Q146 -120 134.5 -144.5Q123 -169 105.5 -184Q88 -199 63.5 -205Q39 -211 8 -211Q-47 -211 -84 -187L-61 -100Q-47 -111 -35 -115.5Q-23 -120 -11 -120Q8 -120 18 -110.5Q28 -101 32 -77L111 369H41L58 462H127L135 508Q149 594 192.5 631Q236 668 301 668Q333 668 355 662Q377 656 403 641L364 542Q351 556 340 562Q329 568 313 568Q289 568 276.5 554Q264 540 257 510L248 462H410L419 507Q428 553 447.5 585.5Q467 618 494 638Q521 658 553.5 667Q586 676 621 676Q653 676 682.5 670Q712 664 734 653L851 668L757 134Q754 117 758 104Q762 91 785 91Q791 91 798 92.5Q805 94 814 96L796 6Q763 -5 729 -5Q669 -5 645.5 26Q622 57 633 116L712 564Q676 586 634 586Q598 586 572.5 567.5Q547 549 539 504L531 462H619L603 369H515Z" glyph-name="ffl" horiz-adv-x="861" unicode="&#58251;" /><glyph d="M474 134Q471 117 475 104Q479 91 501 91Q508 91 515 92.5Q522 94 531 96L512 6Q481 -5 446 -5Q386 -5 362.5 26Q339 57 349 116L393 369H231L152 -84Q146 -120 134.5 -144.5Q123 -169 105.5 -184Q88 -199 63.5 -205Q39 -211 8 -211Q-47 -211 -84 -187L-61 -100Q-47 -111 -35 -115.5Q-23 -120 -11 -120Q8 -120 18 -110.5Q28 -101 32 -77L111 369H41L58 462H127L136 506Q155 598 206.5 637Q258 676 332 676Q370 676 403.5 667.5Q437 659 465 642L426 542Q409 556 388 566.5Q367 577 339 577Q304 577 283.5 559Q263 541 255 498L248 462H531Z" glyph-name="fi" horiz-adv-x="578" unicode="&#58252;" /><glyph d="M155 589H484L466 483H239L208 347Q236 369 287 369Q323 369 350 357Q377 345 396 323.5Q415 302 424 273Q433 244 433 210Q433 153 414 111.5Q395 70 361.5 42.5Q328 15 283 1.5Q238 -12 187 -12Q101 -12 50.5 25Q0 62 0 128L108 166Q110 119 136 100.5Q162 82 200 82Q223 82 243.5 89Q264 96 279.5 110Q295 124 304 146Q313 168 313 197Q313 240 290 264Q267 288 231 288Q210 288 196.5 282Q183 276 172 266H86Z" glyph-name="five" horiz-adv-x="481" unicode="5" /><glyph d="M152 -84Q146 -120 134.5 -144.5Q123 -169 105.5 -184Q88 -199 63.5 -205Q39 -211 8 -211Q-47 -211 -84 -187L-61 -100Q-47 -111 -35 -115.5Q-23 -120 -11 -120Q8 -120 18 -110.5Q28 -101 32 -77L111 369H41L58 462H127L135 507Q144 553 163.5 585.5Q183 618 210 638Q237 658 269.5 667Q302 676 337 676Q369 676 399 670Q429 664 451 653L568 668L474 134Q471 117 475 104Q479 91 501 91Q508 91 515 92.5Q522 94 531 96L512 6Q481 -5 446 -5Q386 -5 362.5 26Q339 57 349 116L428 564Q393 586 350 586Q315 586 289.5 567.5Q264 549 255 504L248 462H336L319 369H231Z" glyph-name="fl" horiz-adv-x="578" unicode="&#58253;" /><glyph d="M106 255H39L63 348H131L158 437Q171 483 192.5 514Q214 545 240.5 564.5Q267 584 298 592.5Q329 601 362 601Q399 601 436.5 587Q474 573 497 541L418 451Q407 474 391.5 486Q376 498 351 498Q321 498 304.5 480Q288 462 277 427L252 348H369L346 255H227L151 0H31Z" glyph-name="florin" horiz-adv-x="445" unicode="&#402;" /><glyph d="M289 140H4L18 220L374 589H489L426 231H523L507 140H411L386 0H264ZM305 231 326 350Q329 370 333 388.5Q337 407 341 421Q345 437 349 451H345Q338 441 329 430Q321 420 310.5 407Q300 394 286 379L204 290Q177 262 157 245Q146 236 137 231V227Q143 228 154 229Q162 230 175.5 230.5Q189 231 207 231Z" glyph-name="four" horiz-adv-x="549" unicode="4" /><glyph d="M183 -128H7L18 -65L233 150H322L285 -62H337L325 -128H273L260 -203H170ZM209 7Q211 21 214.5 33.5Q218 46 220 56Q223 67 226 78H222Q218 71 212 62Q207 54 199.5 45Q192 36 182 25L139 -19Q128 -30 118 -38.5Q108 -47 100 -53Q90 -60 83 -65V-69Q89 -68 98 -67Q106 -66 116 -65Q126 -64 140 -64H197Z" glyph-name="four.inf" horiz-adv-x="364" unicode="&#58741;" /><glyph d="M245 589H324L-87 0H-164Z" glyph-name="fraction" horiz-adv-x="160" unicode="&#8260;" /><glyph d="M354 270Q358 291 356.5 311Q355 331 347 347Q339 363 324 372.5Q309 382 286 382Q256 382 232.5 367Q209 352 193 325.5Q177 299 168.5 264.5Q160 230 160 191Q160 146 178 116Q196 86 235 86Q278 86 304.5 114.5Q331 143 341 197ZM426 -5Q407 -111 346 -161Q285 -211 172 -211Q87 -211 36.5 -181.5Q-14 -152 -31 -95L63 -36Q70 -73 100.5 -96.5Q131 -120 175 -120Q236 -120 266 -86Q296 -52 307 6L322 81Q304 33 269 13.5Q234 -6 190 -6Q117 -6 76 44.5Q35 95 35 183Q35 242 50.5 295Q66 348 94.5 387.5Q123 427 164.5 450Q206 473 259 473Q306 473 337.5 452.5Q369 432 374 385L401 462H508Z" glyph-name="g" horiz-adv-x="526" unicode="g" /><glyph d="M354 270Q358 291 356.5 311Q355 331 347 347Q339 363 324 372.5Q309 382 286 382Q256 382 232.5 367Q209 352 193 325.5Q177 299 168.5 264.5Q160 230 160 191Q160 146 178 116Q196 86 235 86Q278 86 304.5 114.5Q331 143 341 197ZM426 -5Q407 -111 346 -161Q285 -211 172 -211Q87 -211 36.5 -181.5Q-14 -152 -31 -95L63 -36Q70 -73 100.5 -96.5Q131 -120 175 -120Q236 -120 266 -86Q296 -52 307 6L322 81Q304 33 269 13.5Q234 -6 190 -6Q117 -6 76 44.5Q35 95 35 183Q35 242 50.5 295Q66 348 94.5 387.5Q123 427 164.5 450Q206 473 259 473Q306 473 337.5 452.5Q369 432 374 385L401 462H508ZM298 522Q261 522 235.5 533.5Q210 545 196 565.5Q182 586 178 614Q174 642 180 675H270Q265 645 272 627Q279 609 313 609Q347 609 360.5 627Q374 645 381 675H471Q465 642 451.5 614Q438 586 416 565.5Q394 545 364.5 533.5Q335 522 298 522Z" glyph-name="gbreve" horiz-adv-x="526" unicode="&#287;" /><glyph d="M354 270Q358 291 356.5 311Q355 331 347 347Q339 363 324 372.5Q309 382 286 382Q256 382 232.5 367Q209 352 193 325.5Q177 299 168.5 264.5Q160 230 160 191Q160 146 178 116Q196 86 235 86Q278 86 304.5 114.5Q331 143 341 197ZM426 -5Q407 -111 346 -161Q285 -211 172 -211Q87 -211 36.5 -181.5Q-14 -152 -31 -95L63 -36Q70 -73 100.5 -96.5Q131 -120 175 -120Q236 -120 266 -86Q296 -52 307 6L322 81Q304 33 269 13.5Q234 -6 190 -6Q117 -6 76 44.5Q35 95 35 183Q35 242 50.5 295Q66 348 94.5 387.5Q123 427 164.5 450Q206 473 259 473Q306 473 337.5 452.5Q369 432 374 385L401 462H508ZM360 680 465 525H355L329 562Q323 570 320.5 576.5Q318 583 316 588Q314 593 314 597H309Q308 593 304 588Q301 583 295.5 576.5Q290 570 282 562L243 525H128L286 680Z" glyph-name="gcircumflex" horiz-adv-x="526" unicode="&#285;" /><glyph d="M354 270Q358 291 356.5 311Q355 331 347 347Q339 363 324 372.5Q309 382 286 382Q256 382 232.5 367Q209 352 193 325.5Q177 299 168.5 264.5Q160 230 160 191Q160 146 178 116Q196 86 235 86Q278 86 304.5 114.5Q331 143 341 197ZM426 -5Q407 -111 346 -161Q285 -211 172 -211Q87 -211 36.5 -181.5Q-14 -152 -31 -95L63 -36Q70 -73 100.5 -96.5Q131 -120 175 -120Q236 -120 266 -86Q296 -52 307 6L322 81Q304 33 269 13.5Q234 -6 190 -6Q117 -6 76 44.5Q35 95 35 183Q35 242 50.5 295Q66 348 94.5 387.5Q123 427 164.5 450Q206 473 259 473Q306 473 337.5 452.5Q369 432 374 385L401 462H508ZM248 606Q248 665 290.5 693.5Q333 722 397 722V680Q365 678 342.5 670.5Q320 663 320 640Q347 645 366.5 631Q386 617 386 587Q386 557 367 541.5Q348 526 321 526Q289 526 268.5 547Q248 568 248 606Z" glyph-name="gcommaaccent" horiz-adv-x="526" unicode="&#291;" /><glyph d="M354 270Q358 291 356.5 311Q355 331 347 347Q339 363 324 372.5Q309 382 286 382Q256 382 232.5 367Q209 352 193 325.5Q177 299 168.5 264.5Q160 230 160 191Q160 146 178 116Q196 86 235 86Q278 86 304.5 114.5Q331 143 341 197ZM426 -5Q407 -111 346 -161Q285 -211 172 -211Q87 -211 36.5 -181.5Q-14 -152 -31 -95L63 -36Q70 -73 100.5 -96.5Q131 -120 175 -120Q236 -120 266 -86Q296 -52 307 6L322 81Q304 33 269 13.5Q234 -6 190 -6Q117 -6 76 44.5Q35 95 35 183Q35 242 50.5 295Q66 348 94.5 387.5Q123 427 164.5 450Q206 473 259 473Q306 473 337.5 452.5Q369 432 374 385L401 462H508ZM237 602Q237 636 259 655Q281 674 311 674Q344 674 366 655Q388 636 388 602Q388 569 366 550Q344 531 311 531Q281 531 259 550Q237 569 237 602Z" glyph-name="gdotaccent" horiz-adv-x="526" unicode="&#289;" /><glyph d="M102 429Q114 499 140 546.5Q166 594 202 623Q238 652 281 664Q324 676 370 676Q416 676 449 664.5Q482 653 503.5 633Q525 613 535 587Q545 561 545 532Q545 494 533.5 466.5Q522 439 503 420Q484 401 458.5 389.5Q433 378 405 374V370Q470 362 500 319Q530 276 530 217Q530 159 513.5 116Q497 73 468 44.5Q439 16 399 2Q359 -12 313 -12Q268 -12 236 2.5Q204 17 187 48L236 133Q248 106 268 94Q288 82 315 82Q333 82 350 88.5Q367 95 380.5 110.5Q394 126 402 151Q410 176 410 213Q410 260 385.5 290.5Q361 321 303 321H254L271 416H324Q370 416 399.5 437.5Q429 459 429 509Q429 539 413 559.5Q397 580 353 580Q304 580 271 546.5Q238 513 224 431L134 -84Q127 -120 115.5 -144.5Q104 -169 86.5 -184Q69 -199 44.5 -205Q20 -211 -11 -211Q-66 -211 -103 -187L-80 -100Q-66 -111 -54 -115.5Q-42 -120 -30 -120Q-11 -120 -1 -110.5Q9 -101 13 -77Z" glyph-name="germandbls" horiz-adv-x="565" unicode="&#223;" /><glyph d="M196 527 80 678H232L304 527Z" glyph-name="grave" horiz-adv-x="384" unicode="`" /><glyph d="M187 649 80 785H232L296 649Z" glyph-name="grave.cap" horiz-adv-x="376" unicode="&#58401;" /><glyph d="M257 252 101 403 158 459 370 244 80 32 36 93Z" glyph-name="greater" horiz-adv-x="418" unicode="&gt;" /><glyph d="M24 20 36 87H369L358 20ZM277 297 128 418 186 478 413 293 118 111 77 178Z" glyph-name="greaterequal" horiz-adv-x="459" unicode="&#8805;" /><glyph d="M349 231Q354 228 360 223Q369 215 391 187L470 80L398 23L241 235L473 448L527 388L410 278Q396 265 385 257Q374 249 366 244Q356 238 349 235ZM134 231Q139 228 145 223Q154 215 176 187L256 80L184 23L27 235L259 448L312 388L196 278Q182 265 170.5 257Q159 249 151 244Q141 238 134 235Z" glyph-name="guillemotleft" horiz-adv-x="554" unicode="&#171;" /><glyph d="M205 239Q200 242 194 248Q189 253 181 261.5Q173 270 163 284L84 391L156 448L312 235L81 23L27 83L143 193Q169 216 187 226Q197 231 205 235ZM420 239Q415 242 409 248Q404 253 396 261.5Q388 270 378 284L298 391L370 448L527 235L295 23L241 83L358 193Q371 205 382.5 213Q394 221 402 226Q412 231 420 235Z" glyph-name="guillemotright" horiz-adv-x="554" unicode="&#187;" /><glyph d="M134 231Q139 228 145 223Q154 215 176 187L256 80L184 23L27 235L259 448L312 388L196 278Q182 265 170.5 257Q159 249 151 244Q141 238 134 235Z" glyph-name="guilsinglleft" horiz-adv-x="339" unicode="&#8249;" /><glyph d="M205 239Q200 242 194 248Q189 253 181 261.5Q173 270 163 284L84 391L156 448L312 235L81 23L27 83L143 193Q169 216 187 226Q197 231 205 235Z" glyph-name="guilsinglright" horiz-adv-x="339" unicode="&#8250;" /><glyph d="M451 134Q448 117 452 104Q456 91 478 91Q485 91 492 92.5Q499 94 508 96L490 6Q457 -5 423 -5Q363 -5 339.5 26Q316 57 327 116L358 292Q364 327 353 350.5Q342 374 304 374Q272 374 241.5 345.5Q211 317 198 248L155 0H34L151 668H273L220 368Q243 419 277 446Q311 473 367 473Q421 473 453 443Q485 413 485 359Q485 348 484.5 338.5Q484 329 482 317Z" glyph-name="h" horiz-adv-x="547" unicode="h" /><glyph d="M64 598H138L151 668H273L260 598H395L381 522H247L220 368Q243 419 277 446Q311 473 367 473Q421 473 453 443Q485 413 485 359Q485 348 484.5 338.5Q484 329 482 317L451 134Q448 117 452 104Q456 91 478 91Q485 91 492 92.5Q499 94 508 96L490 6Q457 -5 423 -5Q363 -5 339.5 26Q316 57 327 116L358 292Q364 327 353 350.5Q342 374 304 374Q272 374 241.5 345.5Q211 317 198 248L155 0H34L125 522H50Z" glyph-name="hbar" horiz-adv-x="547" unicode="&#295;" /><glyph d="M451 134Q448 117 452 104Q456 91 478 91Q485 91 492 92.5Q499 94 508 96L490 6Q457 -5 423 -5Q363 -5 339.5 26Q316 57 327 116L358 292Q364 327 353 350.5Q342 374 304 374Q272 374 241.5 345.5Q211 317 198 248L155 0H34L151 668H273L220 368Q243 419 277 446Q311 473 367 473Q421 473 453 443Q485 413 485 359Q485 348 484.5 338.5Q484 329 482 317ZM281 837 387 697H274L249 729Q239 742 236 751Q234 755 234 760H230Q229 755 225 751Q220 743 204 729L167 697H49L205 837Z" glyph-name="hcircumflex" horiz-adv-x="547" unicode="&#293;" /><glyph d="M80 527 135 678H266L166 527ZM239 527 311 678H448L332 527Z" glyph-name="hungarumlaut" horiz-adv-x="528" unicode="&#733;" /><glyph d="M80 649 135 785H266L166 649ZM239 649 311 785H448L332 649Z" glyph-name="hungarumlaut.cap" horiz-adv-x="528" unicode="&#58411;" /><glyph d="M82 308H324L306 208H64Z" glyph-name="hyphen" horiz-adv-x="388" unicode="-" /><glyph d="M169 134Q166 117 170 104Q174 91 196 91Q203 91 210 92.5Q217 94 226 96L208 6Q175 -5 141 -5Q81 -5 57.5 26Q34 57 45 116L106 462H227ZM112 605Q112 640 134 658.5Q156 677 186 677Q219 677 241 658.5Q263 640 263 605Q263 572 241 553.5Q219 535 186 535Q156 535 134 553.5Q112 572 112 605Z" glyph-name="i" horiz-adv-x="273" unicode="i" /><glyph d="M169 134Q166 117 170 104Q174 91 196 91Q203 91 210 92.5Q217 94 226 96L208 6Q175 -5 141 -5Q81 -5 57.5 26Q34 57 45 116L106 462H227ZM116 527 187 678H340L224 527Z" glyph-name="iacute" horiz-adv-x="273" unicode="&#237;" /><glyph d="M169 134Q166 117 170 104Q174 91 196 91Q203 91 210 92.5Q217 94 226 96L208 6Q175 -5 141 -5Q81 -5 57.5 26Q34 57 45 116L106 462H227ZM171 522Q134 522 108.5 533.5Q83 545 69 565.5Q55 586 51 614Q47 642 53 675H143Q138 645 145 627Q152 609 186 609Q220 609 233.5 627Q247 645 254 675H344Q338 642 324.5 614Q311 586 289 565.5Q267 545 237.5 533.5Q208 522 171 522Z" glyph-name="ibreve" horiz-adv-x="273" unicode="&#301;" /><glyph d="M169 134Q166 117 170 104Q174 91 196 91Q203 91 210 92.5Q217 94 226 96L208 6Q175 -5 141 -5Q81 -5 57.5 26Q34 57 45 116L106 462H227ZM235 680 340 525H230L204 562Q198 570 195.5 576.5Q193 583 191 588Q189 593 189 597H184Q183 593 179 588Q176 583 170.5 576.5Q165 570 157 562L118 525H3L161 680Z" glyph-name="icircumflex" horiz-adv-x="273" unicode="&#238;" /><glyph d="M169 134Q166 117 170 104Q174 91 196 91Q203 91 210 92.5Q217 94 226 96L208 6Q175 -5 141 -5Q81 -5 57.5 26Q34 57 45 116L106 462H227ZM10 596Q10 630 30.5 648Q51 666 79 666Q109 666 129.5 648Q150 630 150 596Q150 563 129.5 544.5Q109 526 79 526Q51 526 30.5 544.5Q10 563 10 596ZM221 595Q221 629 241 647Q261 665 290 665Q320 665 340 647Q360 629 360 595Q360 563 340 544.5Q320 526 290 526Q261 526 241 544.5Q221 563 221 595Z" glyph-name="idieresis" horiz-adv-x="273" unicode="&#239;" /><glyph d="M169 134Q166 117 170 104Q174 91 196 91Q203 91 210 92.5Q217 94 226 96L208 6Q175 -5 141 -5Q81 -5 57.5 26Q34 57 45 116L106 462H227ZM111 602Q111 636 133 655Q155 674 185 674Q218 674 240 655Q262 636 262 602Q262 569 240 550Q218 531 185 531Q155 531 133 550Q111 569 111 602Z" glyph-name="idotaccent" horiz-adv-x="273" /><glyph d="M169 134Q166 117 170 104Q174 91 196 91Q203 91 210 92.5Q217 94 226 96L208 6Q175 -5 141 -5Q81 -5 57.5 26Q34 57 45 116L106 462H227ZM129 527 13 678H165L237 527Z" glyph-name="igrave" horiz-adv-x="273" unicode="&#236;" /><glyph d="M169 134Q166 117 170 104Q174 91 196 91Q203 91 210 92.5Q217 94 226 96L208 6Q175 -5 141 -5Q81 -5 57.5 26Q34 57 45 116L106 462H227ZM37 545 55 642H338L320 545Z" glyph-name="imacron" horiz-adv-x="273" unicode="&#299;" /><glyph d="M-12 -109Q-12 -67 9.5 -34Q31 -1 65 17Q32 49 45 116L106 462H227L169 134Q166 117 170 104Q174 91 196 91Q203 91 210 92.5Q217 94 226 96L208 6Q185 3 163 -3.5Q141 -10 123.5 -21Q106 -32 95.5 -49Q85 -66 85 -91Q85 -111 96 -122Q107 -133 125 -133Q145 -133 158.5 -125Q172 -117 186 -100L215 -160Q195 -185 167 -198Q139 -211 101 -211Q51 -211 19.5 -186.5Q-12 -162 -12 -109ZM112 605Q112 640 134 658.5Q156 677 186 677Q219 677 241 658.5Q263 640 263 605Q263 572 241 553.5Q219 535 186 535Q156 535 134 553.5Q112 572 112 605Z" glyph-name="iogonek" horiz-adv-x="273" unicode="&#303;" /><glyph d="M169 134Q166 117 170 104Q174 91 196 91Q203 91 210 92.5Q217 94 226 96L208 6Q175 -5 141 -5Q81 -5 57.5 26Q34 57 45 116L106 462H227ZM252 524Q223 524 207.5 531Q192 538 175 549Q156 561 145.5 567.5Q135 574 121 574Q106 574 95 561.5Q84 549 82 523H14Q7 555 12.5 581.5Q18 608 33 627.5Q48 647 70 658Q92 669 118 669Q145 669 160.5 661.5Q176 654 190 644Q210 631 221 624.5Q232 618 246 618Q260 618 269.5 629Q279 640 281 667H352Q366 603 337.5 563.5Q309 524 252 524Z" glyph-name="itilde" horiz-adv-x="273" unicode="&#297;" /><glyph d="M134 -63Q127 -105 112 -133.5Q97 -162 75 -179.5Q53 -197 24 -204Q-5 -211 -40 -211Q-74 -211 -102 -203Q-130 -195 -149 -184L-115 -94Q-100 -106 -84.5 -113Q-69 -120 -48 -120Q-23 -120 -7.5 -105Q8 -90 16 -46L106 462H227ZM112 605Q112 640 134 658.5Q156 677 186 677Q219 677 241 658.5Q263 640 263 605Q263 572 241 553.5Q219 535 186 535Q156 535 134 553.5Q112 572 112 605Z" glyph-name="j" horiz-adv-x="243" unicode="j" /><glyph d="M134 -63Q127 -105 112 -133.5Q97 -162 75 -179.5Q53 -197 24 -204Q-5 -211 -40 -211Q-74 -211 -102 -203Q-130 -195 -149 -184L-115 -94Q-100 -106 -84.5 -113Q-69 -120 -48 -120Q-23 -120 -7.5 -105Q8 -90 16 -46L106 462H227ZM236 680 341 525H231L205 562Q199 570 196.5 576.5Q194 583 192 588Q190 593 190 597H185Q184 593 180 588Q177 583 171.5 576.5Q166 570 158 562L119 525H4L162 680Z" glyph-name="jcircumflex" horiz-adv-x="243" unicode="&#309;" /><glyph d="M221 206H191L155 0H34L151 668H273L207 297H230L381 462H527L326 252L390 124Q404 97 422 93Q440 89 472 98L454 5Q439 0 423.5 -2.5Q408 -5 387 -5Q355 -5 330.5 8.5Q306 22 289 60Z" glyph-name="k" horiz-adv-x="503" unicode="k" /><glyph d="M221 206H191L155 0H34L151 668H273L207 297H230L381 462H527L326 252L390 124Q404 97 422 93Q440 89 472 98L454 5Q439 0 423.5 -2.5Q408 -5 387 -5Q355 -5 330.5 8.5Q306 22 289 60ZM276 -137Q276 -196 233.5 -224.5Q191 -253 127 -253V-210Q159 -209 181.5 -201Q204 -193 204 -171Q177 -176 157.5 -162Q138 -148 138 -118Q138 -88 157 -72.5Q176 -57 203 -57Q235 -57 255.5 -77.5Q276 -98 276 -137Z" glyph-name="kcommaaccent" horiz-adv-x="503" unicode="&#311;" /><glyph d="M221 206H191L155 0H34L115 462H237L207 297H230L381 462H527L326 252L390 124Q404 97 422 93Q440 89 472 98L454 5Q439 0 423.5 -2.5Q408 -5 387 -5Q355 -5 330.5 8.5Q306 22 289 60Z" glyph-name="kgreenlandic" horiz-adv-x="503" unicode="&#312;" /><glyph d="M169 134Q166 117 170 104Q174 91 196 91Q203 91 210 92.5Q217 94 226 96L208 6Q175 -5 141 -5Q81 -5 57.5 26Q34 57 45 116L142 668H263Z" glyph-name="l" horiz-adv-x="273" unicode="l" /><glyph d="M169 134Q166 117 170 104Q174 91 196 91Q203 91 210 92.5Q217 94 226 96L208 6Q175 -5 141 -5Q81 -5 57.5 26Q34 57 45 116L142 668H263ZM151 696 215 832H367L260 696Z" glyph-name="lacute" horiz-adv-x="273" unicode="&#314;" /><glyph d="M391 509H306L321 686H447ZM169 134Q166 117 170 104Q174 91 196 91Q203 91 210 92.5Q217 94 226 96L208 6Q175 -5 141 -5Q81 -5 57.5 26Q34 57 45 116L142 668H263Z" glyph-name="lcaron" horiz-adv-x="273" unicode="&#318;" /><glyph d="M169 134Q166 117 170 104Q174 91 196 91Q203 91 210 92.5Q217 94 226 96L208 6Q175 -5 141 -5Q81 -5 57.5 26Q34 57 45 116L142 668H263ZM168 -137Q168 -196 125.5 -224.5Q83 -253 19 -253V-210Q51 -209 73.5 -201Q96 -193 96 -171Q69 -176 49.5 -162Q30 -148 30 -118Q30 -88 49 -72.5Q68 -57 95 -57Q127 -57 147.5 -77.5Q168 -98 168 -137Z" glyph-name="lcommaaccent" horiz-adv-x="273" unicode="&#316;" /><glyph d="M169 134Q166 117 170 104Q174 91 196 91Q203 91 210 92.5Q217 94 226 96L208 6Q175 -5 141 -5Q81 -5 57.5 26Q34 57 45 116L142 668H263ZM256 323Q256 358 279 381Q302 404 335 404Q370 404 393 381Q416 358 416 323Q416 290 393 267Q370 244 335 244Q302 244 279 267Q256 290 256 323Z" glyph-name="ldot" horiz-adv-x="390" unicode="&#320;" /><glyph d="M167 239 324 88 266 32 54 247 345 459 388 398Z" glyph-name="less" horiz-adv-x="418" unicode="&lt;" /><glyph d="M213 292 362 171 304 111 77 296 373 478 413 411ZM24 20 36 87H369L358 20Z" glyph-name="lessequal" horiz-adv-x="459" unicode="&#8804;" /><glyph d="M225 431 309 469 293 379 209 340 173 134Q170 117 174 104Q178 91 200 91Q207 91 214 92.5Q221 94 230 96L211 6Q180 -5 145 -5Q85 -5 61.5 26Q38 57 48 116L77 280L9 249L25 339L93 370L146 668H267Z" glyph-name="lslash" horiz-adv-x="283" unicode="&#322;" /><glyph d="M295 0 346 292Q352 327 341.5 350.5Q331 374 296 374Q264 374 237.5 345.5Q211 317 198 248L155 0H34L115 462H221L219 368Q241 420 272 446.5Q303 473 359 473Q413 473 443 444.5Q473 416 473 362Q493 418 528 445.5Q563 473 619 473Q673 473 703.5 443Q734 413 734 359Q734 348 733.5 338.5Q733 329 731 317L700 134Q697 117 701 104Q705 91 727 91Q734 91 741 92.5Q748 94 757 96L738 6Q707 -5 672 -5Q612 -5 588.5 26Q565 57 575 116L606 292Q613 327 602.5 350.5Q592 374 557 374Q525 374 497.5 345.5Q470 317 459 248L417 0Z" glyph-name="m" horiz-adv-x="796" unicode="m" /><glyph d="M80 545 98 642H381L363 545Z" glyph-name="macron" horiz-adv-x="461" unicode="&#175;" /><glyph d="M80 667 97 763H385L369 667Z" glyph-name="macron.cap" horiz-adv-x="465" unicode="&#58405;" /><glyph d="M40 214 52 282H460L448 214Z" glyph-name="minus" horiz-adv-x="500" unicode="&#8722;" /><glyph d="M191 251 90 377 145 425 248 299 406 433 451 379 293 244 404 111 348 64 237 197 82 65 37 119Z" glyph-name="multiply" horiz-adv-x="488" unicode="&#215;" /><glyph d="M451 134Q448 117 452 104Q456 91 478 91Q485 91 492 92.5Q499 94 508 96L490 6Q457 -5 423 -5Q363 -5 339.5 26Q316 57 327 116L358 292Q364 327 353 350.5Q342 374 304 374Q272 374 241.5 345.5Q211 317 198 248L155 0H34L115 462H221L219 368Q242 419 276.5 446Q311 473 367 473Q421 473 453 443Q485 413 485 359Q485 348 484.5 338.5Q484 329 482 317Z" glyph-name="n" horiz-adv-x="547" unicode="n" /><glyph d="M451 134Q448 117 452 104Q456 91 478 91Q485 91 492 92.5Q499 94 508 96L490 6Q457 -5 423 -5Q363 -5 339.5 26Q316 57 327 116L358 292Q364 327 353 350.5Q342 374 304 374Q272 374 241.5 345.5Q211 317 198 248L155 0H34L115 462H221L219 368Q242 419 276.5 446Q311 473 367 473Q421 473 453 443Q485 413 485 359Q485 348 484.5 338.5Q484 329 482 317ZM256 527 327 678H480L364 527Z" glyph-name="nacute" horiz-adv-x="547" unicode="&#324;" /><glyph d="M451 134Q448 117 452 104Q456 91 478 91Q485 91 492 92.5Q499 94 508 96L490 6Q457 -5 423 -5Q363 -5 339.5 26Q316 57 327 116L358 292Q364 327 353 350.5Q342 374 304 374Q272 374 241.5 345.5Q211 317 198 248L155 0H34L115 462H221L219 368Q242 419 276.5 446Q311 473 367 473Q421 473 453 443Q485 413 485 359Q485 348 484.5 338.5Q484 329 482 317ZM274 525 169 680H279L305 643Q315 628 318 618Q320 613 320 609H325Q326 613 330 618Q333 623 338 629Q343 635 352 643L391 680H506L348 525Z" glyph-name="ncaron" horiz-adv-x="547" unicode="&#328;" /><glyph d="M451 134Q448 117 452 104Q456 91 478 91Q485 91 492 92.5Q499 94 508 96L490 6Q457 -5 423 -5Q363 -5 339.5 26Q316 57 327 116L358 292Q364 327 353 350.5Q342 374 304 374Q272 374 241.5 345.5Q211 317 198 248L155 0H34L115 462H221L219 368Q242 419 276.5 446Q311 473 367 473Q421 473 453 443Q485 413 485 359Q485 348 484.5 338.5Q484 329 482 317ZM276 -137Q276 -196 233.5 -224.5Q191 -253 127 -253V-210Q159 -209 181.5 -201Q204 -193 204 -171Q177 -176 157.5 -162Q138 -148 138 -118Q138 -88 157 -72.5Q176 -57 203 -57Q235 -57 255.5 -77.5Q276 -98 276 -137Z" glyph-name="ncommaaccent" horiz-adv-x="547" unicode="&#326;" /><glyph d="M91 161Q102 126 132 104Q162 82 201 82Q277 82 322.5 142Q368 202 379 319H375Q360 265 322.5 240Q285 215 232 215Q152 215 105 261Q58 307 58 385Q58 433 73 472.5Q88 512 117.5 540.5Q147 569 189 585Q231 601 285 601Q387 601 439.5 538Q492 475 492 360Q492 278 473 210Q454 142 417.5 92.5Q381 43 326.5 15.5Q272 -12 202 -12Q129 -12 80.5 15Q32 42 12 93ZM261 306Q283 306 302.5 313.5Q322 321 337 335.5Q352 350 360.5 371.5Q369 393 369 420Q369 460 346.5 483.5Q324 507 283 507Q237 507 205 477.5Q173 448 173 393Q173 351 196 328.5Q219 306 261 306Z" glyph-name="nine" horiz-adv-x="529" unicode="9" /><glyph glyph-name="nonmarkingreturn" horiz-adv-x="223" unicode="" /><glyph d="M347 284 277 208H460L448 141H214L100 20L54 60L130 141H40L52 208H192L263 284H65L77 351H325L429 462L477 422L409 351H485L473 284Z" glyph-name="notequal" horiz-adv-x="525" unicode="&#8800;" /><glyph d="M451 134Q448 117 452 104Q456 91 478 91Q485 91 492 92.5Q499 94 508 96L490 6Q457 -5 423 -5Q363 -5 339.5 26Q316 57 327 116L358 292Q364 327 353 350.5Q342 374 304 374Q272 374 241.5 345.5Q211 317 198 248L155 0H34L115 462H221L219 368Q242 419 276.5 446Q311 473 367 473Q421 473 453 443Q485 413 485 359Q485 348 484.5 338.5Q484 329 482 317ZM391 524Q362 524 346.5 531Q331 538 314 549Q295 561 284.5 567.5Q274 574 260 574Q245 574 234 561.5Q223 549 221 523H153Q146 555 151.5 581.5Q157 608 172 627.5Q187 647 209 658Q231 669 257 669Q284 669 299.5 661.5Q315 654 329 644Q349 631 360 624.5Q371 618 385 618Q399 618 408.5 629Q418 640 420 667H491Q505 603 476.5 563.5Q448 524 391 524Z" glyph-name="ntilde" horiz-adv-x="547" unicode="&#241;" /><glyph d="M420 177 334 0H235L320 177H228L142 0H43L128 177H28L43 260H169L209 344H77L92 427H250L327 588H428L350 427H441L519 588H620L542 427H645L630 344H501L460 260H596L581 177ZM268 260H360L401 344H309Z" glyph-name="numbersign" horiz-adv-x="648" unicode="#" /><glyph d="M287 473Q380 473 432.5 420Q485 367 485 271Q485 215 469 163.5Q453 112 421.5 73Q390 34 343 11Q296 -12 234 -12Q191 -12 154.5 0.5Q118 13 91 37.5Q64 62 49 99Q34 136 34 184Q34 241 50 293.5Q66 346 97.5 386Q129 426 176.5 449.5Q224 473 287 473ZM276 377Q249 377 227.5 362Q206 347 191 321.5Q176 296 168 261.5Q160 227 160 188Q160 134 182 107Q204 80 242 80Q269 80 290.5 95Q312 110 327 136Q342 162 350 197Q358 232 358 271Q358 322 336.5 349.5Q315 377 276 377Z" glyph-name="o" horiz-adv-x="519" unicode="o" /><glyph d="M287 473Q380 473 432.5 420Q485 367 485 271Q485 215 469 163.5Q453 112 421.5 73Q390 34 343 11Q296 -12 234 -12Q191 -12 154.5 0.5Q118 13 91 37.5Q64 62 49 99Q34 136 34 184Q34 241 50 293.5Q66 346 97.5 386Q129 426 176.5 449.5Q224 473 287 473ZM276 377Q249 377 227.5 362Q206 347 191 321.5Q176 296 168 261.5Q160 227 160 188Q160 134 182 107Q204 80 242 80Q269 80 290.5 95Q312 110 327 136Q342 162 350 197Q358 232 358 271Q358 322 336.5 349.5Q315 377 276 377ZM236 527 307 678H460L344 527Z" glyph-name="oacute" horiz-adv-x="519" unicode="&#243;" /><glyph d="M287 473Q380 473 432.5 420Q485 367 485 271Q485 215 469 163.5Q453 112 421.5 73Q390 34 343 11Q296 -12 234 -12Q191 -12 154.5 0.5Q118 13 91 37.5Q64 62 49 99Q34 136 34 184Q34 241 50 293.5Q66 346 97.5 386Q129 426 176.5 449.5Q224 473 287 473ZM276 377Q249 377 227.5 362Q206 347 191 321.5Q176 296 168 261.5Q160 227 160 188Q160 134 182 107Q204 80 242 80Q269 80 290.5 95Q312 110 327 136Q342 162 350 197Q358 232 358 271Q358 322 336.5 349.5Q315 377 276 377ZM290 522Q253 522 227.5 533.5Q202 545 188 565.5Q174 586 170 614Q166 642 172 675H262Q257 645 264 627Q271 609 305 609Q339 609 352.5 627Q366 645 373 675H463Q457 642 443.5 614Q430 586 408 565.5Q386 545 356.5 533.5Q327 522 290 522Z" glyph-name="obreve" horiz-adv-x="519" unicode="&#335;" /><glyph d="M287 473Q380 473 432.5 420Q485 367 485 271Q485 215 469 163.5Q453 112 421.5 73Q390 34 343 11Q296 -12 234 -12Q191 -12 154.5 0.5Q118 13 91 37.5Q64 62 49 99Q34 136 34 184Q34 241 50 293.5Q66 346 97.5 386Q129 426 176.5 449.5Q224 473 287 473ZM276 377Q249 377 227.5 362Q206 347 191 321.5Q176 296 168 261.5Q160 227 160 188Q160 134 182 107Q204 80 242 80Q269 80 290.5 95Q312 110 327 136Q342 162 350 197Q358 232 358 271Q358 322 336.5 349.5Q315 377 276 377ZM354 680 459 525H349L323 562Q317 570 314.5 576.5Q312 583 310 588Q308 593 308 597H303Q302 593 298 588Q295 583 289.5 576.5Q284 570 276 562L237 525H122L280 680Z" glyph-name="ocircumflex" horiz-adv-x="519" unicode="&#244;" /><glyph d="M287 473Q380 473 432.5 420Q485 367 485 271Q485 215 469 163.5Q453 112 421.5 73Q390 34 343 11Q296 -12 234 -12Q191 -12 154.5 0.5Q118 13 91 37.5Q64 62 49 99Q34 136 34 184Q34 241 50 293.5Q66 346 97.5 386Q129 426 176.5 449.5Q224 473 287 473ZM276 377Q249 377 227.5 362Q206 347 191 321.5Q176 296 168 261.5Q160 227 160 188Q160 134 182 107Q204 80 242 80Q269 80 290.5 95Q312 110 327 136Q342 162 350 197Q358 232 358 271Q358 322 336.5 349.5Q315 377 276 377ZM129 596Q129 630 149.5 648Q170 666 198 666Q228 666 248.5 648Q269 630 269 596Q269 563 248.5 544.5Q228 526 198 526Q170 526 149.5 544.5Q129 563 129 596ZM340 595Q340 629 360 647Q380 665 409 665Q439 665 459 647Q479 629 479 595Q479 563 459 544.5Q439 526 409 526Q380 526 360 544.5Q340 563 340 595Z" glyph-name="odieresis" horiz-adv-x="519" unicode="&#246;" /><glyph d="M560 80Q596 80 616.5 97.5Q637 115 646 146L759 119Q736 48 684.5 18Q633 -12 552 -12Q500 -12 458.5 10Q417 32 400 64Q371 29 329 8.5Q287 -12 234 -12Q191 -12 154.5 0.5Q118 13 91 37.5Q64 62 49 99Q34 136 34 184Q34 241 50 293.5Q66 346 97.5 386Q129 426 176.5 449.5Q224 473 287 473Q338 473 376.5 452.5Q415 432 438 397Q467 433 509.5 453Q552 473 598 473Q646 473 680.5 459Q715 445 737.5 421.5Q760 398 770.5 368Q781 338 781 306Q781 252 761 209H482Q479 184 481.5 161Q484 138 493.5 120Q503 102 519.5 91Q536 80 560 80ZM276 377Q249 377 227.5 362Q206 347 191 321.5Q176 296 168 261.5Q160 227 160 188Q160 134 182 107Q204 80 242 80Q269 80 290.5 95Q312 110 327 136Q342 162 350 197Q358 232 358 271Q358 322 336.5 349.5Q315 377 276 377ZM657 280Q661 291 661 307Q661 339 645.5 361.5Q630 384 593 384Q554 384 529 353.5Q504 323 492 280Z" glyph-name="oe" horiz-adv-x="809" unicode="&#339;" /><glyph d="M287 473Q380 473 432.5 420Q485 367 485 271Q485 215 469 163.5Q453 112 421.5 73Q390 34 343 11Q296 -12 234 -12Q191 -12 154.5 0.5Q118 13 91 37.5Q64 62 49 99Q34 136 34 184Q34 241 50 293.5Q66 346 97.5 386Q129 426 176.5 449.5Q224 473 287 473ZM276 377Q249 377 227.5 362Q206 347 191 321.5Q176 296 168 261.5Q160 227 160 188Q160 134 182 107Q204 80 242 80Q269 80 290.5 95Q312 110 327 136Q342 162 350 197Q358 232 358 271Q358 322 336.5 349.5Q315 377 276 377ZM248 527 132 678H284L356 527Z" glyph-name="ograve" horiz-adv-x="519" unicode="&#242;" /><glyph d="M287 473Q380 473 432.5 420Q485 367 485 271Q485 215 469 163.5Q453 112 421.5 73Q390 34 343 11Q296 -12 234 -12Q191 -12 154.5 0.5Q118 13 91 37.5Q64 62 49 99Q34 136 34 184Q34 241 50 293.5Q66 346 97.5 386Q129 426 176.5 449.5Q224 473 287 473ZM276 377Q249 377 227.5 362Q206 347 191 321.5Q176 296 168 261.5Q160 227 160 188Q160 134 182 107Q204 80 242 80Q269 80 290.5 95Q312 110 327 136Q342 162 350 197Q358 232 358 271Q358 322 336.5 349.5Q315 377 276 377ZM167 527 222 678H353L253 527ZM326 527 398 678H535L419 527Z" glyph-name="ohungarumlaut" horiz-adv-x="519" unicode="&#337;" /><glyph d="M287 473Q380 473 432.5 420Q485 367 485 271Q485 215 469 163.5Q453 112 421.5 73Q390 34 343 11Q296 -12 234 -12Q191 -12 154.5 0.5Q118 13 91 37.5Q64 62 49 99Q34 136 34 184Q34 241 50 293.5Q66 346 97.5 386Q129 426 176.5 449.5Q224 473 287 473ZM276 377Q249 377 227.5 362Q206 347 191 321.5Q176 296 168 261.5Q160 227 160 188Q160 134 182 107Q204 80 242 80Q269 80 290.5 95Q312 110 327 136Q342 162 350 197Q358 232 358 271Q358 322 336.5 349.5Q315 377 276 377ZM156 545 174 642H457L439 545Z" glyph-name="omacron" horiz-adv-x="519" unicode="&#333;" /><glyph d="M86 0 169 473 37 453 54 551 312 590 208 0Z" glyph-name="one" horiz-adv-x="343" unicode="1" /><glyph d="M3 -203 15 -136H110L145 67L41 58L53 129L249 150L199 -136H285L273 -203Z" glyph-name="one.inf" horiz-adv-x="307" unicode="&#58738;" /><glyph d="M23 236 35 303H126L161 506L57 497L69 568L265 589L215 303H301L289 236ZM791 0H517L528 60Q624 116 677.5 157Q731 198 731 240Q731 286 684 286Q660 286 644 270Q628 254 623 222L551 250Q558 297 594 329Q630 361 696 361Q753 361 787.5 334Q822 307 822 253Q822 214 802.5 185Q783 156 754 134.5Q725 113 692 98.5Q659 84 632 74V70H804ZM605 589H684L273 0H196Z" glyph-name="onehalf" horiz-adv-x="880" unicode="&#189;" /><glyph d="M23 236 35 303H126L161 506L57 497L69 568L265 589L215 303H301L289 236ZM703 75H527L538 138L753 353H842L805 141H857L845 75H793L780 0H690ZM729 210Q731 224 734.5 236.5Q738 249 740 259Q743 270 746 281H742Q738 274 732 265Q727 257 719.5 248Q712 239 702 228L659 184Q648 173 638 164.5Q628 156 620 150Q610 143 603 138V134Q609 135 618 136Q626 137 636 138Q646 139 660 139H717ZM605 589H684L273 0H196Z" glyph-name="onequarter" horiz-adv-x="880" unicode="&#188;" /><glyph d="M7 236 19 303H110L145 506L41 497L53 568L249 589L199 303H285L273 236Z" glyph-name="onesuperior" horiz-adv-x="307" unicode="&#185;" /><glyph d="M268 465Q274 493 263.5 515Q253 537 220 537Q198 537 180.5 526.5Q163 516 151 499Q139 482 133 458.5Q127 435 127 410Q127 381 140 361Q153 341 181 341Q242 341 258 414ZM344 377Q342 367 345 359Q348 351 363 351Q371 351 387 355L373 291Q361 288 347.5 286Q334 284 322 284Q255 284 246 335Q232 306 205 292.5Q178 279 147 279Q91 279 60.5 312Q30 345 30 405Q30 444 41.5 479.5Q53 515 75 542Q97 569 128.5 585Q160 601 200 601Q233 601 256 587Q279 573 284 544L304 593H388Z" glyph-name="ordfeminine" horiz-adv-x="419" unicode="&#170;" /><glyph d="M212 601Q278 601 316.5 565.5Q355 530 355 466Q355 429 343.5 395Q332 361 309.5 335.5Q287 310 253 294.5Q219 279 175 279Q112 279 71 312Q30 345 30 409Q30 447 41.5 481.5Q53 516 75.5 542.5Q98 569 132.5 585Q167 601 212 601ZM205 533Q186 533 171 523.5Q156 514 145.5 497.5Q135 481 129.5 459Q124 437 124 412Q124 378 139 361Q154 344 180 344Q199 344 214 353.5Q229 363 239 379.5Q249 396 254.5 418.5Q260 441 260 466Q260 533 205 533Z" glyph-name="ordmasculine" horiz-adv-x="385" unicode="&#186;" /><glyph d="M287 473Q332 473 367 460Q402 447 428 423L481 473L522 428L463 373Q485 327 485 271Q485 215 469 163.5Q453 112 421.5 73Q390 34 343 11Q296 -12 234 -12Q193 -12 158.5 -1.5Q124 9 98 31L48 -15L6 27L59 77Q34 122 34 184Q34 241 50 293.5Q66 346 97.5 386Q129 426 176.5 449.5Q224 473 287 473ZM276 377Q252 377 232 364.5Q212 352 197.5 331Q183 310 174 281.5Q165 253 163 221Q160 195 163 173L341 343Q321 377 276 377ZM242 80Q267 80 287 92.5Q307 105 321 126Q335 147 344 175.5Q353 204 355 236Q356 245 356.5 254.5Q357 264 357 275L181 109Q201 80 242 80Z" glyph-name="oslash" horiz-adv-x="519" unicode="&#248;" /><glyph d="M287 473Q332 473 367 460Q402 447 428 423L481 473L522 428L463 373Q485 327 485 271Q485 215 469 163.5Q453 112 421.5 73Q390 34 343 11Q296 -12 234 -12Q193 -12 158.5 -1.5Q124 9 98 31L48 -15L6 27L59 77Q34 122 34 184Q34 241 50 293.5Q66 346 97.5 386Q129 426 176.5 449.5Q224 473 287 473ZM276 377Q252 377 232 364.5Q212 352 197.5 331Q183 310 174 281.5Q165 253 163 221Q160 195 163 173L341 343Q321 377 276 377ZM242 80Q267 80 287 92.5Q307 105 321 126Q335 147 344 175.5Q353 204 355 236Q356 245 356.5 254.5Q357 264 357 275L181 109Q201 80 242 80ZM248 527 319 678H472L356 527Z" glyph-name="oslashacute" horiz-adv-x="519" unicode="&#511;" /><glyph d="M287 473Q380 473 432.5 420Q485 367 485 271Q485 215 469 163.5Q453 112 421.5 73Q390 34 343 11Q296 -12 234 -12Q191 -12 154.5 0.5Q118 13 91 37.5Q64 62 49 99Q34 136 34 184Q34 241 50 293.5Q66 346 97.5 386Q129 426 176.5 449.5Q224 473 287 473ZM276 377Q249 377 227.5 362Q206 347 191 321.5Q176 296 168 261.5Q160 227 160 188Q160 134 182 107Q204 80 242 80Q269 80 290.5 95Q312 110 327 136Q342 162 350 197Q358 232 358 271Q358 322 336.5 349.5Q315 377 276 377ZM371 524Q342 524 326.5 531Q311 538 294 549Q275 561 264.5 567.5Q254 574 240 574Q225 574 214 561.5Q203 549 201 523H133Q126 555 131.5 581.5Q137 608 152 627.5Q167 647 189 658Q211 669 237 669Q264 669 279.5 661.5Q295 654 309 644Q329 631 340 624.5Q351 618 365 618Q379 618 388.5 629Q398 640 400 667H471Q485 603 456.5 563.5Q428 524 371 524Z" glyph-name="otilde" horiz-adv-x="519" unicode="&#245;" /><glyph d="M187 188Q183 167 186 146.5Q189 126 199 110Q209 94 225 84.5Q241 75 264 75Q294 75 318 91.5Q342 108 358 135Q374 162 382.5 197.5Q391 233 391 272Q391 324 369 351.5Q347 379 309 379Q271 379 241 348Q211 317 200 257ZM120 -203H-2L115 462H222L220 373Q240 422 276.5 447.5Q313 473 367 473Q436 473 478.5 425.5Q521 378 521 281Q521 219 505 165.5Q489 112 459 72.5Q429 33 386 10.5Q343 -12 288 -12Q240 -12 207.5 10Q175 32 167 71Z" glyph-name="p" horiz-adv-x="555" unicode="p" /><glyph d="M427 -14Q420 -55 403 -83.5Q386 -112 361.5 -129.5Q337 -147 307 -155Q277 -163 244 -163Q213 -163 189.5 -157.5Q166 -152 140 -136L182 -31Q198 -48 217 -54.5Q236 -61 254 -61Q277 -61 292 -48.5Q307 -36 313 -2L344 174H295Q243 174 202.5 186Q162 198 136.5 223Q111 248 102 286Q93 324 102 375Q122 488 199 538.5Q276 589 398 589H612L595 492H516Z" glyph-name="paragraph" horiz-adv-x="548" unicode="&#182;" /><glyph d="M180 140Q180 94 185.5 51.5Q191 9 203 -32.5Q215 -74 234 -115.5Q253 -157 281 -202H160Q115 -133 89.5 -50.5Q64 32 64 135Q64 220 82 297.5Q100 375 132 442.5Q164 510 208 567Q252 624 304 668H438Q386 618 339 563.5Q292 509 257 445.5Q222 382 201 306.5Q180 231 180 140Z" glyph-name="parenleft" horiz-adv-x="358" unicode="(" /><glyph d="M182 326Q182 417 159.5 498Q137 579 82 668H202Q247 599 272.5 516.5Q298 434 298 331Q298 246 280 168.5Q262 91 230 23.5Q198 -44 154 -101Q110 -158 58 -202H-76Q-24 -152 23 -97.5Q70 -43 105 20.5Q140 84 161 159Q182 234 182 326Z" glyph-name="parenright" horiz-adv-x="358" unicode=")" /><glyph d="M175 229Q141 229 116.5 240Q92 251 76.5 270.5Q61 290 53.5 317Q46 344 46 376Q46 416 57 456Q68 496 90 527Q112 558 144.5 577.5Q177 597 219 597Q282 597 315 554.5Q348 512 348 446Q348 404 337 365Q326 326 304 296Q282 266 250 247.5Q218 229 175 229ZM210 519Q188 519 173.5 503.5Q159 488 150.5 466Q142 444 138.5 419.5Q135 395 135 378Q135 346 147 324.5Q159 303 185 303Q206 303 220.5 319Q235 335 244 357.5Q253 380 256.5 404Q260 428 260 445Q260 478 248.5 498.5Q237 519 210 519ZM610 589H689L278 0H201ZM668 -7Q634 -7 609.5 4Q585 15 569.5 34.5Q554 54 546.5 81Q539 108 539 140Q539 180 550 220Q561 260 583 291Q605 322 637.5 341.5Q670 361 712 361Q775 361 808 318.5Q841 276 841 210Q841 168 830 129Q819 90 797 60Q775 30 743 11.5Q711 -7 668 -7ZM703 283Q681 283 666.5 267.5Q652 252 643.5 230Q635 208 631.5 183.5Q628 159 628 142Q628 110 640 88.5Q652 67 678 67Q699 67 713.5 83Q728 99 737 121.5Q746 144 749.5 168Q753 192 753 209Q753 242 741.5 262.5Q730 283 703 283Z" glyph-name="percent" horiz-adv-x="886" unicode="%" /><glyph d="M38 73Q38 108 61 131.5Q84 155 117 155Q152 155 175 131.5Q198 108 198 73Q198 40 175 17.5Q152 -5 117 -5Q84 -5 61 17.5Q38 40 38 73Z" glyph-name="period" horiz-adv-x="290" unicode="." /><glyph d="M62 265Q62 300 85 323Q108 346 141 346Q176 346 199 323Q222 300 222 265Q222 232 199 209Q176 186 141 186Q108 186 85 209Q62 232 62 265Z" glyph-name="periodcentered" horiz-adv-x="290" unicode="&#8901;" /><glyph d="M69 304Q69 339 92 362Q115 385 148 385Q183 385 206 362Q229 339 229 304Q229 271 206 248Q183 225 148 225Q115 225 92 248Q69 271 69 304Z" glyph-name="periodcentered.cap" horiz-adv-x="280" unicode="&#58497;" /><glyph d="M218 282 247 445H319L290 282H460L448 214H278L247 37H175L206 214H40L52 282Z" glyph-name="plus" horiz-adv-x="500" unicode="+" /><glyph d="M254 353 277 480H350L327 353H497L485 285H315L290 144H217L243 285H77L89 353ZM32 30 44 98H452L440 30Z" glyph-name="plusminus" horiz-adv-x="545" unicode="&#177;" /><glyph d="M354 270Q358 291 356.5 311Q355 331 347 346.5Q339 362 324 371.5Q309 381 286 381Q256 381 232 365Q208 349 191.5 322Q175 295 166.5 259.5Q158 224 158 185Q158 140 177 109.5Q196 79 234 79Q276 79 303 108.5Q330 138 340 192ZM270 -203 319 74Q302 28 267 8Q232 -12 188 -12Q115 -12 74.5 38Q34 88 34 177Q34 236 49.5 290Q65 344 94 384.5Q123 425 164.5 449Q206 473 259 473Q306 473 337.5 452.5Q369 432 374 385L402 462H509L392 -203Z" glyph-name="q" horiz-adv-x="526" unicode="q" /><glyph d="M49 445Q69 520 121 560.5Q173 601 261 601Q356 601 404.5 556.5Q453 512 453 432Q453 384 434.5 349Q416 314 386.5 291.5Q357 269 320 258.5Q283 248 247 248L234 180H129L154 315H191Q221 315 246.5 320Q272 325 290.5 337Q309 349 320 368.5Q331 388 331 417Q331 455 310.5 476Q290 497 250 497Q211 497 187 475.5Q163 454 155 406ZM90 67Q90 99 112 119Q134 139 166 139Q199 139 221 119Q243 99 243 67Q243 35 221 15Q199 -5 166 -5Q134 -5 112 15Q90 35 90 67Z" glyph-name="question" horiz-adv-x="446" unicode="?" /><glyph d="M409 17Q389 -58 337 -98.5Q285 -139 198 -139Q102 -139 53.5 -94.5Q5 -50 5 30Q5 78 23.5 113Q42 148 72 170.5Q102 193 138.5 203.5Q175 214 211 214L224 282H329L305 147H267Q237 147 212 142Q187 137 168 125Q149 113 138.5 93.5Q128 74 128 45Q128 7 148 -14Q168 -35 208 -35Q248 -35 271.5 -13.5Q295 8 303 56ZM369 395Q369 363 346.5 343Q324 323 292 323Q259 323 237 343Q215 363 215 395Q215 427 237 447Q259 467 292 467Q324 467 346.5 447Q369 427 369 395Z" glyph-name="questiondown" horiz-adv-x="446" unicode="&#191;" /><glyph d="M123 668H243L150 412H78ZM290 668H410L317 412H245Z" glyph-name="quotedbl" horiz-adv-x="354" unicode="&quot;" /><glyph d="M172 39Q172 -5 155.5 -35.5Q139 -66 112 -85.5Q85 -105 49.5 -114.5Q14 -124 -25 -125V-74Q-3 -73 18 -67Q39 -61 55.5 -51Q72 -41 82 -27.5Q92 -14 92 4Q59 -1 33.5 15Q8 31 8 68Q8 104 31 122.5Q54 141 86 141Q125 141 148.5 113.5Q172 86 172 39ZM386 39Q386 -5 369.5 -35.5Q353 -66 326 -85.5Q299 -105 263.5 -114.5Q228 -124 189 -125V-74Q211 -73 232 -67Q253 -61 269.5 -51Q286 -41 296 -27.5Q306 -14 306 4Q273 -1 247.5 15Q222 31 222 68Q222 104 245 122.5Q268 141 300 141Q339 141 362.5 113.5Q386 86 386 39Z" glyph-name="quotedblbase" horiz-adv-x="456" unicode="&#8222;" /><glyph d="M87 516Q87 559 103.5 590Q120 621 147 640.5Q174 660 209.5 669.5Q245 679 284 680V629Q262 627 241 621.5Q220 616 203.5 606Q187 596 177 582.5Q167 569 167 551Q200 557 225.5 540.5Q251 524 251 487Q251 451 228 432.5Q205 414 172 414Q134 414 110.5 441.5Q87 469 87 516ZM301 516Q301 559 317.5 590Q334 621 361 640.5Q388 660 423.5 669.5Q459 679 498 680V629Q476 627 455 621.5Q434 616 417.5 606Q401 596 391 582.5Q381 569 381 551Q414 557 439.5 540.5Q465 524 465 487Q465 451 442 432.5Q419 414 386 414Q348 414 324.5 441.5Q301 469 301 516Z" glyph-name="quotedblleft" horiz-adv-x="456" unicode="&#8220;" /><glyph d="M262 578Q262 534 245.5 503.5Q229 473 202 453.5Q175 434 139.5 424.5Q104 415 65 414V465Q87 466 108 472Q129 478 145.5 488Q162 498 172 511.5Q182 525 182 543Q149 538 123.5 554Q98 570 98 607Q98 643 121 661.5Q144 680 176 680Q215 680 238.5 652.5Q262 625 262 578ZM476 578Q476 534 459.5 503.5Q443 473 416 453.5Q389 434 353.5 424.5Q318 415 279 414V465Q301 466 322 472Q343 478 359.5 488Q376 498 386 511.5Q396 525 396 543Q363 538 337.5 554Q312 570 312 607Q312 643 335 661.5Q358 680 390 680Q429 680 452.5 652.5Q476 625 476 578Z" glyph-name="quotedblright" horiz-adv-x="456" unicode="&#8221;" /><glyph d="M87 516Q87 559 103.5 590Q120 621 147 640.5Q174 660 209.5 669.5Q245 679 284 680V629Q262 627 241 621.5Q220 616 203.5 606Q187 596 177 582.5Q167 569 167 551Q200 557 225.5 540.5Q251 524 251 487Q251 451 228 432.5Q205 414 172 414Q134 414 110.5 441.5Q87 469 87 516Z" glyph-name="quoteleft" horiz-adv-x="242" unicode="&#8216;" /><glyph d="M262 578Q262 534 245.5 503.5Q229 473 202 453.5Q175 434 139.5 424.5Q104 415 65 414V465Q87 466 108 472Q129 478 145.5 488Q162 498 172 511.5Q182 525 182 543Q149 538 123.5 554Q98 570 98 607Q98 643 121 661.5Q144 680 176 680Q215 680 238.5 652.5Q262 625 262 578Z" glyph-name="quoteright" horiz-adv-x="242" unicode="&#8217;" /><glyph d="M172 38Q172 -5 155.5 -35.5Q139 -66 112 -86Q85 -106 49.5 -115.5Q14 -125 -25 -126V-75Q-3 -74 18 -68Q39 -62 55.5 -52Q72 -42 82 -28.5Q92 -15 92 3Q59 -2 33.5 14.5Q8 31 8 67Q8 104 31 122Q54 140 86 140Q125 140 148.5 112.5Q172 85 172 38Z" glyph-name="quotesinglbase" horiz-adv-x="242" unicode="&#8218;" /><glyph d="M123 668H243L150 412H78Z" glyph-name="quotesingle" horiz-adv-x="187" unicode="'" /><glyph d="M369 329Q344 339 316 339.5Q288 340 263.5 329.5Q239 319 221 297Q203 275 197 240L155 0H34L115 462H221L215 344Q227 376 246.5 402Q266 428 290 445Q314 462 341.5 469Q369 476 398 470Z" glyph-name="r" horiz-adv-x="375" unicode="r" /><glyph d="M369 329Q344 339 316 339.5Q288 340 263.5 329.5Q239 319 221 297Q203 275 197 240L155 0H34L115 462H221L215 344Q227 376 246.5 402Q266 428 290 445Q314 462 341.5 469Q369 476 398 470ZM198 527 269 678H422L306 527Z" glyph-name="racute" horiz-adv-x="375" unicode="&#341;" /><glyph d="M369 329Q344 339 316 339.5Q288 340 263.5 329.5Q239 319 221 297Q203 275 197 240L155 0H34L115 462H221L215 344Q227 376 246.5 402Q266 428 290 445Q314 462 341.5 469Q369 476 398 470ZM217 525 112 680H222L248 643Q258 628 261 618Q263 613 263 609H268Q269 613 273 618Q276 623 281 629Q286 635 295 643L334 680H449L291 525Z" glyph-name="rcaron" horiz-adv-x="375" unicode="&#345;" /><glyph d="M369 329Q344 339 316 339.5Q288 340 263.5 329.5Q239 319 221 297Q203 275 197 240L155 0H34L115 462H221L215 344Q227 376 246.5 402Q266 428 290 445Q314 462 341.5 469Q369 476 398 470ZM151 -137Q151 -196 108.5 -224.5Q66 -253 2 -253V-210Q34 -209 56.5 -201Q79 -193 79 -171Q52 -176 32.5 -162Q13 -148 13 -118Q13 -88 32 -72.5Q51 -57 78 -57Q110 -57 130.5 -77.5Q151 -98 151 -137Z" glyph-name="rcommaaccent" horiz-adv-x="375" unicode="&#343;" /><glyph d="M414 120Q407 128 404.5 137.5Q402 147 400 160L396 197Q393 219 383.5 229Q374 239 348 239H303L282 120H190L253 481H408Q473 481 502.5 454.5Q532 428 532 381Q532 354 523.5 334Q515 314 500 301Q485 288 465 281Q445 274 423 273V270Q479 267 487 219L496 163Q498 150 502 139Q506 128 514 120ZM315 308H374Q403 308 421.5 321.5Q440 335 440 368Q440 408 394 408H332ZM55 294Q55 361 79 417Q103 473 144.5 514Q186 555 242 578Q298 601 361 601Q424 601 480 578Q536 555 578 514Q620 473 644 417Q668 361 668 294Q668 227 644 171Q620 115 578 74.5Q536 34 480 11Q424 -12 361 -12Q298 -12 242 11Q186 34 144.5 74.5Q103 115 79 171Q55 227 55 294ZM86 294Q86 233 108 182Q130 131 167.5 94.5Q205 58 255.5 37.5Q306 17 363 17Q420 17 470 37.5Q520 58 557.5 94.5Q595 131 616.5 182Q638 233 638 294Q638 355 616.5 406Q595 457 557.5 494Q520 531 470 551.5Q420 572 363 572Q306 572 255.5 551.5Q205 531 167.5 494Q130 457 108 406Q86 355 86 294Z" glyph-name="registered" horiz-adv-x="698" unicode="&#174;" /><glyph d="M80 609Q80 632 88.5 653Q97 674 112 689.5Q127 705 148.5 714Q170 723 197 723Q242 723 268.5 695Q295 667 295 627Q295 603 286.5 582Q278 561 263 545.5Q248 530 227 521Q206 512 180 512Q130 512 105 539.5Q80 567 80 609ZM193 669Q170 669 155.5 652.5Q141 636 141 613Q141 592 152.5 580Q164 568 185 568Q208 568 222 584.5Q236 601 236 624Q236 644 225 656.5Q214 669 193 669Z" glyph-name="ring" horiz-adv-x="375" unicode="&#730;" /><glyph d="M80 729Q80 752 88.5 773Q97 794 112 809.5Q127 825 148.5 834.5Q170 844 197 844Q242 844 268.5 816Q295 788 295 748Q295 699 263.5 665.5Q232 632 180 632Q130 632 105 659.5Q80 687 80 729ZM193 789Q170 789 155.5 772.5Q141 756 141 733Q141 713 152.5 700.5Q164 688 185 688Q208 688 222 705Q236 722 236 745Q236 765 225 777Q214 789 193 789Z" glyph-name="ring.cap" horiz-adv-x="375" unicode="&#58410;" /><glyph d="M109 153Q111 111 133 90.5Q155 70 190 70Q219 70 237.5 80.5Q256 91 256 120Q256 145 241 159.5Q226 174 184 188Q124 206 95 238.5Q66 271 66 325Q66 363 80 391Q94 419 119 437Q144 455 177.5 464Q211 473 249 473Q331 473 372 440Q413 407 413 346L310 324Q310 356 292.5 373.5Q275 391 241 391Q213 391 196.5 378Q180 365 180 342Q180 332 183 324Q186 316 194.5 309Q203 302 218.5 294.5Q234 287 259 278Q323 255 349 222.5Q375 190 375 132Q375 94 361 67Q347 40 321.5 22.5Q296 5 261 -3.5Q226 -12 185 -12Q108 -12 60.5 20Q13 52 8 119Z" glyph-name="s" horiz-adv-x="428" unicode="s" /><glyph d="M109 153Q111 111 133 90.5Q155 70 190 70Q219 70 237.5 80.5Q256 91 256 120Q256 145 241 159.5Q226 174 184 188Q124 206 95 238.5Q66 271 66 325Q66 363 80 391Q94 419 119 437Q144 455 177.5 464Q211 473 249 473Q331 473 372 440Q413 407 413 346L310 324Q310 356 292.5 373.5Q275 391 241 391Q213 391 196.5 378Q180 365 180 342Q180 332 183 324Q186 316 194.5 309Q203 302 218.5 294.5Q234 287 259 278Q323 255 349 222.5Q375 190 375 132Q375 94 361 67Q347 40 321.5 22.5Q296 5 261 -3.5Q226 -12 185 -12Q108 -12 60.5 20Q13 52 8 119ZM206 527 277 678H430L314 527Z" glyph-name="sacute" horiz-adv-x="428" unicode="&#347;" /><glyph d="M109 153Q111 111 133 90.5Q155 70 190 70Q219 70 237.5 80.5Q256 91 256 120Q256 145 241 159.5Q226 174 184 188Q124 206 95 238.5Q66 271 66 325Q66 363 80 391Q94 419 119 437Q144 455 177.5 464Q211 473 249 473Q331 473 372 440Q413 407 413 346L310 324Q310 356 292.5 373.5Q275 391 241 391Q213 391 196.5 378Q180 365 180 342Q180 332 183 324Q186 316 194.5 309Q203 302 218.5 294.5Q234 287 259 278Q323 255 349 222.5Q375 190 375 132Q375 94 361 67Q347 40 321.5 22.5Q296 5 261 -3.5Q226 -12 185 -12Q108 -12 60.5 20Q13 52 8 119ZM225 525 120 680H230L256 643Q266 628 269 618Q271 613 271 609H276Q277 613 281 618Q284 623 289 629Q294 635 303 643L342 680H457L299 525Z" glyph-name="scaron" horiz-adv-x="428" unicode="&#353;" /><glyph d="M255 -120Q255 -166 222 -188.5Q189 -211 142 -211Q108 -211 82 -201Q56 -191 42 -174L66 -115Q95 -150 129 -150Q164 -150 164 -121Q164 -87 111 -81L139 -9Q82 0 47 31Q12 62 8 119L109 153Q111 111 133 90.5Q155 70 190 70Q219 70 237.5 81Q256 92 256 120Q256 145 241 159.5Q226 174 184 188Q124 206 95 238.5Q66 271 66 325Q66 363 80 391Q94 419 119 437Q144 455 177.5 464Q211 473 249 473Q331 473 372 440Q413 407 413 346L310 324Q310 356 292.5 373.5Q275 391 241 391Q214 391 197 378Q180 365 180 342Q180 332 183 324Q186 316 194.5 309Q203 302 218.5 294.5Q234 287 259 278Q323 255 349 222.5Q375 190 375 132Q375 64 332 30Q289 -4 220 -10Q212 -11 203.5 -11.5Q195 -12 187 -12L176 -38Q216 -45 235.5 -63.5Q255 -82 255 -120Z" glyph-name="scedilla" horiz-adv-x="428" unicode="&#351;" /><glyph d="M109 153Q111 111 133 90.5Q155 70 190 70Q219 70 237.5 80.5Q256 91 256 120Q256 145 241 159.5Q226 174 184 188Q124 206 95 238.5Q66 271 66 325Q66 363 80 391Q94 419 119 437Q144 455 177.5 464Q211 473 249 473Q331 473 372 440Q413 407 413 346L310 324Q310 356 292.5 373.5Q275 391 241 391Q213 391 196.5 378Q180 365 180 342Q180 332 183 324Q186 316 194.5 309Q203 302 218.5 294.5Q234 287 259 278Q323 255 349 222.5Q375 190 375 132Q375 94 361 67Q347 40 321.5 22.5Q296 5 261 -3.5Q226 -12 185 -12Q108 -12 60.5 20Q13 52 8 119ZM324 680 429 525H319L293 562Q287 570 284.5 576.5Q282 583 280 588Q278 593 278 597H273Q272 593 268 588Q265 583 259.5 576.5Q254 570 246 562L207 525H92L250 680Z" glyph-name="scircumflex" horiz-adv-x="428" unicode="&#349;" /><glyph d="M109 153Q111 111 133 90.5Q155 70 190 70Q219 70 237.5 80.5Q256 91 256 120Q256 145 241 159.5Q226 174 184 188Q124 206 95 238.5Q66 271 66 325Q66 363 80 391Q94 419 119 437Q144 455 177.5 464Q211 473 249 473Q331 473 372 440Q413 407 413 346L310 324Q310 356 292.5 373.5Q275 391 241 391Q213 391 196.5 378Q180 365 180 342Q180 332 183 324Q186 316 194.5 309Q203 302 218.5 294.5Q234 287 259 278Q323 255 349 222.5Q375 190 375 132Q375 94 361 67Q347 40 321.5 22.5Q296 5 261 -3.5Q226 -12 185 -12Q108 -12 60.5 20Q13 52 8 119ZM226 -137Q226 -196 183.5 -224.5Q141 -253 77 -253V-210Q109 -209 131.5 -201Q154 -193 154 -171Q127 -176 107.5 -162Q88 -148 88 -118Q88 -88 107 -72.5Q126 -57 153 -57Q185 -57 205.5 -77.5Q226 -98 226 -137Z" glyph-name="scommaaccent" horiz-adv-x="428" unicode="&#537;" /><glyph d="M22 235Q22 290 51.5 320.5Q81 351 125 362Q94 397 94 451Q94 493 110.5 521Q127 549 153 566.5Q179 584 212 591.5Q245 599 278 599Q363 599 402.5 566Q442 533 442 472L339 451Q339 483 319 500Q299 517 268 517Q242 517 225.5 504Q209 491 209 468Q209 458 212 450Q215 442 224 434.5Q233 427 249.5 418.5Q266 410 293 399Q360 374 386 341.5Q412 309 412 260Q412 208 384 177Q356 146 309 133Q341 98 341 46Q341 8 326 -19.5Q311 -47 285 -64.5Q259 -82 224 -90Q189 -98 148 -98Q61 -98 19.5 -67Q-22 -36 -25 27L74 54Q78 16 100 -2Q122 -20 154 -20Q183 -20 202.5 -9Q222 2 222 28Q222 39 219 47.5Q216 56 207.5 63.5Q199 71 184 79Q169 87 145 96Q79 119 50.5 151.5Q22 184 22 235ZM244 179Q266 184 281 200.5Q296 217 296 239Q296 262 280 276Q264 290 217 308Q208 310 200.5 312.5Q193 315 186 319Q161 311 148 293.5Q135 276 135 256Q135 246 138.5 238Q142 230 151.5 222.5Q161 215 177.5 206.5Q194 198 221 187Z" glyph-name="section" horiz-adv-x="432" unicode="&#167;" /><glyph d="M204 45Q204 1 187.5 -29.5Q171 -60 144 -79.5Q117 -99 81.5 -108.5Q46 -118 7 -119V-68Q29 -67 50 -61Q71 -55 87.5 -45Q104 -35 114 -21.5Q124 -8 124 10Q91 5 65.5 21Q40 37 40 74Q40 110 63 128.5Q86 147 118 147Q157 147 180.5 119.5Q204 92 204 45ZM97 405Q97 440 120 463Q143 486 176 486Q211 486 234 463Q257 440 257 405Q257 372 234 349Q211 326 176 326Q143 326 120 349Q97 372 97 405Z" glyph-name="semicolon" horiz-adv-x="290" unicode=";" /><glyph d="M154 484 141 411H40L72 589H504L489 505L176 0H46L305 419Q318 439 328 451.5Q338 464 345 472Q353 481 359 486V490Q354 488 344 487Q327 484 292 484Z" glyph-name="seven" horiz-adv-x="464" unicode="7" /><glyph d="M449 431Q424 502 351 502Q312 502 280 484Q248 466 224.5 434.5Q201 403 186.5 360.5Q172 318 166 269H170Q186 323 226 349Q266 375 317 375Q396 375 442 329.5Q488 284 488 211Q488 162 472 121Q456 80 425.5 50.5Q395 21 352 4.5Q309 -12 255 -12Q157 -12 105.5 50.5Q54 113 54 225Q54 298 74 365.5Q94 433 133 485.5Q172 538 229.5 569.5Q287 601 361 601Q492 601 532 498ZM284 283Q262 283 242.5 275.5Q223 268 208 253.5Q193 239 184 217.5Q175 196 175 169Q175 127 197.5 103.5Q220 80 262 80Q308 80 339.5 110.5Q371 141 371 198Q371 238 348.5 260.5Q326 283 284 283Z" glyph-name="six" horiz-adv-x="538" unicode="6" /><glyph d="M340 668H446L18 -203H-85Z" glyph-name="slash" horiz-adv-x="393" unicode="/" /><glyph glyph-name="space" horiz-adv-x="223" unicode=" " /><glyph d="M257 252Q257 246 257.5 240Q258 234 258 229Q258 200 250.5 178Q243 156 231.5 140Q220 124 205.5 114Q191 104 178 100H322Q345 100 365.5 108Q386 116 402 148L479 98Q462 48 420.5 24Q379 0 325 0H10L27 100H66Q84 100 99 109.5Q114 119 125 134Q136 149 142.5 167.5Q149 186 149 203Q149 214 148 226.5Q147 239 146 252H49L61 326H134Q129 352 126 376Q123 400 123 426Q123 472 140.5 505Q158 538 185.5 559.5Q213 581 248.5 591Q284 601 320 601Q396 601 442.5 569.5Q489 538 493 465L382 436Q382 469 366 487Q350 505 314 505Q282 505 259.5 484.5Q237 464 237 422Q237 396 239.5 372.5Q242 349 246 326H376L365 252Z" glyph-name="sterling" horiz-adv-x="491" unicode="&#163;" /><glyph d="M292 15Q271 2 240 -5Q209 -12 177 -12Q107 -12 73 26.5Q39 65 55 151L93 369H28L44 462H111L128 560L250 574L231 462H352L335 369H215L176 149Q170 117 181.5 104.5Q193 92 214 92Q234 92 253.5 98Q273 104 292 115Z" glyph-name="t" horiz-adv-x="345" unicode="t" /><glyph d="M37 302H100L112 369H47L64 462H130L147 560L269 574L250 462H371L354 369H234L222 302H344L328 214H206L195 149Q189 117 200.5 104.5Q212 92 234 92Q253 92 272.5 98Q292 104 311 115V15Q290 2 259 -5Q228 -12 196 -12Q126 -12 92.5 26.5Q59 65 74 151L85 214H21Z" glyph-name="tbar" horiz-adv-x="371" unicode="&#359;" /><glyph d="M292 15Q271 2 240 -5Q209 -12 177 -12Q107 -12 73 26.5Q39 65 55 151L93 369H28L44 462H111L128 560L250 574L231 462H352L335 369H215L176 149Q170 117 181.5 104.5Q193 92 214 92Q234 92 253.5 98Q273 104 292 115ZM368 504H282L297 693H423Z" glyph-name="tcaron" horiz-adv-x="345" unicode="&#357;" /><glyph d="M292 15Q271 2 240 -5Q209 -12 177 -12Q107 -12 73 26.5Q39 65 55 151L93 369H28L44 462H111L128 560L250 574L231 462H352L335 369H215L176 149Q170 117 181.5 104.5Q193 92 214 92Q234 92 253.5 98Q273 104 292 115ZM211 -137Q211 -196 168.5 -224.5Q126 -253 62 -253V-210Q94 -209 116.5 -201Q139 -193 139 -171Q112 -176 92.5 -162Q73 -148 73 -118Q73 -88 92 -72.5Q111 -57 138 -57Q170 -57 190.5 -77.5Q211 -98 211 -137Z" glyph-name="tcommaaccent" horiz-adv-x="345" unicode="&#355;" /><glyph d="M187 186Q183 164 186 143.5Q189 123 199 107Q209 91 225 81Q241 71 264 71Q294 71 318 87.5Q342 104 358 132Q374 160 382.5 195.5Q391 231 391 270Q391 324 369 352Q347 380 309 380Q271 380 241 348Q211 316 200 256ZM120 -203H-2L151 668H272L220 373Q240 422 276.5 447.5Q313 473 367 473Q436 473 478.5 425.5Q521 378 521 281Q521 219 505 165.5Q489 112 459 72.5Q429 33 386 10.5Q343 -12 288 -12Q240 -12 207.5 10Q175 32 167 71Z" glyph-name="thorn" horiz-adv-x="555" unicode="&#254;" /><glyph d="M265 299Q307 297 336 285.5Q365 274 383.5 255.5Q402 237 410 213Q418 189 418 163Q418 121 400.5 88.5Q383 56 352.5 33.5Q322 11 280 -0.5Q238 -12 189 -12Q95 -12 47 24Q-1 60 -6 124L112 164Q112 121 136 100.5Q160 80 199 80Q237 80 263.5 100Q290 120 290 162Q290 180 284 196Q278 212 262.5 225Q247 238 219.5 247Q192 256 150 259L165 342Q214 348 246 357Q278 366 297 379Q316 392 323 409Q330 426 330 446Q330 475 312 489.5Q294 504 266 504Q233 504 212.5 483.5Q192 463 187 425L70 456Q87 526 140.5 563.5Q194 601 283 601Q364 601 412 566.5Q460 532 460 465Q460 389 409 348Q358 307 265 303Z" glyph-name="three" horiz-adv-x="478" unicode="3" /><glyph d="M193 -24Q238 -29 257 -51Q276 -73 276 -106Q276 -132 264.5 -151.5Q253 -171 233 -184Q213 -197 186.5 -203.5Q160 -210 129 -210Q69 -210 37.5 -184.5Q6 -159 1 -117L79 -94Q81 -118 92 -131.5Q103 -145 129 -145Q152 -145 167.5 -135Q183 -125 183 -103Q183 -93 180 -84.5Q177 -76 168 -69Q159 -62 142.5 -58Q126 -54 98 -54L108 0Q162 2 182 16.5Q202 31 202 52Q202 69 191.5 78Q181 87 164 87Q123 87 111 43L43 71Q56 111 88 134.5Q120 158 176 158Q227 158 260 136.5Q293 115 293 68Q293 30 267.5 7.5Q242 -15 194 -22Z" glyph-name="three.inf" horiz-adv-x="315" unicode="&#58740;" /><glyph d="M215 415Q260 410 279 388Q298 366 298 333Q298 307 286.5 287.5Q275 268 255 255Q235 242 208.5 235.5Q182 229 151 229Q91 229 59.5 254.5Q28 280 23 322L101 345Q103 321 114 307.5Q125 294 151 294Q174 294 189.5 304Q205 314 205 336Q205 346 202 354.5Q199 363 190 370Q181 377 164.5 381Q148 385 120 385L130 439Q184 441 204 455.5Q224 470 224 491Q224 508 213.5 517Q203 526 186 526Q145 526 133 482L65 510Q78 550 110 573.5Q142 597 198 597Q249 597 282 575.5Q315 554 315 507Q315 469 289.5 446.5Q264 424 216 417ZM703 75H527L538 138L753 353H842L805 141H857L845 75H793L780 0H690ZM729 210Q731 224 734.5 236.5Q738 249 740 259Q743 270 746 281H742Q738 274 732 265Q727 257 719.5 248Q712 239 702 228L659 184Q648 173 638 164.5Q628 156 620 150Q610 143 603 138V134Q609 135 618 136Q626 137 636 138Q646 139 660 139H717ZM605 589H684L273 0H196Z" glyph-name="threequarters" horiz-adv-x="880" unicode="&#190;" /><glyph d="M193 415Q238 410 257 388Q276 366 276 333Q276 307 264.5 287.5Q253 268 233 255Q213 242 186.5 235.5Q160 229 129 229Q69 229 37.5 254.5Q6 280 1 322L79 345Q81 321 92 307.5Q103 294 129 294Q152 294 167.5 304Q183 314 183 336Q183 346 180 354.5Q177 363 168 370Q159 377 142.5 381Q126 385 98 385L108 439Q162 441 182 455.5Q202 470 202 491Q202 508 191.5 517Q181 526 164 526Q123 526 111 482L43 510Q56 550 88 573.5Q120 597 176 597Q227 597 260 575.5Q293 554 293 507Q293 469 267.5 446.5Q242 424 194 417Z" glyph-name="threesuperior" horiz-adv-x="315" unicode="&#179;" /><glyph d="M322 524Q293 524 277.5 531Q262 538 245 549Q226 561 215.5 567.5Q205 574 191 574Q176 574 165 561.5Q154 549 152 523H84Q77 555 82.5 581.5Q88 608 103 627.5Q118 647 140 658Q162 669 188 669Q215 669 230.5 661.5Q246 654 260 644Q280 631 291 624.5Q302 618 316 618Q330 618 339.5 629Q349 640 351 667H422Q436 603 407.5 563.5Q379 524 322 524Z" glyph-name="tilde" horiz-adv-x="507" unicode="&#732;" /><glyph d="M322 650Q293 650 277.5 657.5Q262 665 245 676Q226 688 215.5 694.5Q205 701 191 701Q176 701 165 688.5Q154 676 152 650H84Q77 681 82.5 708Q88 735 103 754Q118 773 140 784Q162 795 188 795Q215 795 230.5 788Q246 781 260 771Q280 757 291 750.5Q302 744 316 744Q330 744 339.5 755.5Q349 767 351 793H422Q436 729 407.5 689.5Q379 650 322 650Z" glyph-name="tilde.cap" horiz-adv-x="507" unicode="&#58404;" /><glyph d="M102 341 140 532H70L81 589H290L279 532H208L171 341ZM505 341 534 487H529L468 397H422L397 487H392L363 341H295L343 589H420L457 474H460L542 589H622L573 341Z" glyph-name="trademark" horiz-adv-x="628" unicode="&#8482;" /><glyph d="M406 0H4L18 86Q93 137 153.5 180Q214 223 256.5 262.5Q299 302 321.5 340.5Q344 379 344 421Q344 457 326 480.5Q308 504 267 504Q229 504 207.5 482.5Q186 461 186 425Q186 403 194 385.5Q202 368 216 353L115 304Q95 323 81.5 354.5Q68 386 68 421Q68 460 83 493Q98 526 125.5 550Q153 574 192 587.5Q231 601 278 601Q375 601 422 555Q469 509 469 429Q469 364 437.5 311.5Q406 259 360.5 219Q315 179 264 150.5Q213 122 174 106L173 102H423Z" glyph-name="two" horiz-adv-x="493" unicode="2" /><glyph d="M271 -203H-3L8 -143Q104 -87 157.5 -46Q211 -5 211 37Q211 83 164 83Q140 83 124 67Q108 51 103 19L31 47Q38 94 74 126Q110 158 176 158Q233 158 267.5 131Q302 104 302 50Q302 11 282.5 -18Q263 -47 234 -68.5Q205 -90 172 -104.5Q139 -119 112 -129V-133H284Z" glyph-name="two.inf" horiz-adv-x="326" unicode="&#58739;" /><glyph d="M271 236H-3L8 296Q104 352 157.5 393Q211 434 211 476Q211 522 164 522Q140 522 124 506Q108 490 103 458L31 486Q38 533 74 565Q110 597 176 597Q233 597 267.5 570Q302 543 302 489Q302 450 282.5 421Q263 392 234 370.5Q205 349 172 334.5Q139 320 112 310V306H284Z" glyph-name="twosuperior" horiz-adv-x="326" unicode="&#178;" /><glyph d="M323 88Q302 35 265.5 11.5Q229 -12 173 -12Q99 -12 66.5 34Q34 80 48 163L101 462H222L169 156Q162 117 176 96.5Q190 76 222 76Q257 76 287.5 103.5Q318 131 328 191L376 462H497L439 134Q436 117 440 104Q444 91 466 91Q472 91 479 92.5Q486 94 495 96L477 6Q444 -5 410 -5Q360 -5 340 18.5Q320 42 323 88Z" glyph-name="u" horiz-adv-x="543" unicode="u" /><glyph d="M323 88Q302 35 265.5 11.5Q229 -12 173 -12Q99 -12 66.5 34Q34 80 48 163L101 462H222L169 156Q162 117 176 96.5Q190 76 222 76Q257 76 287.5 103.5Q318 131 328 191L376 462H497L439 134Q436 117 440 104Q444 91 466 91Q472 91 479 92.5Q486 94 495 96L477 6Q444 -5 410 -5Q360 -5 340 18.5Q320 42 323 88ZM246 527 317 678H470L354 527Z" glyph-name="uacute" horiz-adv-x="543" unicode="&#250;" /><glyph d="M323 88Q302 35 265.5 11.5Q229 -12 173 -12Q99 -12 66.5 34Q34 80 48 163L101 462H222L169 156Q162 117 176 96.5Q190 76 222 76Q257 76 287.5 103.5Q318 131 328 191L376 462H497L439 134Q436 117 440 104Q444 91 466 91Q472 91 479 92.5Q486 94 495 96L477 6Q444 -5 410 -5Q360 -5 340 18.5Q320 42 323 88ZM301 522Q264 522 238.5 533.5Q213 545 199 565.5Q185 586 181 614Q177 642 183 675H273Q268 645 275 627Q282 609 316 609Q350 609 363.5 627Q377 645 384 675H474Q468 642 454.5 614Q441 586 419 565.5Q397 545 367.5 533.5Q338 522 301 522Z" glyph-name="ubreve" horiz-adv-x="543" unicode="&#365;" /><glyph d="M323 88Q302 35 265.5 11.5Q229 -12 173 -12Q99 -12 66.5 34Q34 80 48 163L101 462H222L169 156Q162 117 176 96.5Q190 76 222 76Q257 76 287.5 103.5Q318 131 328 191L376 462H497L439 134Q436 117 440 104Q444 91 466 91Q472 91 479 92.5Q486 94 495 96L477 6Q444 -5 410 -5Q360 -5 340 18.5Q320 42 323 88ZM364 680 469 525H359L333 562Q327 570 324.5 576.5Q322 583 320 588Q318 593 318 597H313Q312 593 308 588Q305 583 299.5 576.5Q294 570 286 562L247 525H132L290 680Z" glyph-name="ucircumflex" horiz-adv-x="543" unicode="&#251;" /><glyph d="M323 88Q302 35 265.5 11.5Q229 -12 173 -12Q99 -12 66.5 34Q34 80 48 163L101 462H222L169 156Q162 117 176 96.5Q190 76 222 76Q257 76 287.5 103.5Q318 131 328 191L376 462H497L439 134Q436 117 440 104Q444 91 466 91Q472 91 479 92.5Q486 94 495 96L477 6Q444 -5 410 -5Q360 -5 340 18.5Q320 42 323 88ZM139 596Q139 630 159.5 648Q180 666 208 666Q238 666 258.5 648Q279 630 279 596Q279 563 258.5 544.5Q238 526 208 526Q180 526 159.5 544.5Q139 563 139 596ZM350 595Q350 629 370 647Q390 665 419 665Q449 665 469 647Q489 629 489 595Q489 563 469 544.5Q449 526 419 526Q390 526 370 544.5Q350 563 350 595Z" glyph-name="udieresis" horiz-adv-x="543" unicode="&#252;" /><glyph d="M323 88Q302 35 265.5 11.5Q229 -12 173 -12Q99 -12 66.5 34Q34 80 48 163L101 462H222L169 156Q162 117 176 96.5Q190 76 222 76Q257 76 287.5 103.5Q318 131 328 191L376 462H497L439 134Q436 117 440 104Q444 91 466 91Q472 91 479 92.5Q486 94 495 96L477 6Q444 -5 410 -5Q360 -5 340 18.5Q320 42 323 88ZM259 527 143 678H295L367 527Z" glyph-name="ugrave" horiz-adv-x="543" unicode="&#249;" /><glyph d="M323 88Q302 35 265.5 11.5Q229 -12 173 -12Q99 -12 66.5 34Q34 80 48 163L101 462H222L169 156Q162 117 176 96.5Q190 76 222 76Q257 76 287.5 103.5Q318 131 328 191L376 462H497L439 134Q436 117 440 104Q444 91 466 91Q472 91 479 92.5Q486 94 495 96L477 6Q444 -5 410 -5Q360 -5 340 18.5Q320 42 323 88ZM178 527 233 678H364L264 527ZM337 527 409 678H546L430 527Z" glyph-name="uhungarumlaut" horiz-adv-x="543" unicode="&#369;" /><glyph d="M323 88Q302 35 265.5 11.5Q229 -12 173 -12Q99 -12 66.5 34Q34 80 48 163L101 462H222L169 156Q162 117 176 96.5Q190 76 222 76Q257 76 287.5 103.5Q318 131 328 191L376 462H497L439 134Q436 117 440 104Q444 91 466 91Q472 91 479 92.5Q486 94 495 96L477 6Q444 -5 410 -5Q360 -5 340 18.5Q320 42 323 88ZM167 545 185 642H468L450 545Z" glyph-name="umacron" horiz-adv-x="543" unicode="&#363;" /><glyph d="M7 -22H388L371 -112H-9Z" glyph-name="underscore" horiz-adv-x="481" unicode="_" /><glyph d="M439 134Q436 117 440 104Q444 91 466 91Q473 91 480 92.5Q487 94 496 96L478 6Q454 2 429.5 -4Q405 -10 384.5 -20.5Q364 -31 351 -48Q338 -65 338 -91Q338 -111 349 -122Q360 -133 378 -133Q398 -133 411.5 -125Q425 -117 439 -100L468 -160Q448 -185 419.5 -198Q391 -211 353 -211Q304 -211 272.5 -186.5Q241 -162 241 -111Q241 -87 249.5 -67Q258 -47 272.5 -30.5Q287 -14 304.5 -1.5Q322 11 340 19Q331 29 325.5 46.5Q320 64 323 88Q302 35 265.5 11.5Q229 -12 173 -12Q99 -12 66.5 34Q34 80 48 163L101 462H222L169 156Q162 117 176 96.5Q190 76 222 76Q257 76 287.5 103.5Q318 131 328 191L376 462H497Z" glyph-name="uogonek" horiz-adv-x="543" unicode="&#371;" /><glyph d="M323 88Q302 35 265.5 11.5Q229 -12 173 -12Q99 -12 66.5 34Q34 80 48 163L101 462H222L169 156Q162 117 176 96.5Q190 76 222 76Q257 76 287.5 103.5Q318 131 328 191L376 462H497L439 134Q436 117 440 104Q444 91 466 91Q472 91 479 92.5Q486 94 495 96L477 6Q444 -5 410 -5Q360 -5 340 18.5Q320 42 323 88ZM214 609Q214 632 222.5 653Q231 674 246 689.5Q261 705 282.5 714Q304 723 331 723Q376 723 402.5 695Q429 667 429 627Q429 603 420.5 582Q412 561 397 545.5Q382 530 361 521Q340 512 314 512Q264 512 239 539.5Q214 567 214 609ZM327 669Q304 669 289.5 652.5Q275 636 275 613Q275 592 286.5 580Q298 568 319 568Q342 568 356 584.5Q370 601 370 624Q370 644 359 656.5Q348 669 327 669Z" glyph-name="uring" horiz-adv-x="543" unicode="&#367;" /><glyph d="M323 88Q302 35 265.5 11.5Q229 -12 173 -12Q99 -12 66.5 34Q34 80 48 163L101 462H222L169 156Q162 117 176 96.5Q190 76 222 76Q257 76 287.5 103.5Q318 131 328 191L376 462H497L439 134Q436 117 440 104Q444 91 466 91Q472 91 479 92.5Q486 94 495 96L477 6Q444 -5 410 -5Q360 -5 340 18.5Q320 42 323 88ZM381 524Q352 524 336.5 531Q321 538 304 549Q285 561 274.5 567.5Q264 574 250 574Q235 574 224 561.5Q213 549 211 523H143Q136 555 141.5 581.5Q147 608 162 627.5Q177 647 199 658Q221 669 247 669Q274 669 289.5 661.5Q305 654 319 644Q339 631 350 624.5Q361 618 375 618Q389 618 398.5 629Q408 640 410 667H481Q495 603 466.5 563.5Q438 524 381 524Z" glyph-name="utilde" horiz-adv-x="543" unicode="&#361;" /><glyph d="M34 462H156L182 237Q185 204 186 176.5Q187 149 187 129Q187 106 185 88H189Q194 108 202 132Q209 152 219.5 179.5Q230 207 246 237L364 462H492L236 0H105Z" glyph-name="v" horiz-adv-x="450" unicode="v" /><glyph d="M457 254Q461 219 461.5 188.5Q462 158 461 135Q460 109 457 86H461Q466 108 473 134Q479 157 489 187.5Q499 218 514 253L602 462H729L526 0H384L362 183Q359 212 358.5 239.5Q358 267 359 287Q360 311 362 331H358Q353 311 346 287Q340 267 330.5 239.5Q321 212 308 182L232 0H91L44 462H166L183 253Q186 218 186.5 188Q187 158 187 135Q186 109 185 86H189Q193 108 201 135Q208 158 218 188.5Q228 219 243 254L332 462H440Z" glyph-name="w" horiz-adv-x="697" unicode="w" /><glyph d="M457 254Q461 219 461.5 188.5Q462 158 461 135Q460 109 457 86H461Q466 108 473 134Q479 157 489 187.5Q499 218 514 253L602 462H729L526 0H384L362 183Q359 212 358.5 239.5Q358 267 359 287Q360 311 362 331H358Q353 311 346 287Q340 267 330.5 239.5Q321 212 308 182L232 0H91L44 462H166L183 253Q186 218 186.5 188Q187 158 187 135Q186 109 185 86H189Q193 108 201 135Q208 158 218 188.5Q228 219 243 254L332 462H440ZM333 527 404 678H557L441 527Z" glyph-name="wacute" horiz-adv-x="697" unicode="&#7811;" /><glyph d="M457 254Q461 219 461.5 188.5Q462 158 461 135Q460 109 457 86H461Q466 108 473 134Q479 157 489 187.5Q499 218 514 253L602 462H729L526 0H384L362 183Q359 212 358.5 239.5Q358 267 359 287Q360 311 362 331H358Q353 311 346 287Q340 267 330.5 239.5Q321 212 308 182L232 0H91L44 462H166L183 253Q186 218 186.5 188Q187 158 187 135Q186 109 185 86H189Q193 108 201 135Q208 158 218 188.5Q228 219 243 254L332 462H440ZM452 680 557 525H447L421 562Q415 570 412.5 576.5Q410 583 408 588Q406 593 406 597H401Q400 593 396 588Q393 583 387.5 576.5Q382 570 374 562L335 525H220L378 680Z" glyph-name="wcircumflex" horiz-adv-x="697" unicode="&#373;" /><glyph d="M457 254Q461 219 461.5 188.5Q462 158 461 135Q460 109 457 86H461Q466 108 473 134Q479 157 489 187.5Q499 218 514 253L602 462H729L526 0H384L362 183Q359 212 358.5 239.5Q358 267 359 287Q360 311 362 331H358Q353 311 346 287Q340 267 330.5 239.5Q321 212 308 182L232 0H91L44 462H166L183 253Q186 218 186.5 188Q187 158 187 135Q186 109 185 86H189Q193 108 201 135Q208 158 218 188.5Q228 219 243 254L332 462H440ZM226 596Q226 630 246.5 648Q267 666 295 666Q325 666 345.5 648Q366 630 366 596Q366 563 345.5 544.5Q325 526 295 526Q267 526 246.5 544.5Q226 563 226 596ZM437 595Q437 629 457 647Q477 665 506 665Q536 665 556 647Q576 629 576 595Q576 563 556 544.5Q536 526 506 526Q477 526 457 544.5Q437 563 437 595Z" glyph-name="wdieresis" horiz-adv-x="697" unicode="&#7813;" /><glyph d="M457 254Q461 219 461.5 188.5Q462 158 461 135Q460 109 457 86H461Q466 108 473 134Q479 157 489 187.5Q499 218 514 253L602 462H729L526 0H384L362 183Q359 212 358.5 239.5Q358 267 359 287Q360 311 362 331H358Q353 311 346 287Q340 267 330.5 239.5Q321 212 308 182L232 0H91L44 462H166L183 253Q186 218 186.5 188Q187 158 187 135Q186 109 185 86H189Q193 108 201 135Q208 158 218 188.5Q228 219 243 254L332 462H440ZM345 527 229 678H381L453 527Z" glyph-name="wgrave" horiz-adv-x="697" unicode="&#7809;" /><glyph d="M260 92Q249 115 244 130Q239 145 237 155Q234 166 235 174H231Q229 166 223 155Q218 145 207.5 130Q197 115 180 92L106 0H-28L163 231L62 462H190L224 381Q233 358 238 343Q243 328 245 317Q248 305 249 297H253Q257 307 264 319Q270 330 279.5 345Q289 360 304 380L368 462H503L320 235L430 0H305Z" glyph-name="x" horiz-adv-x="474" unicode="x" /><glyph d="M188 220Q191 188 192 162.5Q193 137 193 119Q193 98 192 82H196Q201 102 208 125Q214 145 224 170Q234 195 248 223L372 462H499L221 -48Q192 -101 166 -133Q140 -165 113.5 -182Q87 -199 60.5 -205Q34 -211 4 -211Q-24 -211 -46 -205.5Q-68 -200 -82 -192L-49 -96Q-37 -104 -23 -109Q-9 -114 8 -114Q42 -114 67 -93Q92 -72 116 -26L40 462H165Z" glyph-name="y" horiz-adv-x="457" unicode="y" /><glyph d="M188 220Q191 188 192 162.5Q193 137 193 119Q193 98 192 82H196Q201 102 208 125Q214 145 224 170Q234 195 248 223L372 462H499L221 -48Q192 -101 166 -133Q140 -165 113.5 -182Q87 -199 60.5 -205Q34 -211 4 -211Q-24 -211 -46 -205.5Q-68 -200 -82 -192L-49 -96Q-37 -104 -23 -109Q-9 -114 8 -114Q42 -114 67 -93Q92 -72 116 -26L40 462H165ZM208 527 279 678H432L316 527Z" glyph-name="yacute" horiz-adv-x="457" unicode="&#253;" /><glyph d="M188 220Q191 188 192 162.5Q193 137 193 119Q193 98 192 82H196Q201 102 208 125Q214 145 224 170Q234 195 248 223L372 462H499L221 -48Q192 -101 166 -133Q140 -165 113.5 -182Q87 -199 60.5 -205Q34 -211 4 -211Q-24 -211 -46 -205.5Q-68 -200 -82 -192L-49 -96Q-37 -104 -23 -109Q-9 -114 8 -114Q42 -114 67 -93Q92 -72 116 -26L40 462H165ZM327 680 432 525H322L296 562Q290 570 287.5 576.5Q285 583 283 588Q281 593 281 597H276Q275 593 271 588Q268 583 262.5 576.5Q257 570 249 562L210 525H95L253 680Z" glyph-name="ycircumflex" horiz-adv-x="457" unicode="&#375;" /><glyph d="M188 220Q191 188 192 162.5Q193 137 193 119Q193 98 192 82H196Q201 102 208 125Q214 145 224 170Q234 195 248 223L372 462H499L221 -48Q192 -101 166 -133Q140 -165 113.5 -182Q87 -199 60.5 -205Q34 -211 4 -211Q-24 -211 -46 -205.5Q-68 -200 -82 -192L-49 -96Q-37 -104 -23 -109Q-9 -114 8 -114Q42 -114 67 -93Q92 -72 116 -26L40 462H165ZM102 596Q102 630 122.5 648Q143 666 171 666Q201 666 221.5 648Q242 630 242 596Q242 563 221.5 544.5Q201 526 171 526Q143 526 122.5 544.5Q102 563 102 596ZM313 595Q313 629 333 647Q353 665 382 665Q412 665 432 647Q452 629 452 595Q452 563 432 544.5Q412 526 382 526Q353 526 333 544.5Q313 563 313 595Z" glyph-name="ydieresis" horiz-adv-x="457" unicode="&#255;" /><glyph d="M365 287 333 239H473L464 187H308L276 0H153L185 187H29L38 239H176L160 287H47L56 339H142L58 589H187L237 433Q245 404 250.5 380Q256 356 258 338Q261 317 261 300H265Q270 318 279 339Q287 357 299.5 381Q312 405 330 433L432 589H562L399 339H491L482 287Z" glyph-name="yen" horiz-adv-x="518" unicode="&#165;" /><glyph d="M188 220Q191 188 192 162.5Q193 137 193 119Q193 98 192 82H196Q201 102 208 125Q214 145 224 170Q234 195 248 223L372 462H499L221 -48Q192 -101 166 -133Q140 -165 113.5 -182Q87 -199 60.5 -205Q34 -211 4 -211Q-24 -211 -46 -205.5Q-68 -200 -82 -192L-49 -96Q-37 -104 -23 -109Q-9 -114 8 -114Q42 -114 67 -93Q92 -72 116 -26L40 462H165ZM221 527 105 678H257L329 527Z" glyph-name="ygrave" horiz-adv-x="457" unicode="&#7923;" /><glyph d="M216 300Q249 337 270 354Q281 364 292 370V374Q282 372 268 370Q256 368 239 367Q222 366 202 366H78L97 462H448L438 388L232 160Q215 141 201 128Q187 115 177 107Q166 97 156 91V87L180 90Q191 92 208 93Q225 94 245 94H385L369 0H2L13 66Z" glyph-name="z" horiz-adv-x="447" unicode="z" /><glyph d="M216 300Q249 337 270 354Q281 364 292 370V374Q282 372 268 370Q256 368 239 367Q222 366 202 366H78L97 462H448L438 388L232 160Q215 141 201 128Q187 115 177 107Q166 97 156 91V87L180 90Q191 92 208 93Q225 94 245 94H385L369 0H2L13 66ZM210 527 281 678H434L318 527Z" glyph-name="zacute" horiz-adv-x="447" unicode="&#378;" /><glyph d="M216 300Q249 337 270 354Q281 364 292 370V374Q282 372 268 370Q256 368 239 367Q222 366 202 366H78L97 462H448L438 388L232 160Q215 141 201 128Q187 115 177 107Q166 97 156 91V87L180 90Q191 92 208 93Q225 94 245 94H385L369 0H2L13 66ZM229 525 124 680H234L260 643Q270 628 273 618Q275 613 275 609H280Q281 613 285 618Q288 623 293 629Q298 635 307 643L346 680H461L303 525Z" glyph-name="zcaron" horiz-adv-x="447" unicode="&#382;" /><glyph d="M216 300Q249 337 270 354Q281 364 292 370V374Q282 372 268 370Q256 368 239 367Q222 366 202 366H78L97 462H448L438 388L232 160Q215 141 201 128Q187 115 177 107Q166 97 156 91V87L180 90Q191 92 208 93Q225 94 245 94H385L369 0H2L13 66ZM204 602Q204 636 226 655Q248 674 278 674Q311 674 333 655Q355 636 355 602Q355 569 333 550Q311 531 278 531Q248 531 226 550Q204 569 204 602Z" glyph-name="zdotaccent" horiz-adv-x="447" unicode="&#380;" /><glyph d="M260 -12Q204 -12 164.5 7.5Q125 27 100 60.5Q75 94 63 138Q51 182 51 232Q51 298 69 364Q87 430 122.5 482.5Q158 535 211.5 568Q265 601 336 601Q391 601 430.5 581.5Q470 562 495.5 528.5Q521 495 533 450.5Q545 406 545 357Q545 291 527 225Q509 159 473.5 106.5Q438 54 384.5 21Q331 -12 260 -12ZM327 497Q290 497 261 474Q232 451 211.5 413.5Q191 376 180.5 329Q170 282 170 235Q170 169 195 130.5Q220 92 269 92Q306 92 335 115Q364 138 384 175.5Q404 213 415 260Q426 307 426 354Q426 420 401 458.5Q376 497 327 497Z" glyph-name="zero" horiz-adv-x="582" unicode="0" /></font>
</defs>
</svg>
